%TF.GenerationSoftware,KiCad,Pcbnew,7.0.1*%
%TF.CreationDate,2023-04-07T20:32:22+02:00*%
%TF.ProjectId,ESP32 S3 MCU Socket,45535033-3220-4533-9320-4d435520536f,rev?*%
%TF.SameCoordinates,Original*%
%TF.FileFunction,Paste,Bot*%
%TF.FilePolarity,Positive*%
%FSLAX46Y46*%
G04 Gerber Fmt 4.6, Leading zero omitted, Abs format (unit mm)*
G04 Created by KiCad (PCBNEW 7.0.1) date 2023-04-07 20:32:22*
%MOMM*%
%LPD*%
G01*
G04 APERTURE LIST*
G04 Aperture macros list*
%AMRoundRect*
0 Rectangle with rounded corners*
0 $1 Rounding radius*
0 $2 $3 $4 $5 $6 $7 $8 $9 X,Y pos of 4 corners*
0 Add a 4 corners polygon primitive as box body*
4,1,4,$2,$3,$4,$5,$6,$7,$8,$9,$2,$3,0*
0 Add four circle primitives for the rounded corners*
1,1,$1+$1,$2,$3*
1,1,$1+$1,$4,$5*
1,1,$1+$1,$6,$7*
1,1,$1+$1,$8,$9*
0 Add four rect primitives between the rounded corners*
20,1,$1+$1,$2,$3,$4,$5,0*
20,1,$1+$1,$4,$5,$6,$7,0*
20,1,$1+$1,$6,$7,$8,$9,0*
20,1,$1+$1,$8,$9,$2,$3,0*%
G04 Aperture macros list end*
%ADD10RoundRect,0.037100X0.317900X0.227900X-0.317900X0.227900X-0.317900X-0.227900X0.317900X-0.227900X0*%
%ADD11RoundRect,0.150000X0.150000X0.625000X-0.150000X0.625000X-0.150000X-0.625000X0.150000X-0.625000X0*%
%ADD12RoundRect,0.250000X0.350000X0.650000X-0.350000X0.650000X-0.350000X-0.650000X0.350000X-0.650000X0*%
%ADD13R,2.100000X1.400000*%
%ADD14R,0.300000X2.800000*%
%ADD15RoundRect,0.150000X0.625000X-0.150000X0.625000X0.150000X-0.625000X0.150000X-0.625000X-0.150000X0*%
%ADD16RoundRect,0.250000X0.650000X-0.350000X0.650000X0.350000X-0.650000X0.350000X-0.650000X-0.350000X0*%
%ADD17RoundRect,0.243750X0.456250X-0.243750X0.456250X0.243750X-0.456250X0.243750X-0.456250X-0.243750X0*%
%ADD18R,1.270000X0.760000*%
%ADD19RoundRect,0.124800X0.475200X0.275200X-0.475200X0.275200X-0.475200X-0.275200X0.475200X-0.275200X0*%
%ADD20RoundRect,0.243750X-0.243750X-0.456250X0.243750X-0.456250X0.243750X0.456250X-0.243750X0.456250X0*%
G04 APERTURE END LIST*
D10*
%TO.C,U3*%
X138970000Y-114120000D03*
X138970000Y-115120000D03*
X138970000Y-116120000D03*
X137000000Y-116120000D03*
X137000000Y-115120000D03*
X137000000Y-114120000D03*
%TD*%
D11*
%TO.C,I2C_PLUG1*%
X157320000Y-115100000D03*
X156320000Y-115100000D03*
X155320000Y-115100000D03*
X154320000Y-115100000D03*
D12*
X158620000Y-118975000D03*
X153020000Y-118975000D03*
%TD*%
D11*
%TO.C,ExtSW1*%
X147850000Y-115165000D03*
X146850000Y-115165000D03*
X145850000Y-115165000D03*
D12*
X149150000Y-119040000D03*
X144550000Y-119040000D03*
%TD*%
D13*
%TO.C,ANT1*%
X122430000Y-99020000D03*
X122430000Y-89520000D03*
%TD*%
D14*
%TO.C,LCD1*%
X160705000Y-102595000D03*
X161415000Y-102600000D03*
X162125000Y-102600000D03*
X162835000Y-102595000D03*
X163545000Y-102600000D03*
X164260000Y-102595000D03*
X164970000Y-102595000D03*
X165680000Y-102595000D03*
X166390000Y-102590000D03*
X167100000Y-102595000D03*
X167810000Y-102595000D03*
X168520000Y-102595000D03*
%TD*%
D15*
%TO.C,J2*%
X126130000Y-80350000D03*
X126130000Y-79350000D03*
X126130000Y-78350000D03*
X126130000Y-77350000D03*
X126130000Y-76350000D03*
X126130000Y-75350000D03*
X126130000Y-74350000D03*
D16*
X122255000Y-81650000D03*
X122255000Y-73050000D03*
%TD*%
D17*
%TO.C,PWR-LED1*%
X173370000Y-74417500D03*
X173370000Y-72542500D03*
%TD*%
%TO.C,CH-TX-RED1*%
X148650000Y-77657500D03*
X148650000Y-75782500D03*
%TD*%
D18*
%TO.C,SW1*%
X161480000Y-117615000D03*
X161480000Y-116345000D03*
X169100000Y-116345000D03*
X169100000Y-117615000D03*
%TD*%
D19*
%TO.C,LED1*%
X131240000Y-110750000D03*
X128060000Y-110760000D03*
X131240000Y-109610000D03*
X128050000Y-109640000D03*
%TD*%
D20*
%TO.C,CH-RX-LED1*%
X146610000Y-80410000D03*
X148485000Y-80410000D03*
%TD*%
M02*
