%TF.GenerationSoftware,KiCad,Pcbnew,7.0.1*%
%TF.CreationDate,2023-04-07T20:32:22+02:00*%
%TF.ProjectId,ESP32 S3 MCU Socket,45535033-3220-4533-9320-4d435520536f,rev?*%
%TF.SameCoordinates,Original*%
%TF.FileFunction,Paste,Top*%
%TF.FilePolarity,Positive*%
%FSLAX46Y46*%
G04 Gerber Fmt 4.6, Leading zero omitted, Abs format (unit mm)*
G04 Created by KiCad (PCBNEW 7.0.1) date 2023-04-07 20:32:22*
%MOMM*%
%LPD*%
G01*
G04 APERTURE LIST*
G04 Aperture macros list*
%AMRoundRect*
0 Rectangle with rounded corners*
0 $1 Rounding radius*
0 $2 $3 $4 $5 $6 $7 $8 $9 X,Y pos of 4 corners*
0 Add a 4 corners polygon primitive as box body*
4,1,4,$2,$3,$4,$5,$6,$7,$8,$9,$2,$3,0*
0 Add four circle primitives for the rounded corners*
1,1,$1+$1,$2,$3*
1,1,$1+$1,$4,$5*
1,1,$1+$1,$6,$7*
1,1,$1+$1,$8,$9*
0 Add four rect primitives between the rounded corners*
20,1,$1+$1,$2,$3,$4,$5,0*
20,1,$1+$1,$4,$5,$6,$7,0*
20,1,$1+$1,$6,$7,$8,$9,0*
20,1,$1+$1,$8,$9,$2,$3,0*%
G04 Aperture macros list end*
%ADD10C,0.010000*%
%ADD11RoundRect,0.200000X-0.275000X0.200000X-0.275000X-0.200000X0.275000X-0.200000X0.275000X0.200000X0*%
%ADD12RoundRect,0.200000X-0.200000X-0.275000X0.200000X-0.275000X0.200000X0.275000X-0.200000X0.275000X0*%
%ADD13RoundRect,0.200000X0.200000X0.275000X-0.200000X0.275000X-0.200000X-0.275000X0.200000X-0.275000X0*%
%ADD14RoundRect,0.225000X0.250000X-0.225000X0.250000X0.225000X-0.250000X0.225000X-0.250000X-0.225000X0*%
%ADD15RoundRect,0.225000X-0.250000X0.225000X-0.250000X-0.225000X0.250000X-0.225000X0.250000X0.225000X0*%
%ADD16RoundRect,0.066000X0.404000X0.154000X-0.404000X0.154000X-0.404000X-0.154000X0.404000X-0.154000X0*%
%ADD17RoundRect,0.225000X0.225000X0.250000X-0.225000X0.250000X-0.225000X-0.250000X0.225000X-0.250000X0*%
%ADD18RoundRect,0.250000X-0.350000X-0.450000X0.350000X-0.450000X0.350000X0.450000X-0.350000X0.450000X0*%
%ADD19RoundRect,0.250000X1.075000X-0.375000X1.075000X0.375000X-1.075000X0.375000X-1.075000X-0.375000X0*%
%ADD20RoundRect,0.250000X-0.275000X0.275000X-0.275000X-0.275000X0.275000X-0.275000X0.275000X0.275000X0*%
%ADD21RoundRect,0.062500X-0.062500X0.350000X-0.062500X-0.350000X0.062500X-0.350000X0.062500X0.350000X0*%
%ADD22RoundRect,0.062500X-0.350000X0.062500X-0.350000X-0.062500X0.350000X-0.062500X0.350000X0.062500X0*%
%ADD23R,1.200000X1.400000*%
%ADD24RoundRect,0.218750X-0.218750X-0.381250X0.218750X-0.381250X0.218750X0.381250X-0.218750X0.381250X0*%
%ADD25RoundRect,0.200000X0.275000X-0.200000X0.275000X0.200000X-0.275000X0.200000X-0.275000X-0.200000X0*%
%ADD26RoundRect,0.150000X0.150000X-0.825000X0.150000X0.825000X-0.150000X0.825000X-0.150000X-0.825000X0*%
%ADD27RoundRect,0.250000X0.250000X0.475000X-0.250000X0.475000X-0.250000X-0.475000X0.250000X-0.475000X0*%
%ADD28RoundRect,0.225000X-0.225000X-0.250000X0.225000X-0.250000X0.225000X0.250000X-0.225000X0.250000X0*%
%ADD29RoundRect,0.250000X-0.250000X-0.475000X0.250000X-0.475000X0.250000X0.475000X-0.250000X0.475000X0*%
%ADD30R,0.330000X0.580000*%
%ADD31R,0.580000X0.330000*%
%ADD32RoundRect,0.150000X-0.150000X0.587500X-0.150000X-0.587500X0.150000X-0.587500X0.150000X0.587500X0*%
%ADD33R,1.400000X1.200000*%
%ADD34R,0.420000X0.840000*%
%ADD35RoundRect,0.250000X0.475000X-0.337500X0.475000X0.337500X-0.475000X0.337500X-0.475000X-0.337500X0*%
%ADD36RoundRect,0.218750X0.218750X0.381250X-0.218750X0.381250X-0.218750X-0.381250X0.218750X-0.381250X0*%
%ADD37R,0.300000X1.450000*%
%ADD38R,0.600000X1.450000*%
%ADD39RoundRect,0.250001X0.462499X0.624999X-0.462499X0.624999X-0.462499X-0.624999X0.462499X-0.624999X0*%
%ADD40RoundRect,0.250000X0.337500X0.475000X-0.337500X0.475000X-0.337500X-0.475000X0.337500X-0.475000X0*%
G04 APERTURE END LIST*
%TO.C,ESP_FLASH3*%
D10*
X160230000Y-89990000D02*
X158630000Y-89990000D01*
X158630000Y-88840000D01*
X160230000Y-88840000D01*
X160230000Y-89990000D01*
G36*
X160230000Y-89990000D02*
G01*
X158630000Y-89990000D01*
X158630000Y-88840000D01*
X160230000Y-88840000D01*
X160230000Y-89990000D01*
G37*
X160230000Y-88020000D02*
X158630000Y-88020000D01*
X158630000Y-86870000D01*
X160230000Y-86870000D01*
X160230000Y-88020000D01*
G36*
X160230000Y-88020000D02*
G01*
X158630000Y-88020000D01*
X158630000Y-86870000D01*
X160230000Y-86870000D01*
X160230000Y-88020000D01*
G37*
X158710000Y-89990000D02*
X157110000Y-89990000D01*
X157110000Y-88840000D01*
X158710000Y-88840000D01*
X158710000Y-89990000D01*
G36*
X158710000Y-89990000D02*
G01*
X157110000Y-89990000D01*
X157110000Y-88840000D01*
X158710000Y-88840000D01*
X158710000Y-89990000D01*
G37*
X158710000Y-88020000D02*
X157110000Y-88020000D01*
X157110000Y-86870000D01*
X158710000Y-86870000D01*
X158710000Y-88020000D01*
G36*
X158710000Y-88020000D02*
G01*
X157110000Y-88020000D01*
X157110000Y-86870000D01*
X158710000Y-86870000D01*
X158710000Y-88020000D01*
G37*
%TO.C,AUR1*%
X165380569Y-68073466D02*
X163799431Y-68073466D01*
X163799431Y-67061534D01*
X165380569Y-67061534D01*
X165380569Y-68073466D01*
G36*
X165380569Y-68073466D02*
G01*
X163799431Y-68073466D01*
X163799431Y-67061534D01*
X165380569Y-67061534D01*
X165380569Y-68073466D01*
G37*
%TD*%
D11*
%TO.C,CH-RX-R1*%
X144480000Y-80055000D03*
X144480000Y-81705000D03*
%TD*%
D12*
%TO.C,USB_PLUG_R1*%
X141945000Y-64170000D03*
X143595000Y-64170000D03*
%TD*%
D13*
%TO.C,CH-D+-R1*%
X140675000Y-68780000D03*
X139025000Y-68780000D03*
%TD*%
D14*
%TO.C,E-Y1-C2*%
X147700000Y-87260000D03*
X147700000Y-85710000D03*
%TD*%
D12*
%TO.C,E-BOOT-DTR-R1*%
X134585000Y-105880000D03*
X136235000Y-105880000D03*
%TD*%
D15*
%TO.C,E-LNA-C2*%
X124680000Y-104295000D03*
X124680000Y-105845000D03*
%TD*%
D16*
%TO.C,ESP_FLASH3*%
X162565000Y-90335000D03*
X162565000Y-89065000D03*
X162565000Y-87795000D03*
X162565000Y-86525000D03*
X154775000Y-86525000D03*
X154775000Y-87795000D03*
X154775000Y-89065000D03*
X154775000Y-90335000D03*
%TD*%
D17*
%TO.C,E-VDD3-CPU-C1*%
X132635000Y-105450000D03*
X131085000Y-105450000D03*
%TD*%
%TO.C,E-Y2-C1*%
X148605000Y-105130000D03*
X147055000Y-105130000D03*
%TD*%
D18*
%TO.C,AUR_R1*%
X166080000Y-63237500D03*
X168080000Y-63237500D03*
%TD*%
D14*
%TO.C,E-Y1-C1*%
X139850000Y-87820000D03*
X139850000Y-86270000D03*
%TD*%
D19*
%TO.C,AUR_l1*%
X159880000Y-68840000D03*
X159880000Y-66040000D03*
%TD*%
D13*
%TO.C,RGB_LED_R1*%
X135515000Y-109590000D03*
X133865000Y-109590000D03*
%TD*%
D20*
%TO.C,U1*%
X138120000Y-73022500D03*
X136820000Y-73022500D03*
X138120000Y-74322500D03*
X136820000Y-74322500D03*
D21*
X138720000Y-71735000D03*
X138220000Y-71735000D03*
X137720000Y-71735000D03*
X137220000Y-71735000D03*
X136720000Y-71735000D03*
X136220000Y-71735000D03*
D22*
X135532500Y-72422500D03*
X135532500Y-72922500D03*
X135532500Y-73422500D03*
X135532500Y-73922500D03*
X135532500Y-74422500D03*
X135532500Y-74922500D03*
D21*
X136220000Y-75610000D03*
X136720000Y-75610000D03*
X137220000Y-75610000D03*
X137720000Y-75610000D03*
X138220000Y-75610000D03*
X138720000Y-75610000D03*
D22*
X139407500Y-74922500D03*
X139407500Y-74422500D03*
X139407500Y-73922500D03*
X139407500Y-73422500D03*
X139407500Y-72922500D03*
X139407500Y-72422500D03*
%TD*%
D12*
%TO.C,USB_PLUG_R2*%
X137765000Y-64150000D03*
X139415000Y-64150000D03*
%TD*%
%TO.C,PSR1*%
X168245000Y-84240000D03*
X169895000Y-84240000D03*
%TD*%
D23*
%TO.C,E-40MHZ-Y2*%
X146820000Y-100590000D03*
X146820000Y-102790000D03*
X148520000Y-102790000D03*
X148520000Y-100590000D03*
%TD*%
D14*
%TO.C,CH-V3-C1*%
X133840000Y-68835000D03*
X133840000Y-67285000D03*
%TD*%
D11*
%TO.C,CH-TX-R1*%
X146570000Y-76035000D03*
X146570000Y-77685000D03*
%TD*%
D24*
%TO.C,E-LNA-L1*%
X122447500Y-102220000D03*
X124572500Y-102220000D03*
%TD*%
D25*
%TO.C,I2C_SCL_R1*%
X139660000Y-111285000D03*
X139660000Y-109635000D03*
%TD*%
D14*
%TO.C,CH-VIO-C1*%
X135700000Y-68825000D03*
X135700000Y-67275000D03*
%TD*%
D26*
%TO.C,EPS1*%
X170090000Y-91610000D03*
X171360000Y-91610000D03*
X172630000Y-91610000D03*
X173900000Y-91610000D03*
X173900000Y-86660000D03*
X172630000Y-86660000D03*
X171360000Y-86660000D03*
X170090000Y-86660000D03*
%TD*%
D27*
%TO.C,E-VDDA-C2*%
X139000000Y-94930000D03*
X137100000Y-94930000D03*
%TD*%
D28*
%TO.C,E-VDD3-C2*%
X126785000Y-99160000D03*
X128335000Y-99160000D03*
%TD*%
D11*
%TO.C,AUR-LED-R1*%
X170510000Y-72775000D03*
X170510000Y-74425000D03*
%TD*%
D29*
%TO.C,E-C2*%
X126750000Y-82950000D03*
X128650000Y-82950000D03*
%TD*%
D11*
%TO.C,E-TXD0-R1*%
X143060000Y-76245000D03*
X143060000Y-77895000D03*
%TD*%
D13*
%TO.C,CH-D-R2*%
X140675000Y-66960000D03*
X139025000Y-66960000D03*
%TD*%
D30*
%TO.C,IMU1*%
X145705000Y-111935000D03*
X146205000Y-111935000D03*
X146705000Y-111935000D03*
X147205000Y-111935000D03*
D31*
X147380000Y-111260000D03*
X147380000Y-110760000D03*
X147380000Y-110260000D03*
D30*
X147205000Y-109585000D03*
X146705000Y-109585000D03*
X146205000Y-109585000D03*
X145705000Y-109585000D03*
D31*
X145530000Y-110260000D03*
X145530000Y-110760000D03*
X145530000Y-111260000D03*
%TD*%
D32*
%TO.C,CH-DTR-BSS1*%
X136730000Y-79210000D03*
X134830000Y-79210000D03*
X135780000Y-81085000D03*
%TD*%
D15*
%TO.C,IMU_C1*%
X149370000Y-109545000D03*
X149370000Y-111095000D03*
%TD*%
%TO.C,E-LNA-C1*%
X122330000Y-104325000D03*
X122330000Y-105875000D03*
%TD*%
D17*
%TO.C,E-VDDA-C1*%
X138565000Y-98850000D03*
X137015000Y-98850000D03*
%TD*%
D32*
%TO.C,CH-RTS-BSS1*%
X132637500Y-79232500D03*
X130737500Y-79232500D03*
X131687500Y-81107500D03*
%TD*%
D33*
%TO.C,E-32MHZ-Y1*%
X143140000Y-88990000D03*
X145340000Y-88990000D03*
X145340000Y-87290000D03*
X143140000Y-87290000D03*
%TD*%
D15*
%TO.C,ATH20_C1*%
X131560000Y-114130000D03*
X131560000Y-115680000D03*
%TD*%
D14*
%TO.C,E-VDD3-RTC-C1*%
X137160000Y-87295000D03*
X137160000Y-85745000D03*
%TD*%
D28*
%TO.C,E-VDD3-C1*%
X126875000Y-94720000D03*
X128425000Y-94720000D03*
%TD*%
D34*
%TO.C,AUR1*%
X165540000Y-66132500D03*
X164590000Y-66132500D03*
X163640000Y-66132500D03*
X163640000Y-69002500D03*
X164590000Y-69002500D03*
X165540000Y-69002500D03*
%TD*%
D35*
%TO.C,AUR_C2*%
X168270000Y-71517500D03*
X168270000Y-69442500D03*
%TD*%
D28*
%TO.C,E-VDD-SPI-C2*%
X150965000Y-91440000D03*
X152515000Y-91440000D03*
%TD*%
D15*
%TO.C,E-RST-EN-C1*%
X132940000Y-88230000D03*
X132940000Y-89780000D03*
%TD*%
D36*
%TO.C,E-VDD3-L1*%
X128502500Y-97110000D03*
X126377500Y-97110000D03*
%TD*%
D18*
%TO.C,AUR_R2*%
X161650000Y-63217500D03*
X163650000Y-63217500D03*
%TD*%
D37*
%TO.C,J1*%
X152460000Y-69225000D03*
X151460000Y-69225000D03*
X150960000Y-69225000D03*
X149960000Y-69225000D03*
D38*
X147960000Y-69225000D03*
X148760000Y-69225000D03*
D37*
X149460000Y-69225000D03*
X150460000Y-69225000D03*
X151960000Y-69225000D03*
X152960000Y-69225000D03*
D38*
X153660000Y-69225000D03*
X154460000Y-69225000D03*
%TD*%
D13*
%TO.C,USB_PLYG_R1*%
X143665000Y-62310000D03*
X142015000Y-62310000D03*
%TD*%
D14*
%TO.C,CH-VBUS-C2*%
X131990000Y-68855000D03*
X131990000Y-67305000D03*
%TD*%
D11*
%TO.C,I2C_SDA_R1*%
X142450000Y-111260000D03*
X142450000Y-112910000D03*
%TD*%
D39*
%TO.C,PWR_FUSE1*%
X155557500Y-75280000D03*
X152582500Y-75280000D03*
%TD*%
D28*
%TO.C,E-VDD-SPI-C1*%
X150935000Y-93480000D03*
X152485000Y-93480000D03*
%TD*%
%TO.C,E-Y2-C2*%
X146855000Y-98250000D03*
X148405000Y-98250000D03*
%TD*%
D29*
%TO.C,E-C1*%
X126700000Y-85310000D03*
X128600000Y-85310000D03*
%TD*%
D40*
%TO.C,AUR_C1*%
X160127500Y-71830000D03*
X158052500Y-71830000D03*
%TD*%
D12*
%TO.C,E-RST-EN-R1*%
X128585000Y-90550000D03*
X130235000Y-90550000D03*
%TD*%
M02*
