%TF.GenerationSoftware,KiCad,Pcbnew,7.0.1*%
%TF.CreationDate,2023-04-07T20:32:22+02:00*%
%TF.ProjectId,ESP32 S3 MCU Socket,45535033-3220-4533-9320-4d435520536f,rev?*%
%TF.SameCoordinates,Original*%
%TF.FileFunction,Profile,NP*%
%FSLAX46Y46*%
G04 Gerber Fmt 4.6, Leading zero omitted, Abs format (unit mm)*
G04 Created by KiCad (PCBNEW 7.0.1) date 2023-04-07 20:32:22*
%MOMM*%
%LPD*%
G01*
G04 APERTURE LIST*
%TA.AperFunction,Profile*%
%ADD10C,0.100000*%
%TD*%
%TA.AperFunction,Profile*%
%ADD11C,0.120000*%
%TD*%
G04 APERTURE END LIST*
D10*
X140096132Y-116575634D02*
X140096619Y-113715634D01*
X135089630Y-116590080D02*
G75*
G03*
X135520075Y-117000079I410370J-120D01*
G01*
X139686651Y-117006135D02*
G75*
G03*
X140096649Y-116575634I-51J410535D01*
G01*
X135089588Y-116590080D02*
X135100075Y-113730079D01*
X140096655Y-113715634D02*
G75*
G03*
X139666132Y-113305636I-410455J34D01*
G01*
X140890000Y-112914602D02*
G75*
G03*
X140459482Y-112504604I-410200J302D01*
G01*
X135520075Y-117574321D02*
G75*
G03*
X135520075Y-117000079I25J287121D01*
G01*
X140459482Y-112504603D02*
X134690474Y-112486919D01*
X134280475Y-112917406D02*
X134299345Y-117159748D01*
X134729832Y-117569747D02*
X135520075Y-117574350D01*
X140896130Y-117149462D02*
X140889969Y-112914602D01*
X134299279Y-117159748D02*
G75*
G03*
X134729832Y-117569747I410821J348D01*
G01*
X139686651Y-117006208D02*
G75*
G03*
X139686651Y-117580392I49J-287092D01*
G01*
X140486649Y-117579947D02*
G75*
G03*
X140896648Y-117149462I251J410247D01*
G01*
X140486649Y-117579949D02*
X139686651Y-117580392D01*
X135510074Y-113299584D02*
G75*
G03*
X135100075Y-113730079I-74J-410416D01*
G01*
X135510074Y-113299592D02*
X139666132Y-113305635D01*
X134690474Y-112486888D02*
G75*
G03*
X134280476Y-112917406I26J-410512D01*
G01*
D11*
%TO.C,REF\u002A\u002A*%
X120332646Y-69835911D02*
X120420492Y-111592588D01*
X128927412Y-61160492D02*
X170709089Y-61197646D01*
X129095911Y-120187354D02*
X170837588Y-120319508D01*
X179384508Y-69792412D02*
X179432354Y-111644089D01*
X128927412Y-61160492D02*
G75*
G03*
X120332647Y-69835911I-4767J-8590418D01*
G01*
X120420492Y-111592588D02*
G75*
G03*
X129095911Y-120187353I8590418J-4767D01*
G01*
X179384513Y-69792412D02*
G75*
G03*
X170709089Y-61197647I-8590423J4762D01*
G01*
X170837588Y-120319513D02*
G75*
G03*
X179432353Y-111644089I4762J8590423D01*
G01*
%TO.C,ESP32S1*%
X145398450Y-104761551D02*
G75*
G03*
X145398450Y-104761551I-818450J0D01*
G01*
X138026531Y-96760000D02*
G75*
G03*
X138026531Y-96760000I-465273J0D01*
G01*
X131398450Y-88751551D02*
G75*
G03*
X131398450Y-88751551I-818450J0D01*
G01*
%TD*%
M02*
