M48
; DRILL file {KiCad 7.0.1} date Fri Apr  7 20:32:15 2023
; FORMAT={-:-/ absolute / inch / decimal}
; #@! TF.CreationDate,2023-04-07T20:32:15+02:00
; #@! TF.GenerationSoftware,Kicad,Pcbnew,7.0.1
; #@! TF.FileFunction,Plated,1,2,PTH
FMAT,2
INCH
; #@! TA.AperFunction,Plated,PTH,ViaDrill
T1C0.0157
; #@! TA.AperFunction,Plated,PTH,ComponentDrill
T2C0.0197
; #@! TA.AperFunction,Plated,PTH,ComponentDrill
T3C0.0236
; #@! TA.AperFunction,Plated,PTH,ComponentDrill
T4C0.0866
%
G90
G05
T1
X4.82Y-3.9618
X4.961Y-4.0268
X4.9913Y-4.1681
X5.0042Y-3.6656
X5.0301Y-3.4591
X5.0362Y-2.9189
X5.0402Y-3.1886
X5.0465Y-3.6437
X5.0736Y-2.9642
X5.1039Y-4.0996
X5.1043Y-3.3177
X5.1783Y-4.4476
X5.1833Y-3.0451
X5.1845Y-3.25
X5.2048Y-4.0446
X5.2068Y-4.2329
X5.2161Y-3.3414
X5.2187Y-3.5839
X5.2244Y-4.3154
X5.2439Y-2.8045
X5.25Y-4.424
X5.2638Y-3.3421
X5.2689Y-2.5913
X5.2954Y-3.798
X5.3065Y-3.7252
X5.3146Y-3.3403
X5.3366Y-4.1213
X5.3449Y-3.248
X5.365Y-2.7571
X5.4122Y-2.9005
X5.4217Y-3.85
X5.4335Y-3.6839
X5.4336Y-3.9357
X5.4343Y-4.6421
X5.4358Y-3.2585
X5.4409Y-4.2276
X5.4679Y-3.0585
X5.4833Y-3.2286
X5.4909Y-3.6874
X5.5374Y-2.5256
X5.5453Y-4.0457
X5.5488Y-2.8701
X5.5509Y-3.8212
X5.5535Y-3.3996
X5.5691Y-2.5772
X5.5826Y-3.0527
X5.585Y-4.2622
X5.5996Y-4.3327
X5.6024Y-2.8681
X5.628Y-2.9449
X5.6291Y-4.2291
X5.6335Y-2.5823
X5.6575Y-4.0614
X5.6622Y-4.3839
X5.7079Y-2.5264
X5.7185Y-3.5677
X5.7189Y-3.3744
X5.7189Y-3.989
X5.7224Y-2.9791
X5.7417Y-4.4713
X5.7449Y-3.2268
X5.7567Y-3.6976
X5.765Y-4.361
X5.7791Y-2.8063
X5.8059Y-3.1039
X5.815Y-4.6012
X5.8823Y-4.2602
X5.889Y-2.6642
X5.9122Y-3.9055
X5.9319Y-2.9654
X5.9709Y-3.4917
X6.0035Y-2.6402
X6.0102Y-2.8437
X6.0114Y-4.5102
X6.0402Y-3.5543
X6.0591Y-3.6795
X6.1154Y-3.6512
X6.1154Y-4.5941
X6.1283Y-2.8047
X6.1535Y-4.4484
X6.2079Y-2.9626
X6.2984Y-3.6449
X6.3043Y-2.7673
X6.3811Y-2.913
X6.387Y-3.2496
X6.3969Y-4.1305
X6.4591Y-3.5539
X6.5024Y-3.4634
X6.5657Y-3.4307
X6.6072Y-3.5412
X6.6252Y-2.668
X6.6315Y-3.9169
X6.639Y-3.4972
X6.7614Y-2.9291
X6.798Y-3.685
X6.8512Y-3.6823
X6.8862Y-3.7878
X6.9075Y-2.9
T2
X5.1504Y-3.7075
X5.1504Y-3.7543
X5.1504Y-3.8016
X5.1504Y-3.8492
X5.1504Y-3.8965
X5.1898Y-3.7386
X5.1898Y-3.7858
X5.1902Y-3.8331
X5.1902Y-3.8803
X5.2291Y-3.7232
X5.2291Y-3.7701
X5.2291Y-3.8173
X5.2291Y-3.865
X5.2291Y-3.9122
X5.3142Y-3.6224
X5.3142Y-4.0752
X5.3299Y-3.5437
X5.3299Y-3.9965
X5.3449Y-4.0354
X5.3453Y-3.5827
X5.361Y-4.0752
X5.3614Y-3.6224
X5.3768Y-3.5437
X5.3768Y-3.9965
X5.3921Y-4.0354
X5.3925Y-3.5827
X5.4083Y-3.6224
X5.4083Y-4.0752
X5.424Y-3.5437
X5.424Y-3.9965
X5.4398Y-4.0354
X5.4402Y-3.5827
X5.4559Y-3.6224
X5.4559Y-4.0752
X5.4717Y-3.5437
X5.4717Y-3.9965
X5.487Y-4.0354
X5.4874Y-3.5827
X5.5031Y-3.6224
X5.5031Y-4.0752
X5.5189Y-3.5437
X5.5189Y-3.9965
X5.6035Y-3.8492
X5.6035Y-3.8961
X5.6039Y-3.7075
X5.6039Y-3.7543
X5.6039Y-3.802
X5.6429Y-3.8335
X5.6433Y-3.7382
X5.6433Y-3.8803
X5.6437Y-3.7858
X5.6823Y-3.7232
X5.6823Y-3.865
X5.6823Y-3.9122
X5.6827Y-3.7701
X5.6831Y-3.8173
T4
X4.9386Y-4.5854
X4.939Y-2.6
X6.848Y-4.5913
X6.8516Y-2.6016
T3
G00X5.7831Y-2.5366
M15
G01X5.7831Y-2.513
M16
G05
G00X5.7831Y-2.711
M15
G01X5.7831Y-2.6677
M16
G05
G00X6.1232Y-2.5366
M15
G01X6.1232Y-2.513
M16
G05
G00X6.1232Y-2.711
M15
G01X6.1232Y-2.6677
M16
G05
T0
M30
