%TF.GenerationSoftware,KiCad,Pcbnew,7.0.1*%
%TF.CreationDate,2023-04-07T20:32:14+02:00*%
%TF.ProjectId,ESP32 S3 MCU Socket,45535033-3220-4533-9320-4d435520536f,rev?*%
%TF.SameCoordinates,Original*%
%TF.FileFunction,Drillmap*%
%TF.FilePolarity,Positive*%
%FSLAX45Y45*%
G04 Gerber Fmt 4.5, Leading zero omitted, Abs format (unit mm)*
G04 Created by KiCad (PCBNEW 7.0.1) date 2023-04-07 20:32:14*
%MOMM*%
%LPD*%
G01*
G04 APERTURE LIST*
%ADD10C,0.100000*%
%ADD11C,0.200000*%
%ADD12C,0.065000*%
G04 APERTURE END LIST*
D10*
X14009613Y-11657563D02*
X14009662Y-11371563D01*
X13508963Y-11659008D02*
G75*
G03*
X13552007Y-11700008I41037J-12D01*
G01*
X13968665Y-11700613D02*
G75*
G03*
X14009665Y-11657563I-5J41054D01*
G01*
X13508959Y-11659008D02*
X13510007Y-11373008D01*
X14009665Y-11371563D02*
G75*
G03*
X13966613Y-11330564I-41046J3D01*
G01*
X14089000Y-11291460D02*
G75*
G03*
X14045948Y-11250460I-41020J30D01*
G01*
X13552007Y-11757432D02*
G75*
G03*
X13552007Y-11700008I3J28712D01*
G01*
X14045948Y-11250460D02*
X13469047Y-11248692D01*
X13428047Y-11291741D02*
X13429934Y-11715975D01*
X13472983Y-11756975D02*
X13552007Y-11757435D01*
X14089613Y-11714946D02*
X14088997Y-11291460D01*
X13429928Y-11715975D02*
G75*
G03*
X13472983Y-11756975I41082J35D01*
G01*
X13968665Y-11700621D02*
G75*
G03*
X13968665Y-11758039I5J-28709D01*
G01*
X14048665Y-11757995D02*
G75*
G03*
X14089665Y-11714946I25J41025D01*
G01*
X14048665Y-11757995D02*
X13968665Y-11758039D01*
X13551007Y-11329958D02*
G75*
G03*
X13510007Y-11373008I-7J-41042D01*
G01*
X13551007Y-11329959D02*
X13966613Y-11330563D01*
X13469047Y-11248689D02*
G75*
G03*
X13428048Y-11291741I3J-41051D01*
G01*
D11*
D12*
X14799500Y-6745500D02*
X14864500Y-6810500D01*
X14864500Y-6745500D02*
X14799500Y-6810500D01*
X15377500Y-6745500D02*
X15442500Y-6810500D01*
X15442500Y-6745500D02*
X15377500Y-6810500D01*
D11*
X12274841Y-12350475D02*
X12274841Y-12150475D01*
X12274841Y-12150475D02*
X12322460Y-12150475D01*
X12322460Y-12150475D02*
X12351032Y-12159999D01*
X12351032Y-12159999D02*
X12370080Y-12179047D01*
X12370080Y-12179047D02*
X12379603Y-12198094D01*
X12379603Y-12198094D02*
X12389127Y-12236189D01*
X12389127Y-12236189D02*
X12389127Y-12264761D01*
X12389127Y-12264761D02*
X12379603Y-12302856D01*
X12379603Y-12302856D02*
X12370080Y-12321904D01*
X12370080Y-12321904D02*
X12351032Y-12340951D01*
X12351032Y-12340951D02*
X12322460Y-12350475D01*
X12322460Y-12350475D02*
X12274841Y-12350475D01*
X12474841Y-12350475D02*
X12474841Y-12217142D01*
X12474841Y-12255237D02*
X12484365Y-12236189D01*
X12484365Y-12236189D02*
X12493889Y-12226666D01*
X12493889Y-12226666D02*
X12512937Y-12217142D01*
X12512937Y-12217142D02*
X12531984Y-12217142D01*
X12598651Y-12350475D02*
X12598651Y-12217142D01*
X12598651Y-12150475D02*
X12589127Y-12159999D01*
X12589127Y-12159999D02*
X12598651Y-12169523D01*
X12598651Y-12169523D02*
X12608175Y-12159999D01*
X12608175Y-12159999D02*
X12598651Y-12150475D01*
X12598651Y-12150475D02*
X12598651Y-12169523D01*
X12722460Y-12350475D02*
X12703413Y-12340951D01*
X12703413Y-12340951D02*
X12693889Y-12321904D01*
X12693889Y-12321904D02*
X12693889Y-12150475D01*
X12827222Y-12350475D02*
X12808175Y-12340951D01*
X12808175Y-12340951D02*
X12798651Y-12321904D01*
X12798651Y-12321904D02*
X12798651Y-12150475D01*
X13055794Y-12350475D02*
X13055794Y-12150475D01*
X13055794Y-12150475D02*
X13122461Y-12293332D01*
X13122461Y-12293332D02*
X13189127Y-12150475D01*
X13189127Y-12150475D02*
X13189127Y-12350475D01*
X13370080Y-12350475D02*
X13370080Y-12245713D01*
X13370080Y-12245713D02*
X13360556Y-12226666D01*
X13360556Y-12226666D02*
X13341508Y-12217142D01*
X13341508Y-12217142D02*
X13303413Y-12217142D01*
X13303413Y-12217142D02*
X13284365Y-12226666D01*
X13370080Y-12340951D02*
X13351032Y-12350475D01*
X13351032Y-12350475D02*
X13303413Y-12350475D01*
X13303413Y-12350475D02*
X13284365Y-12340951D01*
X13284365Y-12340951D02*
X13274841Y-12321904D01*
X13274841Y-12321904D02*
X13274841Y-12302856D01*
X13274841Y-12302856D02*
X13284365Y-12283809D01*
X13284365Y-12283809D02*
X13303413Y-12274285D01*
X13303413Y-12274285D02*
X13351032Y-12274285D01*
X13351032Y-12274285D02*
X13370080Y-12264761D01*
X13465318Y-12217142D02*
X13465318Y-12417142D01*
X13465318Y-12226666D02*
X13484365Y-12217142D01*
X13484365Y-12217142D02*
X13522461Y-12217142D01*
X13522461Y-12217142D02*
X13541508Y-12226666D01*
X13541508Y-12226666D02*
X13551032Y-12236189D01*
X13551032Y-12236189D02*
X13560556Y-12255237D01*
X13560556Y-12255237D02*
X13560556Y-12312380D01*
X13560556Y-12312380D02*
X13551032Y-12331428D01*
X13551032Y-12331428D02*
X13541508Y-12340951D01*
X13541508Y-12340951D02*
X13522461Y-12350475D01*
X13522461Y-12350475D02*
X13484365Y-12350475D01*
X13484365Y-12350475D02*
X13465318Y-12340951D01*
X13646270Y-12331428D02*
X13655794Y-12340951D01*
X13655794Y-12340951D02*
X13646270Y-12350475D01*
X13646270Y-12350475D02*
X13636746Y-12340951D01*
X13636746Y-12340951D02*
X13646270Y-12331428D01*
X13646270Y-12331428D02*
X13646270Y-12350475D01*
X13646270Y-12226666D02*
X13655794Y-12236189D01*
X13655794Y-12236189D02*
X13646270Y-12245713D01*
X13646270Y-12245713D02*
X13636746Y-12236189D01*
X13636746Y-12236189D02*
X13646270Y-12226666D01*
X13646270Y-12226666D02*
X13646270Y-12245713D01*
D12*
X11962222Y-12645451D02*
X12027222Y-12710451D01*
X12027222Y-12645451D02*
X11962222Y-12710451D01*
D11*
X12312937Y-12570475D02*
X12331984Y-12570475D01*
X12331984Y-12570475D02*
X12351032Y-12579999D01*
X12351032Y-12579999D02*
X12360556Y-12589523D01*
X12360556Y-12589523D02*
X12370080Y-12608570D01*
X12370080Y-12608570D02*
X12379603Y-12646666D01*
X12379603Y-12646666D02*
X12379603Y-12694285D01*
X12379603Y-12694285D02*
X12370080Y-12732380D01*
X12370080Y-12732380D02*
X12360556Y-12751428D01*
X12360556Y-12751428D02*
X12351032Y-12760951D01*
X12351032Y-12760951D02*
X12331984Y-12770475D01*
X12331984Y-12770475D02*
X12312937Y-12770475D01*
X12312937Y-12770475D02*
X12293889Y-12760951D01*
X12293889Y-12760951D02*
X12284365Y-12751428D01*
X12284365Y-12751428D02*
X12274841Y-12732380D01*
X12274841Y-12732380D02*
X12265318Y-12694285D01*
X12265318Y-12694285D02*
X12265318Y-12646666D01*
X12265318Y-12646666D02*
X12274841Y-12608570D01*
X12274841Y-12608570D02*
X12284365Y-12589523D01*
X12284365Y-12589523D02*
X12293889Y-12579999D01*
X12293889Y-12579999D02*
X12312937Y-12570475D01*
X12465318Y-12751428D02*
X12474841Y-12760951D01*
X12474841Y-12760951D02*
X12465318Y-12770475D01*
X12465318Y-12770475D02*
X12455794Y-12760951D01*
X12455794Y-12760951D02*
X12465318Y-12751428D01*
X12465318Y-12751428D02*
X12465318Y-12770475D01*
X12646270Y-12570475D02*
X12608175Y-12570475D01*
X12608175Y-12570475D02*
X12589127Y-12579999D01*
X12589127Y-12579999D02*
X12579603Y-12589523D01*
X12579603Y-12589523D02*
X12560556Y-12618094D01*
X12560556Y-12618094D02*
X12551032Y-12656189D01*
X12551032Y-12656189D02*
X12551032Y-12732380D01*
X12551032Y-12732380D02*
X12560556Y-12751428D01*
X12560556Y-12751428D02*
X12570080Y-12760951D01*
X12570080Y-12760951D02*
X12589127Y-12770475D01*
X12589127Y-12770475D02*
X12627222Y-12770475D01*
X12627222Y-12770475D02*
X12646270Y-12760951D01*
X12646270Y-12760951D02*
X12655794Y-12751428D01*
X12655794Y-12751428D02*
X12665318Y-12732380D01*
X12665318Y-12732380D02*
X12665318Y-12684761D01*
X12665318Y-12684761D02*
X12655794Y-12665713D01*
X12655794Y-12665713D02*
X12646270Y-12656189D01*
X12646270Y-12656189D02*
X12627222Y-12646666D01*
X12627222Y-12646666D02*
X12589127Y-12646666D01*
X12589127Y-12646666D02*
X12570080Y-12656189D01*
X12570080Y-12656189D02*
X12560556Y-12665713D01*
X12560556Y-12665713D02*
X12551032Y-12684761D01*
X12846270Y-12570475D02*
X12751032Y-12570475D01*
X12751032Y-12570475D02*
X12741508Y-12665713D01*
X12741508Y-12665713D02*
X12751032Y-12656189D01*
X12751032Y-12656189D02*
X12770080Y-12646666D01*
X12770080Y-12646666D02*
X12817699Y-12646666D01*
X12817699Y-12646666D02*
X12836746Y-12656189D01*
X12836746Y-12656189D02*
X12846270Y-12665713D01*
X12846270Y-12665713D02*
X12855794Y-12684761D01*
X12855794Y-12684761D02*
X12855794Y-12732380D01*
X12855794Y-12732380D02*
X12846270Y-12751428D01*
X12846270Y-12751428D02*
X12836746Y-12760951D01*
X12836746Y-12760951D02*
X12817699Y-12770475D01*
X12817699Y-12770475D02*
X12770080Y-12770475D01*
X12770080Y-12770475D02*
X12751032Y-12760951D01*
X12751032Y-12760951D02*
X12741508Y-12751428D01*
X12979603Y-12570475D02*
X12998651Y-12570475D01*
X12998651Y-12570475D02*
X13017699Y-12579999D01*
X13017699Y-12579999D02*
X13027222Y-12589523D01*
X13027222Y-12589523D02*
X13036746Y-12608570D01*
X13036746Y-12608570D02*
X13046270Y-12646666D01*
X13046270Y-12646666D02*
X13046270Y-12694285D01*
X13046270Y-12694285D02*
X13036746Y-12732380D01*
X13036746Y-12732380D02*
X13027222Y-12751428D01*
X13027222Y-12751428D02*
X13017699Y-12760951D01*
X13017699Y-12760951D02*
X12998651Y-12770475D01*
X12998651Y-12770475D02*
X12979603Y-12770475D01*
X12979603Y-12770475D02*
X12960556Y-12760951D01*
X12960556Y-12760951D02*
X12951032Y-12751428D01*
X12951032Y-12751428D02*
X12941508Y-12732380D01*
X12941508Y-12732380D02*
X12931984Y-12694285D01*
X12931984Y-12694285D02*
X12931984Y-12646666D01*
X12931984Y-12646666D02*
X12941508Y-12608570D01*
X12941508Y-12608570D02*
X12951032Y-12589523D01*
X12951032Y-12589523D02*
X12960556Y-12579999D01*
X12960556Y-12579999D02*
X12979603Y-12570475D01*
X13131984Y-12770475D02*
X13131984Y-12637142D01*
X13131984Y-12656189D02*
X13141508Y-12646666D01*
X13141508Y-12646666D02*
X13160556Y-12637142D01*
X13160556Y-12637142D02*
X13189127Y-12637142D01*
X13189127Y-12637142D02*
X13208175Y-12646666D01*
X13208175Y-12646666D02*
X13217699Y-12665713D01*
X13217699Y-12665713D02*
X13217699Y-12770475D01*
X13217699Y-12665713D02*
X13227222Y-12646666D01*
X13227222Y-12646666D02*
X13246270Y-12637142D01*
X13246270Y-12637142D02*
X13274841Y-12637142D01*
X13274841Y-12637142D02*
X13293889Y-12646666D01*
X13293889Y-12646666D02*
X13303413Y-12665713D01*
X13303413Y-12665713D02*
X13303413Y-12770475D01*
X13398651Y-12770475D02*
X13398651Y-12637142D01*
X13398651Y-12656189D02*
X13408175Y-12646666D01*
X13408175Y-12646666D02*
X13427222Y-12637142D01*
X13427222Y-12637142D02*
X13455794Y-12637142D01*
X13455794Y-12637142D02*
X13474842Y-12646666D01*
X13474842Y-12646666D02*
X13484365Y-12665713D01*
X13484365Y-12665713D02*
X13484365Y-12770475D01*
X13484365Y-12665713D02*
X13493889Y-12646666D01*
X13493889Y-12646666D02*
X13512937Y-12637142D01*
X13512937Y-12637142D02*
X13541508Y-12637142D01*
X13541508Y-12637142D02*
X13560556Y-12646666D01*
X13560556Y-12646666D02*
X13570080Y-12665713D01*
X13570080Y-12665713D02*
X13570080Y-12770475D01*
X13960556Y-12560951D02*
X13789127Y-12818094D01*
X14217699Y-12570475D02*
X14236746Y-12570475D01*
X14236746Y-12570475D02*
X14255794Y-12579999D01*
X14255794Y-12579999D02*
X14265318Y-12589523D01*
X14265318Y-12589523D02*
X14274842Y-12608570D01*
X14274842Y-12608570D02*
X14284365Y-12646666D01*
X14284365Y-12646666D02*
X14284365Y-12694285D01*
X14284365Y-12694285D02*
X14274842Y-12732380D01*
X14274842Y-12732380D02*
X14265318Y-12751428D01*
X14265318Y-12751428D02*
X14255794Y-12760951D01*
X14255794Y-12760951D02*
X14236746Y-12770475D01*
X14236746Y-12770475D02*
X14217699Y-12770475D01*
X14217699Y-12770475D02*
X14198651Y-12760951D01*
X14198651Y-12760951D02*
X14189127Y-12751428D01*
X14189127Y-12751428D02*
X14179604Y-12732380D01*
X14179604Y-12732380D02*
X14170080Y-12694285D01*
X14170080Y-12694285D02*
X14170080Y-12646666D01*
X14170080Y-12646666D02*
X14179604Y-12608570D01*
X14179604Y-12608570D02*
X14189127Y-12589523D01*
X14189127Y-12589523D02*
X14198651Y-12579999D01*
X14198651Y-12579999D02*
X14217699Y-12570475D01*
X14370080Y-12751428D02*
X14379604Y-12760951D01*
X14379604Y-12760951D02*
X14370080Y-12770475D01*
X14370080Y-12770475D02*
X14360556Y-12760951D01*
X14360556Y-12760951D02*
X14370080Y-12751428D01*
X14370080Y-12751428D02*
X14370080Y-12770475D01*
X14503413Y-12570475D02*
X14522461Y-12570475D01*
X14522461Y-12570475D02*
X14541508Y-12579999D01*
X14541508Y-12579999D02*
X14551032Y-12589523D01*
X14551032Y-12589523D02*
X14560556Y-12608570D01*
X14560556Y-12608570D02*
X14570080Y-12646666D01*
X14570080Y-12646666D02*
X14570080Y-12694285D01*
X14570080Y-12694285D02*
X14560556Y-12732380D01*
X14560556Y-12732380D02*
X14551032Y-12751428D01*
X14551032Y-12751428D02*
X14541508Y-12760951D01*
X14541508Y-12760951D02*
X14522461Y-12770475D01*
X14522461Y-12770475D02*
X14503413Y-12770475D01*
X14503413Y-12770475D02*
X14484365Y-12760951D01*
X14484365Y-12760951D02*
X14474842Y-12751428D01*
X14474842Y-12751428D02*
X14465318Y-12732380D01*
X14465318Y-12732380D02*
X14455794Y-12694285D01*
X14455794Y-12694285D02*
X14455794Y-12646666D01*
X14455794Y-12646666D02*
X14465318Y-12608570D01*
X14465318Y-12608570D02*
X14474842Y-12589523D01*
X14474842Y-12589523D02*
X14484365Y-12579999D01*
X14484365Y-12579999D02*
X14503413Y-12570475D01*
X14646270Y-12589523D02*
X14655794Y-12579999D01*
X14655794Y-12579999D02*
X14674842Y-12570475D01*
X14674842Y-12570475D02*
X14722461Y-12570475D01*
X14722461Y-12570475D02*
X14741508Y-12579999D01*
X14741508Y-12579999D02*
X14751032Y-12589523D01*
X14751032Y-12589523D02*
X14760556Y-12608570D01*
X14760556Y-12608570D02*
X14760556Y-12627618D01*
X14760556Y-12627618D02*
X14751032Y-12656189D01*
X14751032Y-12656189D02*
X14636746Y-12770475D01*
X14636746Y-12770475D02*
X14760556Y-12770475D01*
X14941508Y-12570475D02*
X14846270Y-12570475D01*
X14846270Y-12570475D02*
X14836746Y-12665713D01*
X14836746Y-12665713D02*
X14846270Y-12656189D01*
X14846270Y-12656189D02*
X14865318Y-12646666D01*
X14865318Y-12646666D02*
X14912937Y-12646666D01*
X14912937Y-12646666D02*
X14931985Y-12656189D01*
X14931985Y-12656189D02*
X14941508Y-12665713D01*
X14941508Y-12665713D02*
X14951032Y-12684761D01*
X14951032Y-12684761D02*
X14951032Y-12732380D01*
X14951032Y-12732380D02*
X14941508Y-12751428D01*
X14941508Y-12751428D02*
X14931985Y-12760951D01*
X14931985Y-12760951D02*
X14912937Y-12770475D01*
X14912937Y-12770475D02*
X14865318Y-12770475D01*
X14865318Y-12770475D02*
X14846270Y-12760951D01*
X14846270Y-12760951D02*
X14836746Y-12751428D01*
X15122461Y-12570475D02*
X15084365Y-12570475D01*
X15084365Y-12570475D02*
X15065318Y-12579999D01*
X15065318Y-12579999D02*
X15055794Y-12589523D01*
X15055794Y-12589523D02*
X15036746Y-12618094D01*
X15036746Y-12618094D02*
X15027223Y-12656189D01*
X15027223Y-12656189D02*
X15027223Y-12732380D01*
X15027223Y-12732380D02*
X15036746Y-12751428D01*
X15036746Y-12751428D02*
X15046270Y-12760951D01*
X15046270Y-12760951D02*
X15065318Y-12770475D01*
X15065318Y-12770475D02*
X15103413Y-12770475D01*
X15103413Y-12770475D02*
X15122461Y-12760951D01*
X15122461Y-12760951D02*
X15131985Y-12751428D01*
X15131985Y-12751428D02*
X15141508Y-12732380D01*
X15141508Y-12732380D02*
X15141508Y-12684761D01*
X15141508Y-12684761D02*
X15131985Y-12665713D01*
X15131985Y-12665713D02*
X15122461Y-12656189D01*
X15122461Y-12656189D02*
X15103413Y-12646666D01*
X15103413Y-12646666D02*
X15065318Y-12646666D01*
X15065318Y-12646666D02*
X15046270Y-12656189D01*
X15046270Y-12656189D02*
X15036746Y-12665713D01*
X15036746Y-12665713D02*
X15027223Y-12684761D01*
X15217699Y-12570475D02*
X15217699Y-12608570D01*
X15293889Y-12570475D02*
X15293889Y-12608570D01*
X15589128Y-12846666D02*
X15579604Y-12837142D01*
X15579604Y-12837142D02*
X15560556Y-12808570D01*
X15560556Y-12808570D02*
X15551032Y-12789523D01*
X15551032Y-12789523D02*
X15541508Y-12760951D01*
X15541508Y-12760951D02*
X15531985Y-12713332D01*
X15531985Y-12713332D02*
X15531985Y-12675237D01*
X15531985Y-12675237D02*
X15541508Y-12627618D01*
X15541508Y-12627618D02*
X15551032Y-12599047D01*
X15551032Y-12599047D02*
X15560556Y-12579999D01*
X15560556Y-12579999D02*
X15579604Y-12551428D01*
X15579604Y-12551428D02*
X15589128Y-12541904D01*
X15655794Y-12589523D02*
X15665318Y-12579999D01*
X15665318Y-12579999D02*
X15684366Y-12570475D01*
X15684366Y-12570475D02*
X15731985Y-12570475D01*
X15731985Y-12570475D02*
X15751032Y-12579999D01*
X15751032Y-12579999D02*
X15760556Y-12589523D01*
X15760556Y-12589523D02*
X15770080Y-12608570D01*
X15770080Y-12608570D02*
X15770080Y-12627618D01*
X15770080Y-12627618D02*
X15760556Y-12656189D01*
X15760556Y-12656189D02*
X15646270Y-12770475D01*
X15646270Y-12770475D02*
X15770080Y-12770475D01*
X16008175Y-12770475D02*
X16008175Y-12570475D01*
X16093889Y-12770475D02*
X16093889Y-12665713D01*
X16093889Y-12665713D02*
X16084366Y-12646666D01*
X16084366Y-12646666D02*
X16065318Y-12637142D01*
X16065318Y-12637142D02*
X16036747Y-12637142D01*
X16036747Y-12637142D02*
X16017699Y-12646666D01*
X16017699Y-12646666D02*
X16008175Y-12656189D01*
X16217699Y-12770475D02*
X16198651Y-12760951D01*
X16198651Y-12760951D02*
X16189128Y-12751428D01*
X16189128Y-12751428D02*
X16179604Y-12732380D01*
X16179604Y-12732380D02*
X16179604Y-12675237D01*
X16179604Y-12675237D02*
X16189128Y-12656189D01*
X16189128Y-12656189D02*
X16198651Y-12646666D01*
X16198651Y-12646666D02*
X16217699Y-12637142D01*
X16217699Y-12637142D02*
X16246270Y-12637142D01*
X16246270Y-12637142D02*
X16265318Y-12646666D01*
X16265318Y-12646666D02*
X16274842Y-12656189D01*
X16274842Y-12656189D02*
X16284366Y-12675237D01*
X16284366Y-12675237D02*
X16284366Y-12732380D01*
X16284366Y-12732380D02*
X16274842Y-12751428D01*
X16274842Y-12751428D02*
X16265318Y-12760951D01*
X16265318Y-12760951D02*
X16246270Y-12770475D01*
X16246270Y-12770475D02*
X16217699Y-12770475D01*
X16398651Y-12770475D02*
X16379604Y-12760951D01*
X16379604Y-12760951D02*
X16370080Y-12741904D01*
X16370080Y-12741904D02*
X16370080Y-12570475D01*
X16551032Y-12760951D02*
X16531985Y-12770475D01*
X16531985Y-12770475D02*
X16493889Y-12770475D01*
X16493889Y-12770475D02*
X16474842Y-12760951D01*
X16474842Y-12760951D02*
X16465318Y-12741904D01*
X16465318Y-12741904D02*
X16465318Y-12665713D01*
X16465318Y-12665713D02*
X16474842Y-12646666D01*
X16474842Y-12646666D02*
X16493889Y-12637142D01*
X16493889Y-12637142D02*
X16531985Y-12637142D01*
X16531985Y-12637142D02*
X16551032Y-12646666D01*
X16551032Y-12646666D02*
X16560556Y-12665713D01*
X16560556Y-12665713D02*
X16560556Y-12684761D01*
X16560556Y-12684761D02*
X16465318Y-12703809D01*
X16636747Y-12760951D02*
X16655794Y-12770475D01*
X16655794Y-12770475D02*
X16693889Y-12770475D01*
X16693889Y-12770475D02*
X16712937Y-12760951D01*
X16712937Y-12760951D02*
X16722461Y-12741904D01*
X16722461Y-12741904D02*
X16722461Y-12732380D01*
X16722461Y-12732380D02*
X16712937Y-12713332D01*
X16712937Y-12713332D02*
X16693889Y-12703809D01*
X16693889Y-12703809D02*
X16665318Y-12703809D01*
X16665318Y-12703809D02*
X16646270Y-12694285D01*
X16646270Y-12694285D02*
X16636747Y-12675237D01*
X16636747Y-12675237D02*
X16636747Y-12665713D01*
X16636747Y-12665713D02*
X16646270Y-12646666D01*
X16646270Y-12646666D02*
X16665318Y-12637142D01*
X16665318Y-12637142D02*
X16693889Y-12637142D01*
X16693889Y-12637142D02*
X16712937Y-12646666D01*
X16789128Y-12846666D02*
X16798652Y-12837142D01*
X16798652Y-12837142D02*
X16817699Y-12808570D01*
X16817699Y-12808570D02*
X16827223Y-12789523D01*
X16827223Y-12789523D02*
X16836747Y-12760951D01*
X16836747Y-12760951D02*
X16846271Y-12713332D01*
X16846271Y-12713332D02*
X16846271Y-12675237D01*
X16846271Y-12675237D02*
X16836747Y-12627618D01*
X16836747Y-12627618D02*
X16827223Y-12599047D01*
X16827223Y-12599047D02*
X16817699Y-12579999D01*
X16817699Y-12579999D02*
X16798652Y-12551428D01*
X16798652Y-12551428D02*
X16789128Y-12541904D01*
X17151033Y-12846666D02*
X17141509Y-12837142D01*
X17141509Y-12837142D02*
X17122461Y-12808570D01*
X17122461Y-12808570D02*
X17112937Y-12789523D01*
X17112937Y-12789523D02*
X17103413Y-12760951D01*
X17103413Y-12760951D02*
X17093890Y-12713332D01*
X17093890Y-12713332D02*
X17093890Y-12675237D01*
X17093890Y-12675237D02*
X17103413Y-12627618D01*
X17103413Y-12627618D02*
X17112937Y-12599047D01*
X17112937Y-12599047D02*
X17122461Y-12579999D01*
X17122461Y-12579999D02*
X17141509Y-12551428D01*
X17141509Y-12551428D02*
X17151033Y-12541904D01*
X17227223Y-12637142D02*
X17227223Y-12770475D01*
X17227223Y-12656189D02*
X17236747Y-12646666D01*
X17236747Y-12646666D02*
X17255794Y-12637142D01*
X17255794Y-12637142D02*
X17284366Y-12637142D01*
X17284366Y-12637142D02*
X17303413Y-12646666D01*
X17303413Y-12646666D02*
X17312937Y-12665713D01*
X17312937Y-12665713D02*
X17312937Y-12770475D01*
X17436747Y-12770475D02*
X17417699Y-12760951D01*
X17417699Y-12760951D02*
X17408175Y-12751428D01*
X17408175Y-12751428D02*
X17398652Y-12732380D01*
X17398652Y-12732380D02*
X17398652Y-12675237D01*
X17398652Y-12675237D02*
X17408175Y-12656189D01*
X17408175Y-12656189D02*
X17417699Y-12646666D01*
X17417699Y-12646666D02*
X17436747Y-12637142D01*
X17436747Y-12637142D02*
X17465318Y-12637142D01*
X17465318Y-12637142D02*
X17484366Y-12646666D01*
X17484366Y-12646666D02*
X17493890Y-12656189D01*
X17493890Y-12656189D02*
X17503413Y-12675237D01*
X17503413Y-12675237D02*
X17503413Y-12732380D01*
X17503413Y-12732380D02*
X17493890Y-12751428D01*
X17493890Y-12751428D02*
X17484366Y-12760951D01*
X17484366Y-12760951D02*
X17465318Y-12770475D01*
X17465318Y-12770475D02*
X17436747Y-12770475D01*
X17560556Y-12637142D02*
X17636747Y-12637142D01*
X17589128Y-12570475D02*
X17589128Y-12741904D01*
X17589128Y-12741904D02*
X17598652Y-12760951D01*
X17598652Y-12760951D02*
X17617699Y-12770475D01*
X17617699Y-12770475D02*
X17636747Y-12770475D01*
X17855794Y-12637142D02*
X17855794Y-12837142D01*
X17855794Y-12646666D02*
X17874842Y-12637142D01*
X17874842Y-12637142D02*
X17912937Y-12637142D01*
X17912937Y-12637142D02*
X17931985Y-12646666D01*
X17931985Y-12646666D02*
X17941509Y-12656189D01*
X17941509Y-12656189D02*
X17951033Y-12675237D01*
X17951033Y-12675237D02*
X17951033Y-12732380D01*
X17951033Y-12732380D02*
X17941509Y-12751428D01*
X17941509Y-12751428D02*
X17931985Y-12760951D01*
X17931985Y-12760951D02*
X17912937Y-12770475D01*
X17912937Y-12770475D02*
X17874842Y-12770475D01*
X17874842Y-12770475D02*
X17855794Y-12760951D01*
X18065318Y-12770475D02*
X18046271Y-12760951D01*
X18046271Y-12760951D02*
X18036747Y-12741904D01*
X18036747Y-12741904D02*
X18036747Y-12570475D01*
X18227223Y-12770475D02*
X18227223Y-12665713D01*
X18227223Y-12665713D02*
X18217699Y-12646666D01*
X18217699Y-12646666D02*
X18198652Y-12637142D01*
X18198652Y-12637142D02*
X18160556Y-12637142D01*
X18160556Y-12637142D02*
X18141509Y-12646666D01*
X18227223Y-12760951D02*
X18208175Y-12770475D01*
X18208175Y-12770475D02*
X18160556Y-12770475D01*
X18160556Y-12770475D02*
X18141509Y-12760951D01*
X18141509Y-12760951D02*
X18131985Y-12741904D01*
X18131985Y-12741904D02*
X18131985Y-12722856D01*
X18131985Y-12722856D02*
X18141509Y-12703809D01*
X18141509Y-12703809D02*
X18160556Y-12694285D01*
X18160556Y-12694285D02*
X18208175Y-12694285D01*
X18208175Y-12694285D02*
X18227223Y-12684761D01*
X18293890Y-12637142D02*
X18370080Y-12637142D01*
X18322461Y-12570475D02*
X18322461Y-12741904D01*
X18322461Y-12741904D02*
X18331985Y-12760951D01*
X18331985Y-12760951D02*
X18351033Y-12770475D01*
X18351033Y-12770475D02*
X18370080Y-12770475D01*
X18512937Y-12760951D02*
X18493890Y-12770475D01*
X18493890Y-12770475D02*
X18455794Y-12770475D01*
X18455794Y-12770475D02*
X18436747Y-12760951D01*
X18436747Y-12760951D02*
X18427223Y-12741904D01*
X18427223Y-12741904D02*
X18427223Y-12665713D01*
X18427223Y-12665713D02*
X18436747Y-12646666D01*
X18436747Y-12646666D02*
X18455794Y-12637142D01*
X18455794Y-12637142D02*
X18493890Y-12637142D01*
X18493890Y-12637142D02*
X18512937Y-12646666D01*
X18512937Y-12646666D02*
X18522461Y-12665713D01*
X18522461Y-12665713D02*
X18522461Y-12684761D01*
X18522461Y-12684761D02*
X18427223Y-12703809D01*
X18693890Y-12770475D02*
X18693890Y-12570475D01*
X18693890Y-12760951D02*
X18674842Y-12770475D01*
X18674842Y-12770475D02*
X18636747Y-12770475D01*
X18636747Y-12770475D02*
X18617699Y-12760951D01*
X18617699Y-12760951D02*
X18608175Y-12751428D01*
X18608175Y-12751428D02*
X18598652Y-12732380D01*
X18598652Y-12732380D02*
X18598652Y-12675237D01*
X18598652Y-12675237D02*
X18608175Y-12656189D01*
X18608175Y-12656189D02*
X18617699Y-12646666D01*
X18617699Y-12646666D02*
X18636747Y-12637142D01*
X18636747Y-12637142D02*
X18674842Y-12637142D01*
X18674842Y-12637142D02*
X18693890Y-12646666D01*
X18770080Y-12846666D02*
X18779604Y-12837142D01*
X18779604Y-12837142D02*
X18798652Y-12808570D01*
X18798652Y-12808570D02*
X18808175Y-12789523D01*
X18808175Y-12789523D02*
X18817699Y-12760951D01*
X18817699Y-12760951D02*
X18827223Y-12713332D01*
X18827223Y-12713332D02*
X18827223Y-12675237D01*
X18827223Y-12675237D02*
X18817699Y-12627618D01*
X18817699Y-12627618D02*
X18808175Y-12599047D01*
X18808175Y-12599047D02*
X18798652Y-12579999D01*
X18798652Y-12579999D02*
X18779604Y-12551428D01*
X18779604Y-12551428D02*
X18770080Y-12541904D01*
M02*
