%TF.GenerationSoftware,KiCad,Pcbnew,7.0.1*%
%TF.CreationDate,2023-04-07T20:32:22+02:00*%
%TF.ProjectId,ESP32 S3 MCU Socket,45535033-3220-4533-9320-4d435520536f,rev?*%
%TF.SameCoordinates,Original*%
%TF.FileFunction,Copper,L1,Top*%
%TF.FilePolarity,Positive*%
%FSLAX46Y46*%
G04 Gerber Fmt 4.6, Leading zero omitted, Abs format (unit mm)*
G04 Created by KiCad (PCBNEW 7.0.1) date 2023-04-07 20:32:22*
%MOMM*%
%LPD*%
G01*
G04 APERTURE LIST*
G04 Aperture macros list*
%AMRoundRect*
0 Rectangle with rounded corners*
0 $1 Rounding radius*
0 $2 $3 $4 $5 $6 $7 $8 $9 X,Y pos of 4 corners*
0 Add a 4 corners polygon primitive as box body*
4,1,4,$2,$3,$4,$5,$6,$7,$8,$9,$2,$3,0*
0 Add four circle primitives for the rounded corners*
1,1,$1+$1,$2,$3*
1,1,$1+$1,$4,$5*
1,1,$1+$1,$6,$7*
1,1,$1+$1,$8,$9*
0 Add four rect primitives between the rounded corners*
20,1,$1+$1,$2,$3,$4,$5,0*
20,1,$1+$1,$4,$5,$6,$7,0*
20,1,$1+$1,$6,$7,$8,$9,0*
20,1,$1+$1,$8,$9,$2,$3,0*%
G04 Aperture macros list end*
%TA.AperFunction,SMDPad,CuDef*%
%ADD10RoundRect,0.200000X-0.275000X0.200000X-0.275000X-0.200000X0.275000X-0.200000X0.275000X0.200000X0*%
%TD*%
%TA.AperFunction,ComponentPad*%
%ADD11C,3.800000*%
%TD*%
%TA.AperFunction,SMDPad,CuDef*%
%ADD12RoundRect,0.200000X-0.200000X-0.275000X0.200000X-0.275000X0.200000X0.275000X-0.200000X0.275000X0*%
%TD*%
%TA.AperFunction,SMDPad,CuDef*%
%ADD13RoundRect,0.200000X0.200000X0.275000X-0.200000X0.275000X-0.200000X-0.275000X0.200000X-0.275000X0*%
%TD*%
%TA.AperFunction,SMDPad,CuDef*%
%ADD14RoundRect,0.225000X0.250000X-0.225000X0.250000X0.225000X-0.250000X0.225000X-0.250000X-0.225000X0*%
%TD*%
%TA.AperFunction,SMDPad,CuDef*%
%ADD15RoundRect,0.225000X-0.250000X0.225000X-0.250000X-0.225000X0.250000X-0.225000X0.250000X0.225000X0*%
%TD*%
%TA.AperFunction,SMDPad,CuDef*%
%ADD16RoundRect,0.066000X0.404000X0.154000X-0.404000X0.154000X-0.404000X-0.154000X0.404000X-0.154000X0*%
%TD*%
%TA.AperFunction,SMDPad,CuDef*%
%ADD17R,3.400000X4.300000*%
%TD*%
%TA.AperFunction,SMDPad,CuDef*%
%ADD18RoundRect,0.225000X0.225000X0.250000X-0.225000X0.250000X-0.225000X-0.250000X0.225000X-0.250000X0*%
%TD*%
%TA.AperFunction,SMDPad,CuDef*%
%ADD19RoundRect,0.250000X-0.350000X-0.450000X0.350000X-0.450000X0.350000X0.450000X-0.350000X0.450000X0*%
%TD*%
%TA.AperFunction,SMDPad,CuDef*%
%ADD20RoundRect,0.250000X1.075000X-0.375000X1.075000X0.375000X-1.075000X0.375000X-1.075000X-0.375000X0*%
%TD*%
%TA.AperFunction,SMDPad,CuDef*%
%ADD21C,1.000000*%
%TD*%
%TA.AperFunction,SMDPad,CuDef*%
%ADD22RoundRect,0.062500X-0.062500X0.350000X-0.062500X-0.350000X0.062500X-0.350000X0.062500X0.350000X0*%
%TD*%
%TA.AperFunction,SMDPad,CuDef*%
%ADD23RoundRect,0.062500X-0.350000X0.062500X-0.350000X-0.062500X0.350000X-0.062500X0.350000X0.062500X0*%
%TD*%
%TA.AperFunction,SMDPad,CuDef*%
%ADD24R,2.600000X2.600000*%
%TD*%
%TA.AperFunction,SMDPad,CuDef*%
%ADD25R,1.200000X1.400000*%
%TD*%
%TA.AperFunction,SMDPad,CuDef*%
%ADD26RoundRect,0.218750X-0.218750X-0.381250X0.218750X-0.381250X0.218750X0.381250X-0.218750X0.381250X0*%
%TD*%
%TA.AperFunction,SMDPad,CuDef*%
%ADD27RoundRect,0.200000X0.275000X-0.200000X0.275000X0.200000X-0.275000X0.200000X-0.275000X-0.200000X0*%
%TD*%
%TA.AperFunction,SMDPad,CuDef*%
%ADD28RoundRect,0.150000X0.150000X-0.825000X0.150000X0.825000X-0.150000X0.825000X-0.150000X-0.825000X0*%
%TD*%
%TA.AperFunction,SMDPad,CuDef*%
%ADD29RoundRect,0.250000X0.250000X0.475000X-0.250000X0.475000X-0.250000X-0.475000X0.250000X-0.475000X0*%
%TD*%
%TA.AperFunction,SMDPad,CuDef*%
%ADD30RoundRect,0.225000X-0.225000X-0.250000X0.225000X-0.250000X0.225000X0.250000X-0.225000X0.250000X0*%
%TD*%
%TA.AperFunction,SMDPad,CuDef*%
%ADD31RoundRect,0.250000X-0.250000X-0.475000X0.250000X-0.475000X0.250000X0.475000X-0.250000X0.475000X0*%
%TD*%
%TA.AperFunction,SMDPad,CuDef*%
%ADD32R,0.330000X0.580000*%
%TD*%
%TA.AperFunction,SMDPad,CuDef*%
%ADD33R,0.580000X0.330000*%
%TD*%
%TA.AperFunction,SMDPad,CuDef*%
%ADD34RoundRect,0.150000X-0.150000X0.587500X-0.150000X-0.587500X0.150000X-0.587500X0.150000X0.587500X0*%
%TD*%
%TA.AperFunction,SMDPad,CuDef*%
%ADD35R,1.400000X1.200000*%
%TD*%
%TA.AperFunction,SMDPad,CuDef*%
%ADD36R,0.420000X0.840000*%
%TD*%
%TA.AperFunction,SMDPad,CuDef*%
%ADD37R,2.500000X1.600000*%
%TD*%
%TA.AperFunction,SMDPad,CuDef*%
%ADD38RoundRect,0.250000X0.475000X-0.337500X0.475000X0.337500X-0.475000X0.337500X-0.475000X-0.337500X0*%
%TD*%
%TA.AperFunction,SMDPad,CuDef*%
%ADD39RoundRect,0.218750X0.218750X0.381250X-0.218750X0.381250X-0.218750X-0.381250X0.218750X-0.381250X0*%
%TD*%
%TA.AperFunction,SMDPad,CuDef*%
%ADD40R,0.300000X1.450000*%
%TD*%
%TA.AperFunction,SMDPad,CuDef*%
%ADD41R,0.600000X1.450000*%
%TD*%
%TA.AperFunction,ComponentPad*%
%ADD42O,1.000000X2.100000*%
%TD*%
%TA.AperFunction,ComponentPad*%
%ADD43O,1.000000X1.600000*%
%TD*%
%TA.AperFunction,SMDPad,CuDef*%
%ADD44RoundRect,0.250001X0.462499X0.624999X-0.462499X0.624999X-0.462499X-0.624999X0.462499X-0.624999X0*%
%TD*%
%TA.AperFunction,SMDPad,CuDef*%
%ADD45RoundRect,0.250000X0.337500X0.475000X-0.337500X0.475000X-0.337500X-0.475000X0.337500X-0.475000X0*%
%TD*%
%TA.AperFunction,ComponentPad*%
%ADD46C,0.800000*%
%TD*%
%TA.AperFunction,ViaPad*%
%ADD47C,0.800000*%
%TD*%
%TA.AperFunction,ViaPad*%
%ADD48C,0.600000*%
%TD*%
%TA.AperFunction,ViaPad*%
%ADD49C,0.700000*%
%TD*%
%TA.AperFunction,Conductor*%
%ADD50C,0.150000*%
%TD*%
%TA.AperFunction,Conductor*%
%ADD51C,0.300000*%
%TD*%
%TA.AperFunction,Conductor*%
%ADD52C,0.400000*%
%TD*%
%TA.AperFunction,Conductor*%
%ADD53C,0.320000*%
%TD*%
%TA.AperFunction,Conductor*%
%ADD54C,0.250000*%
%TD*%
%TA.AperFunction,Conductor*%
%ADD55C,0.200000*%
%TD*%
%TA.AperFunction,Conductor*%
%ADD56C,0.510000*%
%TD*%
%TA.AperFunction,Conductor*%
%ADD57C,1.000000*%
%TD*%
G04 APERTURE END LIST*
D10*
%TO.P,CH-RX-R1,1*%
%TO.N,RXD0*%
X144480000Y-80055000D03*
%TO.P,CH-RX-R1,2*%
%TO.N,Net-(CH-RX-LED1-K)*%
X144480000Y-81705000D03*
%TD*%
D11*
%TO.P,REF\u002A\u002A,1*%
%TO.N,N/C*%
X174030000Y-66080000D03*
%TD*%
D12*
%TO.P,USB_PLUG_R1,1*%
%TO.N,Net-(J1-CC1)*%
X141945000Y-64170000D03*
%TO.P,USB_PLUG_R1,2*%
%TO.N,GND*%
X143595000Y-64170000D03*
%TD*%
D13*
%TO.P,CH-D+-R1,1*%
%TO.N,USB_D+*%
X140675000Y-68780000D03*
%TO.P,CH-D+-R1,2*%
%TO.N,Net-(U1-D+)*%
X139025000Y-68780000D03*
%TD*%
D14*
%TO.P,E-Y1-C2,1*%
%TO.N,Net-(ESP32S1-GPIO15{slash}ADC2_CH4{slash}XTAL_32K_P)*%
X147700000Y-87260000D03*
%TO.P,E-Y1-C2,2*%
%TO.N,GND*%
X147700000Y-85710000D03*
%TD*%
D12*
%TO.P,E-BOOT-DTR-R1,1*%
%TO.N,3V3*%
X134585000Y-105880000D03*
%TO.P,E-BOOT-DTR-R1,2*%
%TO.N,ESP_GPIO0_BOOT-DTR*%
X136235000Y-105880000D03*
%TD*%
D15*
%TO.P,E-LNA-C2,1*%
%TO.N,Net-(ESP32S1-LNA_IN{slash}RF)*%
X124680000Y-104295000D03*
%TO.P,E-LNA-C2,2*%
%TO.N,GND*%
X124680000Y-105845000D03*
%TD*%
D16*
%TO.P,ESP_FLASH3,1,~{CS}*%
%TO.N,SPICS0*%
X162565000Y-90335000D03*
%TO.P,ESP_FLASH3,2,DO(IO1)*%
%TO.N,SPIQ*%
X162565000Y-89065000D03*
%TO.P,ESP_FLASH3,3,IO2*%
%TO.N,SPIWP*%
X162565000Y-87795000D03*
%TO.P,ESP_FLASH3,4,GND*%
%TO.N,GND_FLASH*%
X162565000Y-86525000D03*
%TO.P,ESP_FLASH3,5,DI(IO0)*%
%TO.N,SPID*%
X154775000Y-86525000D03*
%TO.P,ESP_FLASH3,6,CLK*%
%TO.N,SPICLK*%
X154775000Y-87795000D03*
%TO.P,ESP_FLASH3,7,IO3*%
%TO.N,SPIHD*%
X154775000Y-89065000D03*
%TO.P,ESP_FLASH3,8,VCC*%
%TO.N,VDD_SPI*%
X154775000Y-90335000D03*
D17*
%TO.P,ESP_FLASH3,9,GND*%
%TO.N,GND_FLASH*%
X158670000Y-88430000D03*
%TD*%
D18*
%TO.P,E-VDD3-CPU-C1,1*%
%TO.N,3V3*%
X132635000Y-105450000D03*
%TO.P,E-VDD3-CPU-C1,2*%
%TO.N,GND*%
X131085000Y-105450000D03*
%TD*%
%TO.P,E-Y2-C1,1*%
%TO.N,Net-(ESP32S1-XTAL_N)*%
X148605000Y-105130000D03*
%TO.P,E-Y2-C1,2*%
%TO.N,GND*%
X147055000Y-105130000D03*
%TD*%
D11*
%TO.P,REF\u002A\u002A,1*%
%TO.N,N/C*%
X125440000Y-116470000D03*
%TD*%
D19*
%TO.P,AUR_R1,1*%
%TO.N,Net-(AUR1-FB)*%
X166080000Y-63237500D03*
%TO.P,AUR_R1,2*%
%TO.N,GND*%
X168080000Y-63237500D03*
%TD*%
D14*
%TO.P,E-Y1-C1,1*%
%TO.N,Net-(ESP32S1-GPIO16{slash}ADC2_CH5{slash}XTAL_32K_N)*%
X139850000Y-87820000D03*
%TO.P,E-Y1-C1,2*%
%TO.N,GND*%
X139850000Y-86270000D03*
%TD*%
D20*
%TO.P,AUR_l1,1,1*%
%TO.N,3V3*%
X159880000Y-68840000D03*
%TO.P,AUR_l1,2,2*%
%TO.N,Net-(AUR1-SW)*%
X159880000Y-66040000D03*
%TD*%
D21*
%TO.P,TP2,1,1*%
%TO.N,GND*%
X170890000Y-63210000D03*
%TD*%
D13*
%TO.P,RGB_LED_R1,1*%
%TO.N,LED_R_IO04*%
X135515000Y-109590000D03*
%TO.P,RGB_LED_R1,2*%
%TO.N,Net-(LED1-RA)*%
X133865000Y-109590000D03*
%TD*%
D22*
%TO.P,U1,1,~{RI}*%
%TO.N,unconnected-(U1-~{RI}-Pad1)*%
X138720000Y-71735000D03*
%TO.P,U1,2,GND*%
%TO.N,GND*%
X138220000Y-71735000D03*
%TO.P,U1,3,D+*%
%TO.N,Net-(U1-D+)*%
X137720000Y-71735000D03*
%TO.P,U1,4,D-*%
%TO.N,Net-(U1-D-)*%
X137220000Y-71735000D03*
%TO.P,U1,5,VIO*%
%TO.N,3V3*%
X136720000Y-71735000D03*
%TO.P,U1,6,V3*%
%TO.N,Net-(U1-V3)*%
X136220000Y-71735000D03*
D23*
%TO.P,U1,7,VDD5*%
%TO.N,VIN*%
X135532500Y-72422500D03*
%TO.P,U1,8,VBUS*%
X135532500Y-72922500D03*
%TO.P,U1,9,~{RST}*%
%TO.N,unconnected-(U1-~{RST}-Pad9)*%
X135532500Y-73422500D03*
%TO.P,U1,10,~{ACT}*%
%TO.N,unconnected-(U1-~{ACT}-Pad10)*%
X135532500Y-73922500D03*
%TO.P,U1,11,~{WAKEUP}/GPIO3*%
%TO.N,unconnected-(U1-~{WAKEUP}{slash}GPIO3-Pad11)*%
X135532500Y-74422500D03*
%TO.P,U1,12,TNOW/GPIO2*%
%TO.N,unconnected-(U1-TNOW{slash}GPIO2-Pad12)*%
X135532500Y-74922500D03*
D22*
%TO.P,U1,13,RXS/GPIO1*%
%TO.N,unconnected-(U1-RXS{slash}GPIO1-Pad13)*%
X136220000Y-75610000D03*
%TO.P,U1,14,TXS/GPIO0*%
%TO.N,unconnected-(U1-TXS{slash}GPIO0-Pad14)*%
X136720000Y-75610000D03*
%TO.P,U1,15,~{SUSPEND}*%
%TO.N,unconnected-(U1-~{SUSPEND}-Pad15)*%
X137220000Y-75610000D03*
%TO.P,U1,16,GPIO4*%
%TO.N,unconnected-(U1-GPIO4-Pad16)*%
X137720000Y-75610000D03*
%TO.P,U1,17,SUSPEND*%
%TO.N,unconnected-(U1-SUSPEND-Pad17)*%
X138220000Y-75610000D03*
%TO.P,U1,18,~{CTS}*%
%TO.N,unconnected-(U1-~{CTS}-Pad18)*%
X138720000Y-75610000D03*
D23*
%TO.P,U1,19,~{RTS}*%
%TO.N,CH-RTS*%
X139407500Y-74922500D03*
%TO.P,U1,20,RXD*%
%TO.N,TXD0*%
X139407500Y-74422500D03*
%TO.P,U1,21,TXD*%
%TO.N,RXD0*%
X139407500Y-73922500D03*
%TO.P,U1,22,~{DSR}*%
%TO.N,unconnected-(U1-~{DSR}-Pad22)*%
X139407500Y-73422500D03*
%TO.P,U1,23,~{DTR}*%
%TO.N,CH-DTR*%
X139407500Y-72922500D03*
%TO.P,U1,24,~{DCD}*%
%TO.N,unconnected-(U1-~{DCD}-Pad24)*%
X139407500Y-72422500D03*
D24*
%TO.P,U1,25,GND*%
%TO.N,GND*%
X137470000Y-73672500D03*
%TD*%
D12*
%TO.P,USB_PLUG_R2,1*%
%TO.N,Net-(J1-CC2)*%
X137765000Y-64150000D03*
%TO.P,USB_PLUG_R2,2*%
%TO.N,GND*%
X139415000Y-64150000D03*
%TD*%
%TO.P,PSR1,1*%
%TO.N,SPICS1*%
X168245000Y-84240000D03*
%TO.P,PSR1,2*%
%TO.N,VDD_SPI*%
X169895000Y-84240000D03*
%TD*%
D25*
%TO.P,E-40MHZ-Y2,1,1*%
%TO.N,Net-(ESP32S1-XTAL_P)*%
X146820000Y-100590000D03*
%TO.P,E-40MHZ-Y2,2,2*%
%TO.N,GND*%
X146820000Y-102790000D03*
%TO.P,E-40MHZ-Y2,3,3*%
%TO.N,Net-(ESP32S1-XTAL_N)*%
X148520000Y-102790000D03*
%TO.P,E-40MHZ-Y2,4,4*%
%TO.N,GND*%
X148520000Y-100590000D03*
%TD*%
D14*
%TO.P,CH-V3-C1,1*%
%TO.N,Net-(U1-V3)*%
X133840000Y-68835000D03*
%TO.P,CH-V3-C1,2*%
%TO.N,GND*%
X133840000Y-67285000D03*
%TD*%
D10*
%TO.P,CH-TX-R1,1*%
%TO.N,TXD0*%
X146570000Y-76035000D03*
%TO.P,CH-TX-R1,2*%
%TO.N,Net-(CH-TX-RED1-K)*%
X146570000Y-77685000D03*
%TD*%
D26*
%TO.P,E-LNA-L1,1,1*%
%TO.N,Net-(ANT1-Pad1)*%
X122447500Y-102220000D03*
%TO.P,E-LNA-L1,2,2*%
%TO.N,Net-(ESP32S1-LNA_IN{slash}RF)*%
X124572500Y-102220000D03*
%TD*%
D27*
%TO.P,I2C_SCL_R1,1*%
%TO.N,3V3*%
X139660000Y-111285000D03*
%TO.P,I2C_SCL_R1,2*%
%TO.N,GPIO9_I2C_SCL*%
X139660000Y-109635000D03*
%TD*%
D14*
%TO.P,CH-VIO-C1,1*%
%TO.N,3V3*%
X135700000Y-68825000D03*
%TO.P,CH-VIO-C1,2*%
%TO.N,GND*%
X135700000Y-67275000D03*
%TD*%
D28*
%TO.P,EPS1,1,~{CE}*%
%TO.N,SPICS1*%
X170090000Y-91610000D03*
%TO.P,EPS1,2,SIO1*%
%TO.N,SPIQ*%
X171360000Y-91610000D03*
%TO.P,EPS1,3,SIO2*%
%TO.N,SPIWP*%
X172630000Y-91610000D03*
%TO.P,EPS1,4,VSS*%
%TO.N,GND_SRAM*%
X173900000Y-91610000D03*
%TO.P,EPS1,5,SiO0*%
%TO.N,SPID*%
X173900000Y-86660000D03*
%TO.P,EPS1,6,SCLK*%
%TO.N,SPICLK*%
X172630000Y-86660000D03*
%TO.P,EPS1,7,SIO3*%
%TO.N,SPIHD*%
X171360000Y-86660000D03*
%TO.P,EPS1,8,VCC*%
%TO.N,VDD_SPI*%
X170090000Y-86660000D03*
%TD*%
D29*
%TO.P,E-VDDA-C2,1*%
%TO.N,GND*%
X139000000Y-94930000D03*
%TO.P,E-VDDA-C2,2*%
%TO.N,3V3*%
X137100000Y-94930000D03*
%TD*%
D30*
%TO.P,E-VDD3-C2,1*%
%TO.N,Net-(E-VDD3-C2-Pad1)*%
X126785000Y-99160000D03*
%TO.P,E-VDD3-C2,2*%
%TO.N,GND*%
X128335000Y-99160000D03*
%TD*%
D21*
%TO.P,TP3,1,1*%
%TO.N,VIN*%
X165150000Y-73640000D03*
%TD*%
D10*
%TO.P,AUR-LED-R1,1*%
%TO.N,GND*%
X170510000Y-72775000D03*
%TO.P,AUR-LED-R1,2*%
%TO.N,Net-(PWR-LED1-K)*%
X170510000Y-74425000D03*
%TD*%
D31*
%TO.P,E-C2,1*%
%TO.N,3V3*%
X126750000Y-82950000D03*
%TO.P,E-C2,2*%
%TO.N,GND*%
X128650000Y-82950000D03*
%TD*%
D10*
%TO.P,E-TXD0-R1,1*%
%TO.N,TXD0*%
X143060000Y-76245000D03*
%TO.P,E-TXD0-R1,2*%
%TO.N,Net-(ESP32S1-U0TXD{slash}PROG{slash}GPIO43)*%
X143060000Y-77895000D03*
%TD*%
D13*
%TO.P,CH-D-R2,1*%
%TO.N,USB_D-*%
X140675000Y-66960000D03*
%TO.P,CH-D-R2,2*%
%TO.N,Net-(U1-D-)*%
X139025000Y-66960000D03*
%TD*%
D32*
%TO.P,IMU1,1,SDO/SA0*%
%TO.N,unconnected-(IMU1-SDO{slash}SA0-Pad1)*%
X145705000Y-111935000D03*
%TO.P,IMU1,2,SDX*%
%TO.N,unconnected-(IMU1-SDX-Pad2)*%
X146205000Y-111935000D03*
%TO.P,IMU1,3,SCX*%
%TO.N,unconnected-(IMU1-SCX-Pad3)*%
X146705000Y-111935000D03*
%TO.P,IMU1,4,INT1*%
%TO.N,unconnected-(IMU1-INT1-Pad4)*%
X147205000Y-111935000D03*
D33*
%TO.P,IMU1,5,VDDIO*%
%TO.N,3V3*%
X147380000Y-111260000D03*
%TO.P,IMU1,6,GND*%
%TO.N,GND*%
X147380000Y-110760000D03*
%TO.P,IMU1,7,GND*%
X147380000Y-110260000D03*
D32*
%TO.P,IMU1,8,VDD*%
%TO.N,3V3*%
X147205000Y-109585000D03*
%TO.P,IMU1,9,INT2*%
%TO.N,unconnected-(IMU1-INT2-Pad9)*%
X146705000Y-109585000D03*
%TO.P,IMU1,10,NC*%
%TO.N,unconnected-(IMU1-NC-Pad10)*%
X146205000Y-109585000D03*
%TO.P,IMU1,11,NC*%
%TO.N,unconnected-(IMU1-NC-Pad11)*%
X145705000Y-109585000D03*
D33*
%TO.P,IMU1,12,CS*%
%TO.N,IMU_CS_IO21*%
X145530000Y-110260000D03*
%TO.P,IMU1,13,SCL*%
%TO.N,GPIO9_I2C_SCL*%
X145530000Y-110760000D03*
%TO.P,IMU1,14,SDA*%
%TO.N,GPIO8_I2C_SDA*%
X145530000Y-111260000D03*
%TD*%
D34*
%TO.P,CH-DTR-BSS1,1,G*%
%TO.N,CH-DTR*%
X136730000Y-79210000D03*
%TO.P,CH-DTR-BSS1,2,S*%
%TO.N,CH-RTS*%
X134830000Y-79210000D03*
%TO.P,CH-DTR-BSS1,3,D*%
%TO.N,CHIP_EN*%
X135780000Y-81085000D03*
%TD*%
D15*
%TO.P,IMU_C1,1*%
%TO.N,GND*%
X149370000Y-109545000D03*
%TO.P,IMU_C1,2*%
%TO.N,3V3*%
X149370000Y-111095000D03*
%TD*%
%TO.P,E-LNA-C1,1*%
%TO.N,Net-(ANT1-Pad1)*%
X122330000Y-104325000D03*
%TO.P,E-LNA-C1,2*%
%TO.N,GND*%
X122330000Y-105875000D03*
%TD*%
D18*
%TO.P,E-VDDA-C1,1*%
%TO.N,GND*%
X138565000Y-98850000D03*
%TO.P,E-VDDA-C1,2*%
%TO.N,3V3*%
X137015000Y-98850000D03*
%TD*%
D34*
%TO.P,CH-RTS-BSS1,1,G*%
%TO.N,CH-RTS*%
X132637500Y-79232500D03*
%TO.P,CH-RTS-BSS1,2,S*%
%TO.N,CH-DTR*%
X130737500Y-79232500D03*
%TO.P,CH-RTS-BSS1,3,D*%
%TO.N,ESP_GPIO0_BOOT-DTR*%
X131687500Y-81107500D03*
%TD*%
D35*
%TO.P,E-32MHZ-Y1,1,1*%
%TO.N,Net-(ESP32S1-GPIO16{slash}ADC2_CH5{slash}XTAL_32K_N)*%
X143140000Y-88990000D03*
%TO.P,E-32MHZ-Y1,2,2*%
%TO.N,GND*%
X145340000Y-88990000D03*
%TO.P,E-32MHZ-Y1,3,3*%
%TO.N,Net-(ESP32S1-GPIO15{slash}ADC2_CH4{slash}XTAL_32K_P)*%
X145340000Y-87290000D03*
%TO.P,E-32MHZ-Y1,4,4*%
%TO.N,GND*%
X143140000Y-87290000D03*
%TD*%
D15*
%TO.P,ATH20_C1,1*%
%TO.N,GND*%
X131560000Y-114130000D03*
%TO.P,ATH20_C1,2*%
%TO.N,3V3*%
X131560000Y-115680000D03*
%TD*%
D14*
%TO.P,E-VDD3-RTC-C1,1*%
%TO.N,3V3*%
X137160000Y-87295000D03*
%TO.P,E-VDD3-RTC-C1,2*%
%TO.N,GND*%
X137160000Y-85745000D03*
%TD*%
D30*
%TO.P,E-VDD3-C1,1*%
%TO.N,3V3*%
X126875000Y-94720000D03*
%TO.P,E-VDD3-C1,2*%
%TO.N,GND*%
X128425000Y-94720000D03*
%TD*%
D36*
%TO.P,AUR1,1,FB*%
%TO.N,Net-(AUR1-FB)*%
X165540000Y-66132500D03*
%TO.P,AUR1,2,GND*%
%TO.N,GND*%
X164590000Y-66132500D03*
%TO.P,AUR1,3,SW*%
%TO.N,Net-(AUR1-SW)*%
X163640000Y-66132500D03*
%TO.P,AUR1,4,VIN_SW*%
%TO.N,VIN*%
X163640000Y-69002500D03*
%TO.P,AUR1,5,VIN_A*%
X164590000Y-69002500D03*
%TO.P,AUR1,6,EN*%
X165540000Y-69002500D03*
D37*
%TO.P,AUR1,7,GND*%
%TO.N,GND*%
X164590000Y-67567500D03*
%TD*%
D38*
%TO.P,AUR_C2,1*%
%TO.N,VIN*%
X168270000Y-71517500D03*
%TO.P,AUR_C2,2*%
%TO.N,GND*%
X168270000Y-69442500D03*
%TD*%
D30*
%TO.P,E-VDD-SPI-C2,1*%
%TO.N,VDD_SPI*%
X150965000Y-91440000D03*
%TO.P,E-VDD-SPI-C2,2*%
%TO.N,GND*%
X152515000Y-91440000D03*
%TD*%
D15*
%TO.P,E-RST-EN-C1,1*%
%TO.N,GND*%
X132940000Y-88230000D03*
%TO.P,E-RST-EN-C1,2*%
%TO.N,CHIP_EN*%
X132940000Y-89780000D03*
%TD*%
D39*
%TO.P,E-VDD3-L1,1,1*%
%TO.N,3V3*%
X128502500Y-97110000D03*
%TO.P,E-VDD3-L1,2,2*%
%TO.N,Net-(E-VDD3-C2-Pad1)*%
X126377500Y-97110000D03*
%TD*%
D19*
%TO.P,AUR_R2,1*%
%TO.N,3V3*%
X161650000Y-63217500D03*
%TO.P,AUR_R2,2*%
%TO.N,Net-(AUR1-FB)*%
X163650000Y-63217500D03*
%TD*%
D40*
%TO.P,J1,A5,CC1*%
%TO.N,Net-(J1-CC1)*%
X152460000Y-69225000D03*
%TO.P,J1,A6,DP1*%
%TO.N,USB_D+*%
X151460000Y-69225000D03*
%TO.P,J1,A7,DN1*%
%TO.N,USB_D-*%
X150960000Y-69225000D03*
%TO.P,J1,A8,SBU1*%
%TO.N,unconnected-(J1-SBU1-PadA8)*%
X149960000Y-69225000D03*
D41*
%TO.P,J1,B1,GND*%
%TO.N,GND*%
X147960000Y-69225000D03*
%TO.P,J1,B4,VBUS*%
%TO.N,USB_VBUS*%
X148760000Y-69225000D03*
D40*
%TO.P,J1,B5,CC2*%
%TO.N,Net-(J1-CC2)*%
X149460000Y-69225000D03*
%TO.P,J1,B6,DP2*%
%TO.N,USB_D+*%
X150460000Y-69225000D03*
%TO.P,J1,B7,DN2*%
%TO.N,USB_D-*%
X151960000Y-69225000D03*
%TO.P,J1,B8,SBU2*%
%TO.N,unconnected-(J1-SBU2-PadB8)*%
X152960000Y-69225000D03*
D41*
%TO.P,J1,B9,VBUS*%
%TO.N,USB_VBUS*%
X153660000Y-69225000D03*
%TO.P,J1,B12,GND*%
%TO.N,GND*%
X154460000Y-69225000D03*
D42*
%TO.P,J1,S1,SHIELD*%
%TO.N,Net-(J1-SHIELD-PadS1)*%
X155530000Y-68310000D03*
D43*
X155530000Y-64130000D03*
D42*
X146890000Y-68310000D03*
D43*
X146890000Y-64130000D03*
%TD*%
D13*
%TO.P,USB_PLYG_R1,1*%
%TO.N,Net-(J1-SHIELD-PadS1)*%
X143665000Y-62310000D03*
%TO.P,USB_PLYG_R1,2*%
%TO.N,GND*%
X142015000Y-62310000D03*
%TD*%
D14*
%TO.P,CH-VBUS-C2,1*%
%TO.N,VIN*%
X131990000Y-68855000D03*
%TO.P,CH-VBUS-C2,2*%
%TO.N,GND*%
X131990000Y-67305000D03*
%TD*%
D10*
%TO.P,I2C_SDA_R1,1*%
%TO.N,GPIO8_I2C_SDA*%
X142450000Y-111260000D03*
%TO.P,I2C_SDA_R1,2*%
%TO.N,3V3*%
X142450000Y-112910000D03*
%TD*%
D44*
%TO.P,PWR_FUSE1,1*%
%TO.N,VIN*%
X155557500Y-75280000D03*
%TO.P,PWR_FUSE1,2*%
%TO.N,USB_VBUS*%
X152582500Y-75280000D03*
%TD*%
D30*
%TO.P,E-VDD-SPI-C1,1*%
%TO.N,VDD_SPI*%
X150935000Y-93480000D03*
%TO.P,E-VDD-SPI-C1,2*%
%TO.N,GND*%
X152485000Y-93480000D03*
%TD*%
%TO.P,E-Y2-C2,1*%
%TO.N,Net-(ESP32S1-XTAL_P)*%
X146855000Y-98250000D03*
%TO.P,E-Y2-C2,2*%
%TO.N,GND*%
X148405000Y-98250000D03*
%TD*%
D11*
%TO.P,REF\u002A\u002A,1*%
%TO.N,N/C*%
X125450000Y-66040000D03*
%TD*%
%TO.P,REF\u002A\u002A,1*%
%TO.N,N/C*%
X173940000Y-116620000D03*
%TD*%
D31*
%TO.P,E-C1,1*%
%TO.N,3V3*%
X126700000Y-85310000D03*
%TO.P,E-C1,2*%
%TO.N,GND*%
X128600000Y-85310000D03*
%TD*%
D21*
%TO.P,TP1,1,1*%
%TO.N,3V3*%
X177200000Y-72410000D03*
%TD*%
D45*
%TO.P,AUR_C1,1*%
%TO.N,3V3*%
X160127500Y-71830000D03*
%TO.P,AUR_C1,2*%
%TO.N,GND*%
X158052500Y-71830000D03*
%TD*%
D12*
%TO.P,E-RST-EN-R1,1*%
%TO.N,3V3*%
X128585000Y-90550000D03*
%TO.P,E-RST-EN-R1,2*%
%TO.N,CHIP_EN*%
X130235000Y-90550000D03*
%TD*%
D46*
%TO.P,ESP32S1,1,LNA_IN/RF*%
%TO.N,Net-(ESP32S1-LNA_IN{slash}RF)*%
X132820000Y-99370000D03*
%TO.P,ESP32S1,2,VDD3P3*%
%TO.N,Net-(E-VDD3-C2-Pad1)*%
X130820000Y-98970000D03*
%TO.P,ESP32S1,3,VDD3P3*%
X131830000Y-98560000D03*
%TO.P,ESP32S1,4,CHIP_PU/RESET*%
%TO.N,CHIP_EN*%
X132820000Y-98170000D03*
%TO.P,ESP32S1,5,GPIO0/BOOT*%
%TO.N,ESP_GPIO0_BOOT-DTR*%
X130820000Y-97770000D03*
%TO.P,ESP32S1,6,GPIO1/ADC1_CH0*%
%TO.N,BAT_SENSE_IO21*%
X131830000Y-97360000D03*
%TO.P,ESP32S1,7,GPIO2/ADC1_CH1*%
%TO.N,LED_B_IO05*%
X132820000Y-96960000D03*
%TO.P,ESP32S1,8,GPIO3/ADC1_CH2*%
%TO.N,GND*%
X130820000Y-96560000D03*
%TO.P,ESP32S1,9,GPIO4/ADC1_CH3*%
%TO.N,LED_G_IO02*%
X131820000Y-96160000D03*
%TO.P,ESP32S1,10,GPIO5/ADC1_CH4*%
%TO.N,LED_R_IO04*%
X132820000Y-95760000D03*
%TO.P,ESP32S1,11,GPIO6/ADC1_CH5*%
%TO.N,ADC_IN_IO04*%
X130820000Y-95360000D03*
%TO.P,ESP32S1,12,GPIO7/ADC1_CH6*%
%TO.N,VOLTAGE_REF_IO07*%
X131820000Y-94960000D03*
%TO.P,ESP32S1,13,GPIO8/ADC1_CH7*%
%TO.N,GPIO8_I2C_SDA*%
X132820000Y-94570000D03*
%TO.P,ESP32S1,14,GPIO9/ADC1_CH8*%
%TO.N,GPIO9_I2C_SCL*%
X130820000Y-94170000D03*
%TO.P,ESP32S1,15,GPIO10/ADC1_CH9*%
%TO.N,STORAGE_CS_IO10*%
X134980000Y-92010000D03*
%TO.P,ESP32S1,16,GPIO11/ADC2_CH0*%
%TO.N,STORAGE_MOSI_SPID_IO11*%
X135380000Y-90010000D03*
%TO.P,ESP32S1,17,GPIO12/ADC2_CH1*%
%TO.N,FSPICLK_IO12*%
X135770000Y-91000000D03*
%TO.P,ESP32S1,18,GPIO13/ADC2_CH2*%
%TO.N,STORAGE_MISO_SPIQ_IO13*%
X136180000Y-92010000D03*
%TO.P,ESP32S1,19,GPIO14/ADC2_CH3*%
%TO.N,DAC_CALIBRATION*%
X136570000Y-90010000D03*
%TO.P,ESP32S1,20,VDD3P3_RTC*%
%TO.N,3V3*%
X136970000Y-91000000D03*
%TO.P,ESP32S1,21,GPIO15/ADC2_CH4/XTAL_32K_P*%
%TO.N,Net-(ESP32S1-GPIO15{slash}ADC2_CH4{slash}XTAL_32K_P)*%
X137370000Y-92010000D03*
%TO.P,ESP32S1,22,GPIO16/ADC2_CH5/XTAL_32K_N*%
%TO.N,Net-(ESP32S1-GPIO16{slash}ADC2_CH5{slash}XTAL_32K_N)*%
X137770000Y-90010000D03*
%TO.P,ESP32S1,23,GPIO17/ADC2_CH6/DAC_2*%
%TO.N,STORAGE_2_CS_IO17*%
X138180000Y-91000000D03*
%TO.P,ESP32S1,24,GPIO18/ADC2_CH7/DAC_1*%
%TO.N,DAC_CALIBRATION*%
X138580000Y-92010000D03*
%TO.P,ESP32S1,25,GPIO19/USB_D-/ADC2_CH8*%
%TO.N,USB_D-*%
X138980000Y-90010000D03*
%TO.P,ESP32S1,26,GPIO20/USB_D+/ADC2_CH9*%
%TO.N,USB_D+*%
X139380000Y-91000000D03*
%TO.P,ESP32S1,27,GPIO21*%
%TO.N,IMU_CS_IO21*%
X139780000Y-92010000D03*
%TO.P,ESP32S1,28,SPI_CS1/GPIO26*%
%TO.N,SPICS1*%
X140180000Y-90010000D03*
%TO.P,ESP32S1,29,VDD_SPI*%
%TO.N,VDD_SPI*%
X142340000Y-94170000D03*
%TO.P,ESP32S1,30,SPIHD/GPIO27*%
%TO.N,SPIHD*%
X144330000Y-94570000D03*
%TO.P,ESP32S1,31,SPIWP/GPIO28*%
%TO.N,SPIWP*%
X143340000Y-94950000D03*
%TO.P,ESP32S1,32,SPICS0/GPIO29*%
%TO.N,SPICS0*%
X142340000Y-95360000D03*
%TO.P,ESP32S1,33,SPICLK/GPIO30*%
%TO.N,SPICLK*%
X144340000Y-95760000D03*
%TO.P,ESP32S1,34,SPIQ/GPIO31*%
%TO.N,SPIQ*%
X143350000Y-96160000D03*
%TO.P,ESP32S1,35,SPID/GPIO32*%
%TO.N,SPID*%
X142340000Y-96570000D03*
%TO.P,ESP32S1,36,SPICLK_N/GPIO48*%
%TO.N,unconnected-(ESP32S1-SPICLK_N{slash}GPIO48-Pad36)*%
X144350000Y-96960000D03*
%TO.P,ESP32S1,37,SPICLK_P/GPIO47*%
%TO.N,unconnected-(ESP32S1-SPICLK_P{slash}GPIO47-Pad37)*%
X143330000Y-97370000D03*
%TO.P,ESP32S1,38,GPIO33*%
%TO.N,TEMT6000_IO33*%
X142330000Y-97770000D03*
%TO.P,ESP32S1,39,GPIO34*%
%TO.N,PLUG_PWR_3V3_EN_IO38*%
X144330000Y-98170000D03*
%TO.P,ESP32S1,40,GPIO35*%
%TO.N,LCD2_LED_IO10*%
X143340000Y-98560000D03*
%TO.P,ESP32S1,41,GPIO36*%
%TO.N,LCD2_CS_IO12*%
X142330000Y-98960000D03*
%TO.P,ESP32S1,42,GPIO37*%
%TO.N,LCD2_DC_IO11*%
X144330000Y-99370000D03*
%TO.P,ESP32S1,43,GPIO38*%
%TO.N,LCD2_RST_IO33*%
X140180000Y-101510000D03*
%TO.P,ESP32S1,44,MTCK/JTAG/GPIO39*%
%TO.N,unconnected-(ESP32S1-MTCK{slash}JTAG{slash}GPIO39-Pad44)*%
X139780000Y-103510000D03*
%TO.P,ESP32S1,45,MTDO/JTAG/GPIO40*%
%TO.N,unconnected-(ESP32S1-MTDO{slash}JTAG{slash}GPIO40-Pad45)*%
X139370000Y-102500000D03*
%TO.P,ESP32S1,46,VDD3P3_CPU*%
%TO.N,3V3*%
X138580000Y-103510000D03*
%TO.P,ESP32S1,47,MTDI/JTAG/GPIO41*%
%TO.N,unconnected-(ESP32S1-MTDI{slash}JTAG{slash}GPIO41-Pad47)*%
X138980000Y-101510000D03*
%TO.P,ESP32S1,48,MTMS/JTAG/GPIO42*%
%TO.N,unconnected-(ESP32S1-MTMS{slash}JTAG{slash}GPIO42-Pad48)*%
X138170000Y-102500000D03*
%TO.P,ESP32S1,49,U0TXD/PROG/GPIO43*%
%TO.N,Net-(ESP32S1-U0TXD{slash}PROG{slash}GPIO43)*%
X137370000Y-103510000D03*
%TO.P,ESP32S1,50,U0RXD/PROG/GPIO44*%
%TO.N,RXD0*%
X137770000Y-101510000D03*
%TO.P,ESP32S1,51,GPIO45*%
%TO.N,GND*%
X136960000Y-102500000D03*
%TO.P,ESP32S1,52,GPIO46*%
%TO.N,ESP_GPIO0_BOOT-DTR*%
X136170000Y-103510000D03*
%TO.P,ESP32S1,53,XTAL_N*%
%TO.N,Net-(ESP32S1-XTAL_N)*%
X136570000Y-101510000D03*
%TO.P,ESP32S1,54,XTAL_P*%
%TO.N,Net-(ESP32S1-XTAL_P)*%
X135760000Y-102500000D03*
%TO.P,ESP32S1,55,VDDA*%
%TO.N,3V3*%
X135380000Y-101510000D03*
%TO.P,ESP32S1,56,VDDA*%
X134980000Y-103510000D03*
%TD*%
D47*
%TO.N,GND*%
X140650000Y-64150000D03*
X155660000Y-71240000D03*
X162230000Y-82540000D03*
D48*
X140991635Y-97058365D03*
D49*
X144980000Y-64170000D03*
D47*
X131530000Y-112970000D03*
D48*
X140850000Y-102760000D03*
D47*
X142980000Y-107420000D03*
X142300000Y-72850000D03*
D49*
X145260000Y-101320000D03*
X138200000Y-107380000D03*
D47*
X127105645Y-93105645D03*
D49*
X145260000Y-85710000D03*
X145250000Y-90620000D03*
D47*
X137470000Y-73672500D03*
X168280000Y-67767500D03*
X146790000Y-71280000D03*
D48*
X146430000Y-110770000D03*
D47*
X129650000Y-84270000D03*
D49*
X127764500Y-87860000D03*
X149410000Y-108210000D03*
D47*
X168440000Y-99490000D03*
X153900000Y-93460000D03*
X126780000Y-105870000D03*
X150170000Y-99200000D03*
D49*
X141060000Y-86350000D03*
D47*
X133830000Y-65820000D03*
X162080000Y-73990000D03*
D48*
X137710000Y-97790000D03*
X139470000Y-93660000D03*
D47*
%TO.N,3V3*%
X160130000Y-70290000D03*
X145840000Y-113570000D03*
X138030000Y-117910000D03*
X174910000Y-96210000D03*
X162480000Y-104915500D03*
X128020000Y-80990000D03*
X133350000Y-112370000D03*
X175450000Y-73660000D03*
D49*
X156300000Y-112990000D03*
D47*
X136270000Y-70030000D03*
%TO.N,VIN*%
X133195000Y-71235000D03*
X157680000Y-75250000D03*
D49*
%TO.N,ADC_IN_IO04*%
X132490000Y-84870500D03*
D47*
X147700000Y-116870000D03*
%TO.N,CHIP_EN*%
X127920000Y-74140000D03*
D48*
X132555500Y-91030000D03*
D49*
X135760000Y-82500000D03*
D47*
%TO.N,Net-(ESP32S1-LNA_IN{slash}RF)*%
X126010000Y-102280000D03*
%TO.N,VDD_SPI*%
X153420000Y-90280000D03*
X168630000Y-88830000D03*
D48*
%TO.N,Net-(ESP32S1-XTAL_P)*%
X138013375Y-99966625D03*
D47*
%TO.N,SPICS1*%
X166770000Y-87140000D03*
%TO.N,SPIWP*%
X172670000Y-93600000D03*
X165160000Y-87970000D03*
D49*
X146220000Y-93920000D03*
D47*
%TO.N,SPIHD*%
X167823366Y-89946634D03*
X155330000Y-92740000D03*
%TO.N,TXD0*%
X141797841Y-77538416D03*
X145350000Y-75670000D03*
D49*
%TO.N,Net-(ESP32S1-U0TXD{slash}PROG{slash}GPIO43)*%
X139275256Y-82005500D03*
%TO.N,ESP_GPIO0_BOOT-DTR*%
X131687500Y-82550000D03*
X134786116Y-94620000D03*
D47*
X128870000Y-75290000D03*
D49*
X135550000Y-104680000D03*
X128180000Y-92550000D03*
%TO.N,LED_G_IO02*%
X134504240Y-96470260D03*
%TO.N,LED_R_IO04*%
X132253983Y-107516017D03*
X132203010Y-102733010D03*
%TO.N,LED_B_IO05*%
X129640000Y-104130000D03*
%TO.N,GPIO8_I2C_SDA*%
X143820000Y-111350000D03*
X152690000Y-114560000D03*
X134990000Y-84844500D03*
%TO.N,GPIO9_I2C_SCL*%
X142230000Y-110050000D03*
X133700000Y-84890000D03*
X155330000Y-116690000D03*
D48*
%TO.N,DAC_CALIBRATION*%
X138010000Y-93570000D03*
D49*
%TO.N,IMU_CS_IO21*%
X141860000Y-108260000D03*
D47*
%TO.N,SPICS0*%
X164060000Y-90270000D03*
X151660000Y-88690000D03*
D49*
%TO.N,LCD2_RST_IO33*%
X143700000Y-103160000D03*
D47*
%TO.N,RXD0*%
X142950000Y-74800000D03*
D49*
X138070000Y-82765500D03*
%TO.N,Net-(J1-CC1)*%
X143090000Y-65590000D03*
D47*
X152490000Y-67060000D03*
%TO.N,Net-(J1-CC2)*%
X149580000Y-67670000D03*
X141455282Y-65462013D03*
%TO.N,Net-(LED1-RA)*%
X132700000Y-109610000D03*
%TO.N,Net-(ANT1-Pad1)*%
X122427500Y-100630000D03*
%TO.N,Net-(PWR-LED1-K)*%
X171740000Y-74400000D03*
%TO.N,USB_VBUS*%
X152660000Y-72230000D03*
X150670000Y-75320000D03*
%TO.N,CH-DTR*%
X131655000Y-77345000D03*
X138884283Y-77685956D03*
X140940000Y-72900000D03*
%TO.N,Net-(CH-RX-LED1-K)*%
X145920000Y-81960000D03*
%TO.N,Net-(CH-TX-RED1-K)*%
X147470000Y-78840000D03*
%TO.N,GND_SRAM*%
X174020000Y-93530000D03*
%TO.N,GND_FLASH*%
X159980000Y-92580000D03*
%TD*%
D50*
%TO.N,GND*%
X128184500Y-87440000D02*
X132450000Y-87440000D01*
X170610000Y-72775000D02*
X170610000Y-72220000D01*
D51*
X140980000Y-86270000D02*
X139850000Y-86270000D01*
D52*
X156240000Y-71820000D02*
X158042500Y-71820000D01*
X128600000Y-85310000D02*
X128600000Y-83510000D01*
D51*
X139850000Y-86270000D02*
X139030000Y-86270000D01*
D50*
X150170000Y-99200000D02*
X150130000Y-99240000D01*
D52*
X131250000Y-85870000D02*
X137035000Y-85870000D01*
D53*
X129650000Y-96560000D02*
X129650000Y-96230000D01*
D51*
X126755000Y-105845000D02*
X124680000Y-105845000D01*
D52*
X168080000Y-63237500D02*
X168080000Y-67567500D01*
D50*
X137490000Y-110370000D02*
X137490000Y-107420000D01*
X131530000Y-112690000D02*
X133100000Y-111120000D01*
X131530000Y-112970000D02*
X131530000Y-112690000D01*
D52*
X168280000Y-67767500D02*
X168270000Y-67757500D01*
D50*
X141090000Y-102940000D02*
X140990000Y-102840000D01*
D51*
X142190000Y-87290000D02*
X141170000Y-86270000D01*
D50*
X145260000Y-90610000D02*
X145250000Y-90620000D01*
D54*
X138640000Y-98775000D02*
X138565000Y-98850000D01*
D50*
X152505000Y-93460000D02*
X152485000Y-93480000D01*
D55*
X131560000Y-113000000D02*
X131530000Y-112970000D01*
D50*
X152485000Y-91520000D02*
X152555000Y-91450000D01*
D51*
X175370000Y-85908298D02*
X171541702Y-82080000D01*
D50*
X146465000Y-110675000D02*
X146550000Y-110760000D01*
D52*
X158042500Y-71820000D02*
X158052500Y-71830000D01*
D51*
X170090000Y-99490000D02*
X175370000Y-94210000D01*
D53*
X129650000Y-98550000D02*
X129010000Y-99190000D01*
D50*
X149300000Y-107420000D02*
X149370000Y-107490000D01*
X152485000Y-93480000D02*
X152485000Y-91520000D01*
X170610000Y-72220000D02*
X169940000Y-71550000D01*
D51*
X146760000Y-71310000D02*
X146790000Y-71280000D01*
D50*
X168317500Y-69490000D02*
X168270000Y-69442500D01*
D51*
X141060000Y-86350000D02*
X140980000Y-86270000D01*
X141240000Y-62240000D02*
X140650000Y-62830000D01*
D53*
X129650000Y-96230000D02*
X129650000Y-98550000D01*
D50*
X148520000Y-98365000D02*
X148520000Y-99240000D01*
D51*
X143140000Y-87290000D02*
X142190000Y-87290000D01*
D50*
X145340000Y-88990000D02*
X145260000Y-89070000D01*
X139775000Y-64150000D02*
X140650000Y-64150000D01*
D51*
X142300000Y-72850000D02*
X143840000Y-71310000D01*
D50*
X146190000Y-102790000D02*
X146820000Y-102790000D01*
D54*
X138640000Y-94970000D02*
X138640000Y-98775000D01*
D55*
X131560000Y-114130000D02*
X131560000Y-113000000D01*
D50*
X131085000Y-105450000D02*
X131085000Y-106455000D01*
D51*
X147055000Y-105130000D02*
X146930000Y-105255000D01*
D50*
X169940000Y-71550000D02*
X169940000Y-70230000D01*
D51*
X150140000Y-106700000D02*
X149420000Y-107420000D01*
X175370000Y-94210000D02*
X175370000Y-85908298D01*
D50*
X145260000Y-101860000D02*
X146190000Y-102790000D01*
X132960000Y-87950000D02*
X132960000Y-88515000D01*
D52*
X129650000Y-84270000D02*
X131250000Y-85870000D01*
D51*
X141170000Y-86270000D02*
X141140000Y-86270000D01*
D54*
X138750000Y-94860000D02*
X138640000Y-94970000D01*
D52*
X168280000Y-67767500D02*
X164790000Y-67767500D01*
X122330000Y-105875000D02*
X124650000Y-105875000D01*
D50*
X136740000Y-111120000D02*
X137490000Y-110370000D01*
D52*
X128600000Y-83510000D02*
X128890000Y-83220000D01*
D50*
X127764500Y-87860000D02*
X128184500Y-87440000D01*
D52*
X147150000Y-71280000D02*
X146790000Y-71280000D01*
X158970000Y-73990000D02*
X158052500Y-73072500D01*
D51*
X137490000Y-107420000D02*
X133430759Y-107420000D01*
D50*
X133100000Y-111120000D02*
X136740000Y-111120000D01*
D51*
X127440000Y-106530000D02*
X126780000Y-105870000D01*
D50*
X141090000Y-107420000D02*
X141090000Y-102940000D01*
D53*
X129270000Y-94720000D02*
X129650000Y-95100000D01*
X129010000Y-99190000D02*
X128585000Y-99190000D01*
X127470000Y-93470000D02*
X127105645Y-93105645D01*
D52*
X164790000Y-67767500D02*
X164590000Y-67567500D01*
X162080000Y-73990000D02*
X162190000Y-73880000D01*
X147980000Y-70450000D02*
X147150000Y-71280000D01*
D51*
X168440000Y-99490000D02*
X170090000Y-99490000D01*
D52*
X147980000Y-69245000D02*
X147980000Y-70450000D01*
X155660000Y-71240000D02*
X156240000Y-71820000D01*
D50*
X148405000Y-98250000D02*
X148520000Y-98365000D01*
X138220000Y-70370000D02*
X138670000Y-69920000D01*
D53*
X129650000Y-95700000D02*
X129650000Y-96230000D01*
D51*
X131990000Y-67305000D02*
X135670000Y-67305000D01*
X142015000Y-62240000D02*
X141240000Y-62240000D01*
D50*
X168107500Y-63210000D02*
X168080000Y-63237500D01*
X139470000Y-93660000D02*
X139000000Y-94130000D01*
X144120000Y-85710000D02*
X144280000Y-85710000D01*
D51*
X139030000Y-86270000D02*
X138505000Y-85745000D01*
X135670000Y-67305000D02*
X135700000Y-67275000D01*
D52*
X129650000Y-84270000D02*
X128710000Y-84270000D01*
X168270000Y-67757500D02*
X168220000Y-67707500D01*
D51*
X164590000Y-66132500D02*
X164590000Y-67567500D01*
D50*
X144980000Y-64170000D02*
X145090000Y-64060000D01*
D53*
X129650000Y-95100000D02*
X129650000Y-95700000D01*
D51*
X133840000Y-67285000D02*
X133840000Y-66070000D01*
X146930000Y-105255000D02*
X146930000Y-107420000D01*
D52*
X124650000Y-105875000D02*
X124680000Y-105845000D01*
X168270000Y-69442500D02*
X168280000Y-67767500D01*
D55*
X139000000Y-94930000D02*
X138880000Y-94930000D01*
D52*
X137035000Y-85870000D02*
X137160000Y-85745000D01*
D50*
X138670000Y-69920000D02*
X145550000Y-69920000D01*
D52*
X162190000Y-68420000D02*
X163042500Y-67567500D01*
D53*
X130840000Y-96560000D02*
X129650000Y-96560000D01*
D51*
X143840000Y-71310000D02*
X146760000Y-71310000D01*
X141140000Y-86270000D02*
X141060000Y-86350000D01*
D52*
X154480000Y-69890000D02*
X155660000Y-71240000D01*
D50*
X127764500Y-87860000D02*
X127780000Y-87860000D01*
X144340000Y-85710000D02*
X147700000Y-85710000D01*
X140650000Y-64150000D02*
X140730000Y-64150000D01*
X145550000Y-69920000D02*
X146790000Y-71160000D01*
X144980000Y-64170000D02*
X143595000Y-64170000D01*
D51*
X140650000Y-62830000D02*
X140650000Y-64150000D01*
D52*
X163042500Y-67567500D02*
X164590000Y-67567500D01*
D50*
X143140000Y-86690000D02*
X144120000Y-85710000D01*
X140730000Y-64150000D02*
X140740000Y-64140000D01*
D51*
X133840000Y-66070000D02*
X133830000Y-65820000D01*
D50*
X138220000Y-72922500D02*
X137470000Y-73672500D01*
D53*
X129650000Y-94040000D02*
X129080000Y-93470000D01*
D51*
X133430759Y-107420000D02*
X132540759Y-106530000D01*
D52*
X128710000Y-84270000D02*
X128600000Y-84380000D01*
D50*
X150130000Y-99240000D02*
X148520000Y-99240000D01*
D52*
X168080000Y-67567500D02*
X168280000Y-67767500D01*
D50*
X132450000Y-87440000D02*
X132960000Y-87950000D01*
X149370000Y-107490000D02*
X149370000Y-109545000D01*
X138220000Y-71735000D02*
X138220000Y-70370000D01*
X169940000Y-70230000D02*
X169200000Y-69490000D01*
D51*
X145250000Y-90620000D02*
X145310000Y-90430000D01*
D50*
X146880000Y-110260000D02*
X146465000Y-110675000D01*
D52*
X154480000Y-69245000D02*
X154480000Y-69890000D01*
X158052500Y-73072500D02*
X158052500Y-71830000D01*
D50*
X138220000Y-71735000D02*
X138220000Y-72922500D01*
X145260000Y-101320000D02*
X145260000Y-101860000D01*
D51*
X126780000Y-105870000D02*
X126755000Y-105845000D01*
X150170000Y-99200000D02*
X150140000Y-99230000D01*
D53*
X129650000Y-95700000D02*
X129650000Y-94040000D01*
D51*
X132540759Y-106530000D02*
X131050000Y-106530000D01*
D50*
X145260000Y-89070000D02*
X145260000Y-90610000D01*
X153900000Y-93460000D02*
X152505000Y-93460000D01*
X139000000Y-94130000D02*
X139000000Y-94930000D01*
D53*
X128455000Y-94720000D02*
X129270000Y-94720000D01*
D51*
X150140000Y-99230000D02*
X150140000Y-106700000D01*
X133830000Y-65820000D02*
X133820000Y-66050000D01*
D50*
X147380000Y-110260000D02*
X146880000Y-110260000D01*
D51*
X138505000Y-85745000D02*
X137160000Y-85745000D01*
D54*
X138778365Y-97100000D02*
X140901635Y-97100000D01*
D50*
X170890000Y-63210000D02*
X168107500Y-63210000D01*
D53*
X129080000Y-93470000D02*
X127470000Y-93470000D01*
D50*
X131085000Y-106455000D02*
X131030000Y-106510000D01*
D52*
X162080000Y-73990000D02*
X158970000Y-73990000D01*
D50*
X146550000Y-110760000D02*
X147380000Y-110760000D01*
D51*
X149420000Y-107420000D02*
X141090000Y-107420000D01*
D50*
X146790000Y-71160000D02*
X146790000Y-71280000D01*
D51*
X131220000Y-106530000D02*
X127440000Y-106530000D01*
D50*
X169200000Y-69490000D02*
X168317500Y-69490000D01*
D51*
X141090000Y-107420000D02*
X137490000Y-107420000D01*
X162690000Y-82080000D02*
X162230000Y-82540000D01*
D50*
X143140000Y-87290000D02*
X143140000Y-86690000D01*
D51*
X171541702Y-82080000D02*
X162690000Y-82080000D01*
D50*
X148520000Y-99240000D02*
X148520000Y-100590000D01*
X137616275Y-97820000D02*
X138623725Y-97820000D01*
D52*
X162190000Y-73880000D02*
X162190000Y-68420000D01*
D51*
%TO.N,3V3*%
X156320000Y-111075500D02*
X156320000Y-112970000D01*
X136770000Y-95260000D02*
X136770000Y-96040000D01*
X135210000Y-101490000D02*
X135390000Y-101490000D01*
D56*
X126905000Y-94720000D02*
X126875000Y-94720000D01*
X126875000Y-95145000D02*
X128502500Y-96772500D01*
D50*
X131560000Y-116220000D02*
X133860000Y-118520000D01*
X139660000Y-111285000D02*
X139355000Y-111590000D01*
X159432500Y-63217500D02*
X161650000Y-63217500D01*
X148230000Y-111250000D02*
X148240000Y-111260000D01*
X128535000Y-91625000D02*
X128535000Y-90810000D01*
X149205000Y-111260000D02*
X149370000Y-111095000D01*
X157770000Y-64880000D02*
X159432500Y-63217500D01*
D55*
X132635000Y-105635000D02*
X132635000Y-105450000D01*
D50*
X132805000Y-115685000D02*
X133350000Y-115140000D01*
X148230000Y-108990000D02*
X148230000Y-111250000D01*
D56*
X126700000Y-85310000D02*
X126905000Y-85105000D01*
D51*
X134570000Y-102130000D02*
X135210000Y-101490000D01*
X136970000Y-94210000D02*
X136385000Y-93625000D01*
D54*
X134990000Y-103490000D02*
X135000000Y-103500000D01*
D50*
X132635000Y-105815000D02*
X132635000Y-105635000D01*
X137190000Y-91027500D02*
X137190000Y-87412500D01*
D56*
X126760000Y-91630000D02*
X126710000Y-91580000D01*
D57*
X160130000Y-70290000D02*
X160127500Y-70287500D01*
D51*
X136970000Y-94920000D02*
X136970000Y-94210000D01*
D50*
X132635000Y-103935000D02*
X132635000Y-105450000D01*
X131560000Y-115685000D02*
X131560000Y-116220000D01*
D51*
X166204500Y-104915500D02*
X162480000Y-104915500D01*
D50*
X135945000Y-99380636D02*
X133280000Y-102045636D01*
X142100000Y-112910000D02*
X141870000Y-112910000D01*
D57*
X160127500Y-71830000D02*
X160127500Y-70292500D01*
D50*
X136980000Y-106900000D02*
X133794643Y-106900000D01*
D56*
X126990000Y-82020000D02*
X128020000Y-80990000D01*
D51*
X134268884Y-93625000D02*
X132943884Y-92300000D01*
D50*
X137420000Y-118520000D02*
X138030000Y-117910000D01*
D56*
X137145000Y-87310000D02*
X137160000Y-87295000D01*
D50*
X139355000Y-111590000D02*
X134130000Y-111590000D01*
D51*
X174910000Y-96210000D02*
X166204500Y-104915500D01*
D50*
X132799643Y-105905000D02*
X132725000Y-105905000D01*
X128580000Y-91670000D02*
X128535000Y-91625000D01*
D51*
X137100000Y-94930000D02*
X137090000Y-94920000D01*
D50*
X157770000Y-68140000D02*
X157770000Y-64880000D01*
D51*
X134570000Y-103070000D02*
X134570000Y-102130000D01*
D56*
X125970000Y-92420000D02*
X126760000Y-91630000D01*
D50*
X133280000Y-103290000D02*
X132635000Y-103935000D01*
X133350000Y-115140000D02*
X133350000Y-112370000D01*
X149370000Y-111095000D02*
X149370000Y-113540000D01*
D57*
X160127500Y-69087500D02*
X159880000Y-68840000D01*
D56*
X126905000Y-83305000D02*
X126990000Y-83220000D01*
X126905000Y-85105000D02*
X126905000Y-83305000D01*
X126990000Y-83220000D02*
X126990000Y-82020000D01*
D50*
X147370000Y-108810000D02*
X148050000Y-108810000D01*
X148240000Y-111260000D02*
X149205000Y-111260000D01*
X140245000Y-111285000D02*
X139660000Y-111285000D01*
D51*
X136385000Y-93625000D02*
X134268884Y-93625000D01*
D50*
X147205000Y-108975000D02*
X147370000Y-108810000D01*
X134525000Y-106885000D02*
X134525000Y-105730000D01*
X147380000Y-111260000D02*
X148240000Y-111260000D01*
X141870000Y-112910000D02*
X140245000Y-111285000D01*
D51*
X136540000Y-96270000D02*
X136540000Y-99660000D01*
X143080000Y-113540000D02*
X142450000Y-112910000D01*
D55*
X136720000Y-71735000D02*
X136720000Y-70480000D01*
D56*
X137160000Y-87295000D02*
X137160000Y-88800000D01*
X128502500Y-96772500D02*
X128502500Y-97110000D01*
X126875000Y-94720000D02*
X126875000Y-95145000D01*
D50*
X148050000Y-108810000D02*
X148230000Y-108990000D01*
D51*
X137100000Y-94930000D02*
X136770000Y-95260000D01*
X128640000Y-91630000D02*
X126760000Y-91630000D01*
X136540000Y-99660000D02*
X135390000Y-100810000D01*
D52*
X135000000Y-103510000D02*
X135000000Y-103500000D01*
D50*
X132725000Y-105905000D02*
X132635000Y-105815000D01*
D56*
X126710000Y-91580000D02*
X126710000Y-85320000D01*
D51*
X156320000Y-112970000D02*
X155750000Y-113540000D01*
D56*
X136040000Y-87310000D02*
X137145000Y-87310000D01*
X135550000Y-86820000D02*
X136040000Y-87310000D01*
D51*
X137090000Y-94920000D02*
X136970000Y-94920000D01*
D55*
X135700000Y-69460000D02*
X135700000Y-69015000D01*
D51*
X132943884Y-92300000D02*
X129310000Y-92300000D01*
X177200000Y-72410000D02*
X176030000Y-73580000D01*
D50*
X135945000Y-93625000D02*
X135945000Y-99380636D01*
D51*
X149370000Y-113540000D02*
X143080000Y-113540000D01*
D50*
X160670000Y-68837500D02*
X158467500Y-68837500D01*
X138600000Y-105280000D02*
X136980000Y-106900000D01*
X133280000Y-102045636D02*
X133280000Y-103290000D01*
D51*
X155750000Y-113540000D02*
X149370000Y-113540000D01*
X134990000Y-103490000D02*
X134570000Y-103070000D01*
D50*
X133794643Y-106900000D02*
X132799643Y-105905000D01*
D56*
X125970000Y-93975000D02*
X125970000Y-92420000D01*
D51*
X129310000Y-92300000D02*
X128640000Y-91630000D01*
D50*
X133860000Y-118520000D02*
X137420000Y-118520000D01*
X138600000Y-103510000D02*
X138600000Y-105280000D01*
D56*
X126710000Y-85320000D02*
X126700000Y-85310000D01*
X126710000Y-86820000D02*
X135550000Y-86820000D01*
D50*
X134130000Y-111590000D02*
X133350000Y-112370000D01*
X158467500Y-68837500D02*
X157770000Y-68140000D01*
X131560000Y-115685000D02*
X132805000Y-115685000D01*
D51*
X142450000Y-112910000D02*
X142100000Y-112910000D01*
D57*
X160127500Y-70292500D02*
X160130000Y-70290000D01*
D55*
X136720000Y-70480000D02*
X135700000Y-69460000D01*
D51*
X136770000Y-96040000D02*
X136540000Y-96270000D01*
D56*
X126710000Y-94715000D02*
X125970000Y-93975000D01*
D51*
X135390000Y-100810000D02*
X135390000Y-101490000D01*
D50*
X147205000Y-109585000D02*
X147205000Y-108975000D01*
D57*
X160127500Y-70287500D02*
X160127500Y-69087500D01*
D51*
X176030000Y-73580000D02*
X175440000Y-73580000D01*
X162480000Y-104915500D02*
X156320000Y-111075500D01*
D50*
%TO.N,Net-(AUR1-FB)*%
X165540000Y-66132500D02*
X165540000Y-65090000D01*
X165540000Y-65090000D02*
X166080000Y-64550000D01*
X166060000Y-63217500D02*
X166080000Y-63237500D01*
X163650000Y-63217500D02*
X166060000Y-63217500D01*
X166080000Y-64550000D02*
X166080000Y-63237500D01*
D57*
%TO.N,Net-(AUR1-SW)*%
X160670000Y-65800000D02*
X161470000Y-65000000D01*
D52*
X163640000Y-65300000D02*
X163340000Y-65000000D01*
X163340000Y-65000000D02*
X162700000Y-65000000D01*
D57*
X160670000Y-66037500D02*
X160670000Y-65800000D01*
X161470000Y-65000000D02*
X162700000Y-65000000D01*
D52*
X163640000Y-66132500D02*
X163640000Y-65300000D01*
%TO.N,VIN*%
X164590000Y-69002500D02*
X164590000Y-70567500D01*
X163640000Y-70577500D02*
X165530000Y-70577500D01*
D55*
X135532500Y-72922500D02*
X134602500Y-72922500D01*
X135532500Y-72422500D02*
X134390000Y-72422500D01*
D52*
X163640000Y-70577500D02*
X163650000Y-70587500D01*
X164080000Y-71597500D02*
X167940000Y-71597500D01*
D55*
X134602500Y-72922500D02*
X134390000Y-72710000D01*
D52*
X165540000Y-69002500D02*
X165540000Y-70567500D01*
D55*
X134382500Y-72422500D02*
X131990000Y-70030000D01*
D52*
X157680000Y-75250000D02*
X157650000Y-75280000D01*
X166410000Y-75280000D02*
X165150000Y-75280000D01*
X163640000Y-69002500D02*
X163640000Y-70577500D01*
X168270000Y-71517500D02*
X168270000Y-73420000D01*
X165530000Y-70577500D02*
X165540000Y-70567500D01*
D55*
X131990000Y-70030000D02*
X131990000Y-69045000D01*
D52*
X157710000Y-75280000D02*
X157680000Y-75250000D01*
X163640000Y-71157500D02*
X164080000Y-71597500D01*
X168270000Y-73420000D02*
X166410000Y-75280000D01*
X157650000Y-75280000D02*
X155557500Y-75280000D01*
D50*
X165150000Y-73640000D02*
X165150000Y-75280000D01*
D55*
X134390000Y-72710000D02*
X134390000Y-72422500D01*
D52*
X165150000Y-75280000D02*
X157710000Y-75280000D01*
D55*
X134390000Y-72422500D02*
X134382500Y-72422500D01*
D52*
X163640000Y-70577500D02*
X163640000Y-71157500D01*
D50*
%TO.N,ADC_IN_IO04*%
X132530000Y-84822563D02*
X132530000Y-84580000D01*
X155076549Y-83130000D02*
X158514365Y-83130000D01*
X148710000Y-117780000D02*
X147650000Y-116720000D01*
X132530000Y-84580000D02*
X133470000Y-83640000D01*
X177370000Y-96815636D02*
X156405636Y-117780000D01*
X158514365Y-83130000D02*
X161184365Y-80460000D01*
X154566548Y-83640000D02*
X155076549Y-83130000D01*
X133470000Y-83640000D02*
X154566548Y-83640000D01*
X132490000Y-84870500D02*
X132490000Y-84862563D01*
X172395636Y-80460000D02*
X177370000Y-85434364D01*
X132490000Y-84862563D02*
X132530000Y-84822563D01*
X161184365Y-80460000D02*
X172395636Y-80460000D01*
X177370000Y-85434364D02*
X177370000Y-96815636D01*
X156405636Y-117780000D02*
X148710000Y-117780000D01*
%TO.N,CHIP_EN*%
X129230000Y-81360000D02*
X129230000Y-77010000D01*
X135760000Y-82500000D02*
X135170000Y-83090000D01*
X127950000Y-74290000D02*
X127920000Y-74140000D01*
X127920000Y-75700000D02*
X127920000Y-74140000D01*
X132555500Y-91030000D02*
X132335500Y-90810000D01*
X135760000Y-82500000D02*
X135760000Y-81105000D01*
X129230000Y-77010000D02*
X127920000Y-75700000D01*
X132940000Y-90645500D02*
X132940000Y-89780000D01*
X135170000Y-83090000D02*
X132460000Y-83090000D01*
X131220000Y-83350000D02*
X129230000Y-81360000D01*
X132460000Y-83090000D02*
X132200000Y-83350000D01*
X132200000Y-83350000D02*
X131220000Y-83350000D01*
X132335500Y-90810000D02*
X130185000Y-90810000D01*
X132555500Y-91030000D02*
X132940000Y-90645500D01*
X135760000Y-81105000D02*
X135780000Y-81085000D01*
D53*
%TO.N,Net-(ESP32S1-LNA_IN{slash}RF)*%
X126010000Y-102280000D02*
X124812500Y-102280000D01*
X124680000Y-104295000D02*
X124680000Y-102147500D01*
X124812500Y-102280000D02*
X124552500Y-102020000D01*
X124680000Y-102147500D02*
X124552500Y-102020000D01*
D50*
%TO.N,Net-(ESP32S1-GPIO16{slash}ADC2_CH5{slash}XTAL_32K_N)*%
X137790000Y-89390000D02*
X139100000Y-88080000D01*
X140730000Y-88080000D02*
X141640000Y-88990000D01*
X141640000Y-88990000D02*
X142620000Y-88990000D01*
X137790000Y-90010000D02*
X137790000Y-89390000D01*
X139100000Y-88080000D02*
X140730000Y-88080000D01*
%TO.N,VDD_SPI*%
X151005000Y-91790000D02*
X151005000Y-91215000D01*
X153365000Y-90335000D02*
X153420000Y-90280000D01*
X147180000Y-93430000D02*
X150885000Y-93430000D01*
X168630000Y-88830000D02*
X169680000Y-88830000D01*
X153475000Y-90335000D02*
X154775000Y-90335000D01*
X143290000Y-93050000D02*
X146800000Y-93050000D01*
X146800000Y-93050000D02*
X147180000Y-93430000D01*
X151005000Y-91215000D02*
X151885000Y-90335000D01*
X142360000Y-94170000D02*
X142360000Y-93980000D01*
X150935000Y-93480000D02*
X150935000Y-91860000D01*
X153420000Y-90280000D02*
X153475000Y-90335000D01*
X169680000Y-88830000D02*
X170090000Y-88420000D01*
X170090000Y-88420000D02*
X170090000Y-86660000D01*
X170090000Y-84435000D02*
X169895000Y-84240000D01*
X142360000Y-93980000D02*
X143290000Y-93050000D01*
X150935000Y-91860000D02*
X151005000Y-91790000D01*
X150885000Y-93430000D02*
X150935000Y-93480000D01*
X170090000Y-86660000D02*
X170090000Y-84435000D01*
X151885000Y-90335000D02*
X153365000Y-90335000D01*
%TO.N,Net-(ESP32S1-GPIO15{slash}ADC2_CH4{slash}XTAL_32K_P)*%
X137390000Y-92010000D02*
X137390000Y-92480000D01*
X147700000Y-89720000D02*
X147700000Y-87260000D01*
X137390000Y-92480000D02*
X137840000Y-92930000D01*
X145340000Y-87290000D02*
X147670000Y-87290000D01*
X140474364Y-92930000D02*
X141764364Y-91640000D01*
X137840000Y-92930000D02*
X140474364Y-92930000D01*
X141764364Y-91640000D02*
X145780000Y-91640000D01*
X145780000Y-91640000D02*
X147700000Y-89720000D01*
X147670000Y-87290000D02*
X147700000Y-87260000D01*
%TO.N,Net-(ESP32S1-XTAL_P)*%
X143220000Y-100010000D02*
X143730000Y-100520000D01*
X138056750Y-100010000D02*
X143220000Y-100010000D01*
X146855000Y-98250000D02*
X146820000Y-98285000D01*
X146750000Y-100520000D02*
X146820000Y-100590000D01*
X146820000Y-98285000D02*
X146820000Y-100590000D01*
X143730000Y-100520000D02*
X146750000Y-100520000D01*
X138013375Y-99966625D02*
X138056750Y-100010000D01*
%TO.N,Net-(ESP32S1-XTAL_N)*%
X141287182Y-100615000D02*
X137417563Y-100615000D01*
X136590000Y-101442563D02*
X136590000Y-101510000D01*
X145980000Y-104090000D02*
X144200000Y-102310000D01*
X144200000Y-102310000D02*
X142982182Y-102310000D01*
X148520000Y-104090000D02*
X145980000Y-104090000D01*
X137417563Y-100615000D02*
X136590000Y-101442563D01*
X142982182Y-102310000D02*
X141287182Y-100615000D01*
X148520000Y-104090000D02*
X148520000Y-105045000D01*
X148520000Y-102790000D02*
X148520000Y-104090000D01*
X148520000Y-105045000D02*
X148605000Y-105130000D01*
%TO.N,SPICS1*%
X166770000Y-85680000D02*
X168210000Y-84240000D01*
X166770000Y-87140000D02*
X166770000Y-85680000D01*
X168210000Y-84240000D02*
X168245000Y-84240000D01*
X167477818Y-91610000D02*
X170090000Y-91610000D01*
X166770000Y-87140000D02*
X166770000Y-90902182D01*
X166770000Y-90902182D02*
X167477818Y-91610000D01*
%TO.N,SPIQ*%
X161360000Y-90700000D02*
X161360000Y-90340000D01*
X161360000Y-90340000D02*
X161360000Y-89620000D01*
X161360000Y-89620000D02*
X161915000Y-89065000D01*
X171360000Y-92850000D02*
X170980000Y-93230000D01*
X170980000Y-93230000D02*
X168320000Y-93230000D01*
X158460000Y-96340000D02*
X143461091Y-96340000D01*
X164155000Y-89065000D02*
X162565000Y-89065000D01*
X161360000Y-90340000D02*
X161360000Y-93440000D01*
X168320000Y-93230000D02*
X164155000Y-89065000D01*
X161360000Y-91090000D02*
X161360000Y-90700000D01*
X161915000Y-89065000D02*
X162565000Y-89065000D01*
X161360000Y-93440000D02*
X158460000Y-96340000D01*
X171360000Y-91610000D02*
X171360000Y-92850000D01*
%TO.N,SPIWP*%
X145820000Y-93520000D02*
X143690000Y-93520000D01*
X143350000Y-93860000D02*
X143350000Y-94930000D01*
X143690000Y-93520000D02*
X143350000Y-93860000D01*
X146220000Y-93920000D02*
X145820000Y-93520000D01*
X172690000Y-91670000D02*
X172670000Y-93600000D01*
X172630000Y-91610000D02*
X172690000Y-91670000D01*
X164985000Y-87795000D02*
X162565000Y-87795000D01*
X165160000Y-87970000D02*
X164985000Y-87795000D01*
X172670000Y-93600000D02*
X172690000Y-93560000D01*
%TO.N,SPID*%
X173900000Y-85322182D02*
X171197818Y-82620000D01*
X154775000Y-85765000D02*
X154775000Y-86525000D01*
X146007818Y-92190000D02*
X151672818Y-86525000D01*
X166792182Y-82620000D02*
X164632182Y-84780000D01*
X151672818Y-86525000D02*
X154775000Y-86525000D01*
X140680000Y-95510000D02*
X140680000Y-93502182D01*
X142360000Y-96570000D02*
X141740000Y-96570000D01*
X164632182Y-84780000D02*
X155760000Y-84780000D01*
X141740000Y-96570000D02*
X140680000Y-95510000D01*
X141992182Y-92190000D02*
X146007818Y-92190000D01*
X171197818Y-82620000D02*
X166792182Y-82620000D01*
X140680000Y-93502182D02*
X141992182Y-92190000D01*
X155760000Y-84780000D02*
X154775000Y-85765000D01*
X173900000Y-86660000D02*
X173900000Y-85322182D01*
%TO.N,SPICLK*%
X164860000Y-85330000D02*
X156610000Y-85330000D01*
X145650000Y-95450000D02*
X154207818Y-95450000D01*
X145340000Y-95760000D02*
X145650000Y-95450000D01*
X167020000Y-83170000D02*
X164860000Y-85330000D01*
X156610000Y-85330000D02*
X156270000Y-85670000D01*
X154207818Y-95450000D02*
X156270000Y-93387818D01*
X156270000Y-85670000D02*
X156270000Y-90830000D01*
X156270000Y-87795000D02*
X154775000Y-87795000D01*
X170970000Y-83170000D02*
X167020000Y-83170000D01*
X144360000Y-95760000D02*
X145340000Y-95760000D01*
X172630000Y-86660000D02*
X172630000Y-84830000D01*
X156270000Y-93387818D02*
X156270000Y-90830000D01*
X172630000Y-84830000D02*
X170970000Y-83170000D01*
X156270000Y-91220000D02*
X156270000Y-90830000D01*
%TO.N,SPIHD*%
X155375000Y-89065000D02*
X154775000Y-89065000D01*
X155330000Y-92740000D02*
X155654000Y-92416000D01*
X145540000Y-94900000D02*
X153980000Y-94900000D01*
X167823366Y-89946634D02*
X169413366Y-89946634D01*
X171360000Y-88000000D02*
X171360000Y-86660000D01*
X169413366Y-89946634D02*
X171360000Y-88000000D01*
X155654000Y-89344000D02*
X155375000Y-89065000D01*
X145210000Y-94570000D02*
X145540000Y-94900000D01*
X155654000Y-92416000D02*
X155654000Y-89344000D01*
X153980000Y-94900000D02*
X155330000Y-93550000D01*
X144350000Y-94570000D02*
X145210000Y-94570000D01*
X155330000Y-93550000D02*
X155330000Y-92740000D01*
%TO.N,TXD0*%
X141797841Y-77538416D02*
X141797841Y-76942159D01*
X142505000Y-76245000D02*
X140682500Y-74422500D01*
X142457500Y-76282500D02*
X143022500Y-76282500D01*
X140682500Y-74422500D02*
X139407500Y-74422500D01*
X141797841Y-76942159D02*
X142457500Y-76282500D01*
X146570000Y-76035000D02*
X145715000Y-76035000D01*
X145715000Y-76035000D02*
X145350000Y-75670000D01*
X143060000Y-76245000D02*
X142505000Y-76245000D01*
%TO.N,Net-(ESP32S1-U0TXD{slash}PROG{slash}GPIO43)*%
X139275256Y-82005500D02*
X139574500Y-82005500D01*
X139574500Y-82005500D02*
X143240000Y-78340000D01*
X143240000Y-78340000D02*
X143240000Y-78015000D01*
%TO.N,ESP_GPIO0_BOOT-DTR*%
X131687500Y-82550000D02*
X131670000Y-82567500D01*
X136180000Y-105725000D02*
X136175000Y-105730000D01*
X132595000Y-92835000D02*
X128465000Y-92835000D01*
X128870000Y-75290000D02*
X129780000Y-76200000D01*
X131687500Y-82550000D02*
X131687500Y-81107500D01*
X129780000Y-81080000D02*
X131260000Y-82560000D01*
X136180000Y-104050000D02*
X136180000Y-103490000D01*
X128870000Y-75290000D02*
X128860000Y-75300000D01*
X135550000Y-104680000D02*
X136180000Y-105310000D01*
X129780000Y-76200000D02*
X129780000Y-81080000D01*
X131260000Y-82560000D02*
X131677500Y-82560000D01*
X128465000Y-92835000D02*
X128180000Y-92550000D01*
X134786116Y-94620000D02*
X134380000Y-94620000D01*
X134380000Y-94620000D02*
X132595000Y-92835000D01*
X135550000Y-104680000D02*
X136180000Y-104050000D01*
X131677500Y-82560000D02*
X131687500Y-82550000D01*
X136180000Y-105310000D02*
X136180000Y-105725000D01*
X131670000Y-82567500D02*
X131670000Y-82780000D01*
%TO.N,LED_G_IO02*%
X134140000Y-96340000D02*
X134490000Y-96690000D01*
X131930000Y-96340000D02*
X134140000Y-96340000D01*
%TO.N,LED_R_IO04*%
X135030000Y-108300000D02*
X132690000Y-108300000D01*
X132203010Y-102733010D02*
X132203010Y-102344808D01*
X135370000Y-99177818D02*
X135370000Y-96170000D01*
X133030000Y-95540000D02*
X132830000Y-95740000D01*
X132203010Y-102344808D02*
X135370000Y-99177818D01*
X135515000Y-108785000D02*
X135030000Y-108300000D01*
X135515000Y-109590000D02*
X135515000Y-108785000D01*
X134740000Y-95540000D02*
X133030000Y-95540000D01*
X132277966Y-107887966D02*
X132277966Y-107540000D01*
X135370000Y-96170000D02*
X134740000Y-95540000D01*
X132690000Y-108300000D02*
X132277966Y-107887966D01*
%TO.N,LED_B_IO05*%
X134170000Y-99600000D02*
X134170000Y-97610000D01*
X133500000Y-96940000D02*
X132830000Y-96940000D01*
X129640000Y-104130000D02*
X134170000Y-99600000D01*
X134170000Y-97610000D02*
X133500000Y-96940000D01*
%TO.N,GPIO8_I2C_SDA*%
X175520000Y-96420000D02*
X157360000Y-114580000D01*
X142815000Y-111260000D02*
X142500000Y-110945000D01*
X155182182Y-84580000D02*
X155532183Y-84230000D01*
X158070000Y-114560000D02*
X152690000Y-114560000D01*
X171870000Y-81490000D02*
X176230000Y-85850000D01*
X161710000Y-81490000D02*
X171870000Y-81490000D01*
X158970000Y-84230000D02*
X161710000Y-81490000D01*
X135254500Y-84580000D02*
X155182182Y-84580000D01*
X145530000Y-111260000D02*
X142815000Y-111260000D01*
X176230000Y-85850000D02*
X176230000Y-96400000D01*
X152690000Y-114560000D02*
X152740000Y-114630000D01*
X155532183Y-84230000D02*
X158970000Y-84230000D01*
X134990000Y-84844500D02*
X135254500Y-84580000D01*
%TO.N,GPIO9_I2C_SCL*%
X142230000Y-110050000D02*
X143930000Y-110050000D01*
X156857818Y-116550000D02*
X155330000Y-116550000D01*
X172137818Y-80980000D02*
X176780000Y-85622183D01*
X155330000Y-116550000D02*
X155310000Y-116530000D01*
X143930000Y-110050000D02*
X144640000Y-110760000D01*
X141050000Y-110050000D02*
X140800000Y-109800000D01*
X176780000Y-85622183D02*
X176780000Y-96627818D01*
X154924365Y-84060000D02*
X155304366Y-83680000D01*
X139825000Y-109800000D02*
X139660000Y-109635000D01*
X176780000Y-96627818D02*
X156857818Y-116550000D01*
X144640000Y-110760000D02*
X145530000Y-110760000D01*
X155304366Y-83680000D02*
X158742182Y-83680000D01*
X133700000Y-84890000D02*
X133700000Y-84570000D01*
X161442182Y-80980000D02*
X172137818Y-80980000D01*
X133700000Y-84570000D02*
X134210000Y-84060000D01*
X134210000Y-84060000D02*
X154924365Y-84060000D01*
X158742182Y-83680000D02*
X161442182Y-80980000D01*
X140800000Y-109800000D02*
X139825000Y-109800000D01*
X142230000Y-110050000D02*
X141050000Y-110050000D01*
%TO.N,DAC_CALIBRATION*%
X135870000Y-88770000D02*
X134500000Y-88770000D01*
X137222182Y-93090000D02*
X137702182Y-93570000D01*
X136580000Y-89480000D02*
X135870000Y-88770000D01*
X133850000Y-92322232D02*
X134617768Y-93090000D01*
X134617768Y-93090000D02*
X137222182Y-93090000D01*
X137702182Y-93570000D02*
X138010000Y-93570000D01*
X134500000Y-88770000D02*
X133850000Y-89420000D01*
X133850000Y-89420000D02*
X133850000Y-92322232D01*
X136580000Y-89990000D02*
X136580000Y-89480000D01*
%TO.N,USB_D-*%
X150960000Y-66936449D02*
X149958551Y-65935000D01*
X151960000Y-68020000D02*
X151720000Y-67780000D01*
X143992182Y-66960000D02*
X140675000Y-66960000D01*
X150960000Y-67760000D02*
X150960000Y-66936449D01*
X150960000Y-69195000D02*
X150960000Y-67760000D01*
X149958551Y-65935000D02*
X145017182Y-65935000D01*
X151720000Y-67780000D02*
X150980000Y-67780000D01*
X151960000Y-69195000D02*
X151960000Y-68020000D01*
X145017182Y-65935000D02*
X143992182Y-66960000D01*
X150980000Y-67780000D02*
X150960000Y-67760000D01*
%TO.N,USB_D+*%
X149730734Y-66485000D02*
X145245000Y-66485000D01*
X151290000Y-70480000D02*
X150660000Y-70480000D01*
X151460000Y-70310000D02*
X151290000Y-70480000D01*
X145245000Y-66485000D02*
X142950000Y-68780000D01*
X151460000Y-69195000D02*
X151460000Y-70310000D01*
X150460000Y-67214266D02*
X149730734Y-66485000D01*
X150460000Y-70280000D02*
X150460000Y-67214266D01*
X142950000Y-68780000D02*
X140675000Y-68780000D01*
X150660000Y-70480000D02*
X150460000Y-70280000D01*
%TO.N,IMU_CS_IO21*%
X142937818Y-108260000D02*
X144937818Y-110260000D01*
X144937818Y-110260000D02*
X145530000Y-110260000D01*
X141860000Y-108260000D02*
X142937818Y-108260000D01*
%TO.N,SPICS0*%
X141100000Y-93860000D02*
X141100000Y-94700000D01*
X162565000Y-90335000D02*
X163995000Y-90335000D01*
X151660000Y-88690000D02*
X150300000Y-88690000D01*
X141100000Y-94700000D02*
X141760000Y-95360000D01*
X150300000Y-88690000D02*
X146360000Y-92630000D01*
X146360000Y-92630000D02*
X142330000Y-92630000D01*
X141760000Y-95360000D02*
X142360000Y-95360000D01*
X163995000Y-90335000D02*
X164060000Y-90270000D01*
X142330000Y-92630000D02*
X141100000Y-93860000D01*
%TO.N,LCD2_RST_IO33*%
X142630000Y-103250000D02*
X140870000Y-101490000D01*
X140870000Y-101490000D02*
X140190000Y-101490000D01*
X143500000Y-103250000D02*
X142630000Y-103250000D01*
%TO.N,RXD0*%
X138184500Y-82880000D02*
X139690000Y-82880000D01*
X142302500Y-73922500D02*
X144190000Y-75810000D01*
X142515000Y-80055000D02*
X144480000Y-80055000D01*
X144190000Y-78380000D02*
X142450000Y-80120000D01*
X138070000Y-82765500D02*
X138184500Y-82880000D01*
X139690000Y-82880000D02*
X142515000Y-80055000D01*
X139407500Y-73922500D02*
X142302500Y-73922500D01*
X144190000Y-75810000D02*
X144190000Y-78380000D01*
%TO.N,unconnected-(IMU1-SDO{slash}SA0-Pad1)*%
X145705000Y-111935000D02*
X145705000Y-112805000D01*
X145705000Y-112805000D02*
X145700000Y-112810000D01*
%TO.N,unconnected-(IMU1-SDX-Pad2)*%
X146200000Y-112850000D02*
X146205000Y-112845000D01*
X146205000Y-111935000D02*
X146205000Y-112845000D01*
%TO.N,unconnected-(IMU1-SCX-Pad3)*%
X146705000Y-111935000D02*
X146705000Y-112895000D01*
X146705000Y-112895000D02*
X146700000Y-112900000D01*
%TO.N,unconnected-(IMU1-INT1-Pad4)*%
X147205000Y-112925000D02*
X147200000Y-112930000D01*
X147205000Y-111935000D02*
X147205000Y-112925000D01*
%TO.N,unconnected-(IMU1-INT2-Pad9)*%
X146705000Y-109585000D02*
X146705000Y-108805000D01*
%TO.N,unconnected-(IMU1-NC-Pad10)*%
X146205000Y-109585000D02*
X146205000Y-108735000D01*
%TO.N,unconnected-(IMU1-NC-Pad11)*%
X145705000Y-109585000D02*
X145705000Y-108715000D01*
%TO.N,Net-(J1-CC1)*%
X152480000Y-69245000D02*
X152480000Y-67070000D01*
X141945000Y-64485000D02*
X141945000Y-64170000D01*
X152480000Y-67070000D02*
X152490000Y-67060000D01*
X143050000Y-65590000D02*
X141945000Y-64485000D01*
X143090000Y-65590000D02*
X143050000Y-65590000D01*
%TO.N,Net-(J1-CC2)*%
X137765000Y-64605000D02*
X137765000Y-64150000D01*
X141407295Y-65510000D02*
X138670000Y-65510000D01*
X149480000Y-69245000D02*
X149480000Y-67770000D01*
X149480000Y-67770000D02*
X149580000Y-67670000D01*
X141455282Y-65462013D02*
X141407295Y-65510000D01*
X138670000Y-65510000D02*
X137765000Y-64605000D01*
D51*
%TO.N,Net-(J1-SHIELD-PadS1)*%
X146910000Y-64150000D02*
X146910000Y-63500000D01*
X145650000Y-62240000D02*
X143665000Y-62240000D01*
X146910000Y-63500000D02*
X145650000Y-62240000D01*
D50*
%TO.N,Net-(LED1-RA)*%
X132720000Y-109590000D02*
X132700000Y-109610000D01*
X132680000Y-109590000D02*
X132550000Y-109590000D01*
X133865000Y-109590000D02*
X132720000Y-109590000D01*
X132700000Y-109610000D02*
X132680000Y-109590000D01*
X132550000Y-109590000D02*
X132520000Y-109620000D01*
D53*
%TO.N,Net-(ANT1-Pad1)*%
X122427500Y-100630000D02*
X122427500Y-102020000D01*
X122427500Y-102020000D02*
X122330000Y-102117500D01*
X122330000Y-102117500D02*
X122330000Y-104325000D01*
D50*
%TO.N,Net-(U1-D+)*%
X137720000Y-69420000D02*
X138360000Y-68780000D01*
X138360000Y-68780000D02*
X139025000Y-68780000D01*
X137720000Y-71735000D02*
X137720000Y-69420000D01*
%TO.N,Net-(U1-D-)*%
X137220000Y-71735000D02*
X137220000Y-68250000D01*
X137220000Y-68250000D02*
X138510000Y-66960000D01*
X138510000Y-66960000D02*
X139025000Y-66960000D01*
%TO.N,Net-(PWR-LED1-K)*%
X170627500Y-74407500D02*
X170610000Y-74425000D01*
X171920000Y-74407500D02*
X170627500Y-74407500D01*
D52*
%TO.N,USB_VBUS*%
X152620000Y-75242500D02*
X152582500Y-75280000D01*
X153680000Y-70470000D02*
X153680000Y-69245000D01*
X152620000Y-71530000D02*
X153680000Y-70470000D01*
X148760000Y-69195000D02*
X148760000Y-70520000D01*
D51*
X150670000Y-75320000D02*
X152542500Y-75320000D01*
X152542500Y-75320000D02*
X152582500Y-75280000D01*
D52*
X152620000Y-71530000D02*
X152620000Y-75242500D01*
X148760000Y-70520000D02*
X149520000Y-71280000D01*
X152370000Y-71280000D02*
X152620000Y-71530000D01*
X149520000Y-71280000D02*
X152370000Y-71280000D01*
D55*
%TO.N,Net-(U1-V3)*%
X135411472Y-70530000D02*
X134570000Y-70530000D01*
X133850000Y-69035000D02*
X133840000Y-69025000D01*
X134570000Y-70530000D02*
X133850000Y-69810000D01*
X136220000Y-71338528D02*
X135411472Y-70530000D01*
X133850000Y-69810000D02*
X133850000Y-69035000D01*
X136220000Y-71735000D02*
X136220000Y-71338528D01*
D50*
%TO.N,CH-DTR*%
X130737500Y-78262500D02*
X130737500Y-79232500D01*
X136730000Y-78270000D02*
X136730000Y-79210000D01*
X138884283Y-77685956D02*
X138884283Y-77975717D01*
X131655000Y-77345000D02*
X131660000Y-77340000D01*
X131655000Y-77345000D02*
X130737500Y-78262500D01*
X139407500Y-72922500D02*
X140737500Y-72922500D01*
X138941456Y-77685956D02*
X139100000Y-77844500D01*
X138810000Y-78050000D02*
X136950000Y-78050000D01*
X138884283Y-77685956D02*
X138941456Y-77685956D01*
X140940000Y-72900000D02*
X140737500Y-72922500D01*
X140740000Y-72920000D02*
X140940000Y-72900000D01*
X138884283Y-77975717D02*
X138810000Y-78050000D01*
X136950000Y-78050000D02*
X136730000Y-78270000D01*
%TO.N,CH-RTS*%
X139900000Y-76950000D02*
X134360000Y-76950000D01*
X132810000Y-79060000D02*
X132637500Y-79232500D01*
X134680000Y-79060000D02*
X134830000Y-79210000D01*
X139407500Y-74922500D02*
X139932500Y-74922500D01*
X134080000Y-79060000D02*
X134680000Y-79060000D01*
X133750000Y-77560000D02*
X133750000Y-79060000D01*
X133750000Y-79060000D02*
X134080000Y-79060000D01*
X140510000Y-75500000D02*
X140510000Y-76340000D01*
X140510000Y-76340000D02*
X139900000Y-76950000D01*
X134080000Y-79060000D02*
X132810000Y-79060000D01*
X139932500Y-74922500D02*
X140510000Y-75500000D01*
X134360000Y-76950000D02*
X133750000Y-77560000D01*
%TO.N,unconnected-(U1-~{RI}-Pad1)*%
X138720000Y-71735000D02*
X138720000Y-70648000D01*
%TO.N,unconnected-(U1-~{RST}-Pad9)*%
X135532500Y-73422500D02*
X134128500Y-73422500D01*
%TO.N,unconnected-(U1-~{ACT}-Pad10)*%
X135532500Y-73922500D02*
X134120500Y-73922500D01*
%TO.N,unconnected-(U1-~{WAKEUP}{slash}GPIO3-Pad11)*%
X135532500Y-74422500D02*
X134112500Y-74422500D01*
X134112000Y-74422000D02*
X134112500Y-74422500D01*
%TO.N,unconnected-(U1-TNOW{slash}GPIO2-Pad12)*%
X135532500Y-74922500D02*
X134119500Y-74922500D01*
%TO.N,unconnected-(U1-RXS{slash}GPIO1-Pad13)*%
X136220000Y-75610000D02*
X136220000Y-76480000D01*
%TO.N,unconnected-(U1-TXS{slash}GPIO0-Pad14)*%
X136720000Y-75610000D02*
X136720000Y-76460000D01*
%TO.N,unconnected-(U1-~{SUSPEND}-Pad15)*%
X137220000Y-75610000D02*
X137220000Y-76390000D01*
%TO.N,unconnected-(U1-GPIO4-Pad16)*%
X137720000Y-75610000D02*
X137720000Y-76430000D01*
%TO.N,unconnected-(U1-SUSPEND-Pad17)*%
X138220000Y-75610000D02*
X138220000Y-76450000D01*
%TO.N,unconnected-(U1-~{CTS}-Pad18)*%
X138720000Y-75610000D02*
X138720000Y-76520000D01*
%TO.N,unconnected-(U1-~{DSR}-Pad22)*%
X139407500Y-73422500D02*
X140191500Y-73422500D01*
%TO.N,Net-(CH-RX-LED1-K)*%
X144480000Y-81705000D02*
X145665000Y-81705000D01*
X145665000Y-81705000D02*
X145920000Y-81960000D01*
%TO.N,Net-(CH-TX-RED1-K)*%
X146570000Y-77685000D02*
X146570000Y-77940000D01*
X146570000Y-77940000D02*
X147470000Y-78840000D01*
D56*
%TO.N,Net-(E-VDD3-C2-Pad1)*%
X130780000Y-98970000D02*
X130840000Y-98970000D01*
X126785000Y-99925000D02*
X127210000Y-100350000D01*
X127210000Y-100350000D02*
X129400000Y-100350000D01*
X126785000Y-99160000D02*
X126785000Y-99925000D01*
X126785000Y-98215000D02*
X126785000Y-99160000D01*
X126377500Y-97110000D02*
X126377500Y-97807500D01*
X130840000Y-98970000D02*
X131440000Y-98970000D01*
X126377500Y-97807500D02*
X126785000Y-98215000D01*
X129400000Y-100350000D02*
X130780000Y-98970000D01*
X131440000Y-98970000D02*
X131850000Y-98560000D01*
D51*
%TO.N,GND_SRAM*%
X173900000Y-91610000D02*
X173900000Y-93410000D01*
X173900000Y-93410000D02*
X174020000Y-93530000D01*
X173900000Y-91610000D02*
X173960000Y-91670000D01*
D50*
%TO.N,GND_FLASH*%
X162565000Y-86525000D02*
X162540000Y-86550000D01*
X159980000Y-92580000D02*
X158690000Y-91290000D01*
X162540000Y-86550000D02*
X160245000Y-86550000D01*
X158690000Y-91290000D02*
X158690000Y-88450000D01*
X158690000Y-88450000D02*
X158670000Y-88430000D01*
%TD*%
%TA.AperFunction,Conductor*%
%TO.N,GND*%
G36*
X125433672Y-97650753D02*
G01*
X125472739Y-97707623D01*
X125502450Y-97797285D01*
X125590720Y-97940393D01*
X125620275Y-97969947D01*
X125649117Y-98015220D01*
X125663174Y-98053843D01*
X125664357Y-98057246D01*
X125688499Y-98130099D01*
X125697106Y-98147874D01*
X125739246Y-98211946D01*
X125741182Y-98214985D01*
X125781472Y-98280303D01*
X125793940Y-98295607D01*
X125794813Y-98296430D01*
X125794814Y-98296432D01*
X125849742Y-98348254D01*
X125852329Y-98350767D01*
X125906824Y-98405262D01*
X125936070Y-98451664D01*
X125942438Y-98506143D01*
X125924682Y-98558039D01*
X125897997Y-98601302D01*
X125844650Y-98762292D01*
X125834500Y-98861655D01*
X125834500Y-99458344D01*
X125844650Y-99557707D01*
X125897997Y-99718699D01*
X125987031Y-99863044D01*
X125992554Y-99868567D01*
X126017252Y-99903836D01*
X126028400Y-99945425D01*
X126029027Y-99952581D01*
X126029500Y-99963404D01*
X126029500Y-99969004D01*
X126033121Y-99999993D01*
X126033487Y-100003575D01*
X126040175Y-100080016D01*
X126044447Y-100099282D01*
X126070674Y-100171342D01*
X126071857Y-100174746D01*
X126095999Y-100247599D01*
X126104606Y-100265374D01*
X126146746Y-100329446D01*
X126148682Y-100332485D01*
X126188972Y-100397803D01*
X126201440Y-100413107D01*
X126257242Y-100465754D01*
X126259829Y-100468267D01*
X126630472Y-100838910D01*
X126642248Y-100852535D01*
X126656728Y-100871985D01*
X126694976Y-100904079D01*
X126702940Y-100911378D01*
X126706896Y-100915335D01*
X126731374Y-100934689D01*
X126734166Y-100936963D01*
X126745722Y-100946660D01*
X126792942Y-100986282D01*
X126809586Y-100996886D01*
X126879130Y-101029315D01*
X126882370Y-101030884D01*
X126949845Y-101064771D01*
X126949846Y-101064771D01*
X126950927Y-101065314D01*
X126969562Y-101071791D01*
X126970744Y-101072035D01*
X127044692Y-101087304D01*
X127048171Y-101088074D01*
X127121695Y-101105500D01*
X127121699Y-101105500D01*
X127122872Y-101105778D01*
X127142497Y-101107783D01*
X127143701Y-101107747D01*
X127143706Y-101107749D01*
X127217352Y-101105605D01*
X127219208Y-101105552D01*
X127222814Y-101105500D01*
X128674946Y-101105500D01*
X128737095Y-101122199D01*
X128782504Y-101167798D01*
X128798944Y-101230014D01*
X128798681Y-101293552D01*
X128787012Y-104103091D01*
X128786334Y-104115531D01*
X128784814Y-104129999D01*
X128786115Y-104142383D01*
X128786793Y-104155854D01*
X128775416Y-106895670D01*
X128758490Y-106957696D01*
X128712779Y-107002908D01*
X128650572Y-107019152D01*
X120534148Y-106963811D01*
X120472581Y-106946962D01*
X120427552Y-106901721D01*
X120410993Y-106840077D01*
X120397761Y-100550160D01*
X120414129Y-100488328D01*
X120459139Y-100442878D01*
X120520810Y-100425908D01*
X121405538Y-100419155D01*
X121471658Y-100437660D01*
X121517795Y-100488509D01*
X121529805Y-100556111D01*
X121522040Y-100629998D01*
X121541826Y-100818257D01*
X121600320Y-100998284D01*
X121694966Y-101162215D01*
X121707739Y-101176401D01*
X121736412Y-101231479D01*
X121734787Y-101293552D01*
X121703272Y-101347054D01*
X121660721Y-101389605D01*
X121572450Y-101532714D01*
X121519563Y-101692314D01*
X121509500Y-101790826D01*
X121509500Y-102649174D01*
X121519563Y-102747685D01*
X121572451Y-102907289D01*
X121651038Y-103034697D01*
X121669500Y-103099794D01*
X121669500Y-103433126D01*
X121660061Y-103480579D01*
X121633181Y-103520808D01*
X121626958Y-103527030D01*
X121626956Y-103527032D01*
X121570104Y-103583883D01*
X121507029Y-103646958D01*
X121417997Y-103791300D01*
X121364650Y-103952292D01*
X121354500Y-104051655D01*
X121354500Y-104598344D01*
X121364650Y-104697707D01*
X121417997Y-104858699D01*
X121507031Y-105003044D01*
X121626955Y-105122968D01*
X121771300Y-105212002D01*
X121771302Y-105212002D01*
X121771303Y-105212003D01*
X121932292Y-105265349D01*
X122031655Y-105275500D01*
X122628344Y-105275499D01*
X122727708Y-105265349D01*
X122888697Y-105212003D01*
X123033044Y-105122968D01*
X123152968Y-105003044D01*
X123242003Y-104858697D01*
X123295349Y-104697708D01*
X123305500Y-104598345D01*
X123305499Y-104051656D01*
X123295349Y-103952292D01*
X123242003Y-103791303D01*
X123242002Y-103791302D01*
X123242002Y-103791300D01*
X123152970Y-103646958D01*
X123122968Y-103616956D01*
X123033044Y-103527032D01*
X123033041Y-103527030D01*
X123026819Y-103520808D01*
X122999939Y-103480579D01*
X122990500Y-103433126D01*
X122990500Y-103315521D01*
X123006223Y-103255089D01*
X123049402Y-103209983D01*
X123115391Y-103169281D01*
X123234281Y-103050391D01*
X123322549Y-102907287D01*
X123375436Y-102747685D01*
X123385500Y-102649174D01*
X123634500Y-102649174D01*
X123644563Y-102747685D01*
X123697450Y-102907285D01*
X123785720Y-103050393D01*
X123904607Y-103169280D01*
X123904609Y-103169281D01*
X123960596Y-103203814D01*
X124003777Y-103248921D01*
X124019500Y-103309353D01*
X124019500Y-103403126D01*
X124010061Y-103450579D01*
X123983181Y-103490808D01*
X123976958Y-103497030D01*
X123976956Y-103497032D01*
X123946956Y-103527032D01*
X123857029Y-103616958D01*
X123767997Y-103761300D01*
X123714650Y-103922292D01*
X123704500Y-104021655D01*
X123704500Y-104568344D01*
X123714650Y-104667707D01*
X123767997Y-104828699D01*
X123857031Y-104973044D01*
X123976955Y-105092968D01*
X124121300Y-105182002D01*
X124121302Y-105182002D01*
X124121303Y-105182003D01*
X124282292Y-105235349D01*
X124381655Y-105245500D01*
X124978344Y-105245499D01*
X125077708Y-105235349D01*
X125238697Y-105182003D01*
X125383044Y-105092968D01*
X125502968Y-104973044D01*
X125566149Y-104870612D01*
X125592002Y-104828699D01*
X125612936Y-104765526D01*
X125645349Y-104667708D01*
X125655500Y-104568345D01*
X125655499Y-104021656D01*
X125648413Y-103952292D01*
X125645349Y-103922292D01*
X125592002Y-103761300D01*
X125502970Y-103616958D01*
X125502968Y-103616956D01*
X125383044Y-103497032D01*
X125383041Y-103497030D01*
X125376819Y-103490808D01*
X125349939Y-103450579D01*
X125340500Y-103403126D01*
X125340500Y-103150023D01*
X125358773Y-103085233D01*
X125408205Y-103039538D01*
X125474228Y-103026405D01*
X125537385Y-103049705D01*
X125557269Y-103064151D01*
X125730197Y-103141144D01*
X125915352Y-103180500D01*
X125915354Y-103180500D01*
X126104646Y-103180500D01*
X126104648Y-103180500D01*
X126248030Y-103150023D01*
X126289803Y-103141144D01*
X126462730Y-103064151D01*
X126514683Y-103026405D01*
X126615870Y-102952889D01*
X126742533Y-102812216D01*
X126837179Y-102648284D01*
X126837178Y-102648284D01*
X126895674Y-102468256D01*
X126915460Y-102280000D01*
X126895674Y-102091744D01*
X126837179Y-101911716D01*
X126837179Y-101911715D01*
X126742533Y-101747783D01*
X126615870Y-101607110D01*
X126462730Y-101495848D01*
X126289802Y-101418855D01*
X126104648Y-101379500D01*
X126104646Y-101379500D01*
X125915354Y-101379500D01*
X125915352Y-101379500D01*
X125730199Y-101418854D01*
X125552401Y-101498016D01*
X125494516Y-101508512D01*
X125438307Y-101491148D01*
X125396427Y-101449832D01*
X125359280Y-101389607D01*
X125240393Y-101270720D01*
X125097285Y-101182450D01*
X124937685Y-101129563D01*
X124839174Y-101119500D01*
X124305826Y-101119500D01*
X124207314Y-101129563D01*
X124047714Y-101182450D01*
X123904606Y-101270720D01*
X123785720Y-101389606D01*
X123697450Y-101532714D01*
X123644563Y-101692314D01*
X123634500Y-101790826D01*
X123634500Y-102649174D01*
X123385500Y-102649174D01*
X123385500Y-101790826D01*
X123375436Y-101692315D01*
X123322549Y-101532713D01*
X123234281Y-101389609D01*
X123234280Y-101389608D01*
X123234279Y-101389606D01*
X123170680Y-101326007D01*
X123139162Y-101272496D01*
X123137543Y-101210414D01*
X123156015Y-101174945D01*
X123153517Y-101173503D01*
X123254679Y-100998284D01*
X123281631Y-100915335D01*
X123313174Y-100818256D01*
X123332960Y-100630000D01*
X123323556Y-100540532D01*
X123335288Y-100473501D01*
X123380633Y-100422753D01*
X123445928Y-100403579D01*
X125224900Y-100390000D01*
X125231033Y-97746336D01*
X125250382Y-97680112D01*
X125302131Y-97634478D01*
X125370259Y-97623565D01*
X125433672Y-97650753D01*
G37*
%TD.AperFunction*%
%TA.AperFunction,Conductor*%
G36*
X127690008Y-97935207D02*
G01*
X127741435Y-97966108D01*
X127834606Y-98059279D01*
X127834608Y-98059280D01*
X127834609Y-98059281D01*
X127977713Y-98147549D01*
X128048477Y-98170998D01*
X128137314Y-98200436D01*
X128235826Y-98210500D01*
X128686968Y-98210500D01*
X128749117Y-98227199D01*
X128794526Y-98272798D01*
X128810967Y-98335015D01*
X128810041Y-98558039D01*
X128806303Y-99458344D01*
X128806250Y-99471015D01*
X128789466Y-99532797D01*
X128744102Y-99577973D01*
X128682251Y-99594500D01*
X127858904Y-99594500D01*
X127793299Y-99575723D01*
X127747562Y-99525080D01*
X127736754Y-99464662D01*
X127735500Y-99464662D01*
X127735499Y-98861655D01*
X127725349Y-98762292D01*
X127672002Y-98601300D01*
X127582968Y-98456955D01*
X127576819Y-98450806D01*
X127549939Y-98410578D01*
X127540500Y-98363125D01*
X127540500Y-98279070D01*
X127541809Y-98261100D01*
X127542302Y-98257728D01*
X127545321Y-98237123D01*
X127540972Y-98187414D01*
X127540500Y-98176607D01*
X127540500Y-98170999D01*
X127540500Y-98170998D01*
X127536867Y-98139920D01*
X127536512Y-98136446D01*
X127530226Y-98064593D01*
X127539612Y-98005338D01*
X127575718Y-97957423D01*
X127630094Y-97932067D01*
X127690008Y-97935207D01*
G37*
%TD.AperFunction*%
%TA.AperFunction,Conductor*%
G36*
X127292835Y-92324460D02*
G01*
X127328603Y-92373152D01*
X127337116Y-92432965D01*
X127324815Y-92549999D01*
X127343503Y-92727804D01*
X127398749Y-92897835D01*
X127488140Y-93052665D01*
X127607771Y-93185527D01*
X127752403Y-93290610D01*
X127752406Y-93290611D01*
X127752407Y-93290612D01*
X127861291Y-93339090D01*
X127915735Y-93363330D01*
X128090607Y-93400500D01*
X128090609Y-93400500D01*
X128269390Y-93400500D01*
X128269391Y-93400500D01*
X128279887Y-93398268D01*
X128321851Y-93396620D01*
X128427280Y-93410500D01*
X128427282Y-93410500D01*
X128435333Y-93411560D01*
X128435345Y-93411561D01*
X128465000Y-93415465D01*
X128494655Y-93411560D01*
X128510840Y-93410500D01*
X128706902Y-93410500D01*
X128769051Y-93427199D01*
X128814460Y-93472798D01*
X128830900Y-93535014D01*
X128830222Y-93698381D01*
X128821807Y-95724522D01*
X128808105Y-95780669D01*
X128770443Y-95824506D01*
X128717002Y-95846512D01*
X128659392Y-95841906D01*
X128610127Y-95811688D01*
X127861818Y-95063379D01*
X127834938Y-95023151D01*
X127825499Y-94975702D01*
X127825499Y-94421656D01*
X127815349Y-94322292D01*
X127762003Y-94161303D01*
X127762002Y-94161302D01*
X127762002Y-94161300D01*
X127672968Y-94016955D01*
X127553044Y-93897031D01*
X127408699Y-93807997D01*
X127247707Y-93754650D01*
X127148345Y-93744500D01*
X126859300Y-93744500D01*
X126811847Y-93735061D01*
X126771619Y-93708181D01*
X126761819Y-93698381D01*
X126734939Y-93658153D01*
X126725500Y-93610700D01*
X126725500Y-92784300D01*
X126734939Y-92736847D01*
X126761819Y-92696619D01*
X126908439Y-92549999D01*
X127126116Y-92332321D01*
X127177955Y-92301296D01*
X127238304Y-92298450D01*
X127292835Y-92324460D01*
G37*
%TD.AperFunction*%
%TA.AperFunction,Conductor*%
G36*
X128793283Y-87592199D02*
G01*
X128838692Y-87637798D01*
X128855132Y-87700013D01*
X128852523Y-88328181D01*
X128847860Y-89451015D01*
X128831076Y-89512797D01*
X128785712Y-89557973D01*
X128723861Y-89574500D01*
X128328383Y-89574500D01*
X128257806Y-89580913D01*
X128176598Y-89606218D01*
X128095394Y-89631522D01*
X128095392Y-89631522D01*
X128095392Y-89631523D01*
X127949813Y-89719528D01*
X127829528Y-89839813D01*
X127741523Y-89985392D01*
X127741522Y-89985394D01*
X127707884Y-90093341D01*
X127669461Y-90151225D01*
X127605933Y-90179356D01*
X127537247Y-90168903D01*
X127484964Y-90123145D01*
X127465500Y-90056450D01*
X127465500Y-87699500D01*
X127482113Y-87637500D01*
X127527500Y-87592113D01*
X127589500Y-87575500D01*
X128731134Y-87575500D01*
X128793283Y-87592199D01*
G37*
%TD.AperFunction*%
%TA.AperFunction,Conductor*%
G36*
X128751793Y-82938608D02*
G01*
X128813344Y-82955770D01*
X128858179Y-83001303D01*
X128874388Y-83063115D01*
X128869585Y-84219866D01*
X128862437Y-85941017D01*
X128845654Y-86002797D01*
X128800290Y-86047973D01*
X128738439Y-86064500D01*
X127814369Y-86064500D01*
X127748761Y-86045722D01*
X127703024Y-85995075D01*
X127691011Y-85927898D01*
X127694921Y-85889616D01*
X127700500Y-85835009D01*
X127700499Y-84784992D01*
X127689999Y-84682203D01*
X127666794Y-84612175D01*
X127660500Y-84573171D01*
X127660500Y-83818919D01*
X127678961Y-83753823D01*
X127684814Y-83744334D01*
X127739999Y-83577797D01*
X127750500Y-83475009D01*
X127750499Y-83052700D01*
X127767346Y-82990299D01*
X127813310Y-82944852D01*
X127875897Y-82928711D01*
X128751793Y-82938608D01*
G37*
%TD.AperFunction*%
%TD*%
%TA.AperFunction,NonConductor*%
G36*
X125626905Y-82903299D02*
G01*
X125688307Y-82920373D01*
X125733120Y-82965695D01*
X125749500Y-83027290D01*
X125749500Y-83475008D01*
X125760000Y-83577796D01*
X125815186Y-83744334D01*
X125907288Y-83893657D01*
X126040278Y-84026647D01*
X126069723Y-84073617D01*
X126075759Y-84128723D01*
X126057178Y-84180953D01*
X126017694Y-84219866D01*
X125981343Y-84242287D01*
X125857288Y-84366342D01*
X125765186Y-84515665D01*
X125710000Y-84682202D01*
X125699500Y-84784990D01*
X125699500Y-85835008D01*
X125710000Y-85937796D01*
X125765186Y-86104334D01*
X125857286Y-86253654D01*
X125857287Y-86253655D01*
X125857288Y-86253656D01*
X125918183Y-86314551D01*
X125945061Y-86354777D01*
X125954500Y-86402230D01*
X125954500Y-86794417D01*
X125954290Y-86801627D01*
X125950643Y-86864226D01*
X125952616Y-86875411D01*
X125954500Y-86896944D01*
X125954500Y-91315700D01*
X125945061Y-91363153D01*
X125918181Y-91403381D01*
X125481087Y-91840473D01*
X125467456Y-91852254D01*
X125442947Y-91870501D01*
X125379634Y-91894573D01*
X125313118Y-91881785D01*
X125263246Y-91835953D01*
X125244898Y-91770755D01*
X125254900Y-87460000D01*
X125254898Y-87459999D01*
X125254899Y-87459999D01*
X120492683Y-87414557D01*
X120431259Y-87397598D01*
X120386369Y-87352372D01*
X120369866Y-87290827D01*
X120360775Y-82969459D01*
X120377535Y-82906948D01*
X120423510Y-82861394D01*
X120486170Y-82845211D01*
X125626905Y-82903299D01*
G37*
%TD.AperFunction*%
%TA.AperFunction,NonConductor*%
G36*
X125400681Y-94493195D02*
G01*
X125449989Y-94523427D01*
X125890985Y-94964423D01*
X125915302Y-94998884D01*
X125926662Y-95039503D01*
X125934650Y-95117707D01*
X125987997Y-95278699D01*
X126077031Y-95423044D01*
X126196953Y-95542966D01*
X126229819Y-95563238D01*
X126270260Y-95603680D01*
X126278970Y-95617801D01*
X126291440Y-95633107D01*
X126347241Y-95685753D01*
X126349828Y-95688266D01*
X126459381Y-95797819D01*
X126489631Y-95847182D01*
X126494173Y-95904898D01*
X126472018Y-95958385D01*
X126427995Y-95995985D01*
X126371700Y-96009500D01*
X126110826Y-96009500D01*
X126012314Y-96019563D01*
X125852714Y-96072450D01*
X125709606Y-96160720D01*
X125590720Y-96279606D01*
X125502451Y-96422713D01*
X125475714Y-96503399D01*
X125436558Y-96560342D01*
X125373005Y-96587484D01*
X125304794Y-96576395D01*
X125253111Y-96530520D01*
X125234008Y-96464108D01*
X125238308Y-94610816D01*
X125251928Y-94554608D01*
X125289562Y-94510689D01*
X125343024Y-94488617D01*
X125400681Y-94493195D01*
G37*
%TD.AperFunction*%
%TA.AperFunction,NonConductor*%
G36*
X127477818Y-96835370D02*
G01*
X127527181Y-96865620D01*
X127528181Y-96866620D01*
X127555061Y-96906848D01*
X127564500Y-96954301D01*
X127564500Y-97539175D01*
X127572766Y-97620090D01*
X127564379Y-97679144D01*
X127529390Y-97727449D01*
X127475895Y-97753830D01*
X127416272Y-97752182D01*
X127364315Y-97722888D01*
X127347150Y-97706693D01*
X127316035Y-97659757D01*
X127308887Y-97603900D01*
X127315500Y-97539174D01*
X127315500Y-96953301D01*
X127329015Y-96897006D01*
X127366615Y-96852983D01*
X127420102Y-96830828D01*
X127477818Y-96835370D01*
G37*
%TD.AperFunction*%
M02*
