%TF.GenerationSoftware,KiCad,Pcbnew,7.0.1*%
%TF.CreationDate,2023-04-07T20:32:22+02:00*%
%TF.ProjectId,ESP32 S3 MCU Socket,45535033-3220-4533-9320-4d435520536f,rev?*%
%TF.SameCoordinates,Original*%
%TF.FileFunction,Copper,L2,Bot*%
%TF.FilePolarity,Positive*%
%FSLAX46Y46*%
G04 Gerber Fmt 4.6, Leading zero omitted, Abs format (unit mm)*
G04 Created by KiCad (PCBNEW 7.0.1) date 2023-04-07 20:32:22*
%MOMM*%
%LPD*%
G01*
G04 APERTURE LIST*
G04 Aperture macros list*
%AMRoundRect*
0 Rectangle with rounded corners*
0 $1 Rounding radius*
0 $2 $3 $4 $5 $6 $7 $8 $9 X,Y pos of 4 corners*
0 Add a 4 corners polygon primitive as box body*
4,1,4,$2,$3,$4,$5,$6,$7,$8,$9,$2,$3,0*
0 Add four circle primitives for the rounded corners*
1,1,$1+$1,$2,$3*
1,1,$1+$1,$4,$5*
1,1,$1+$1,$6,$7*
1,1,$1+$1,$8,$9*
0 Add four rect primitives between the rounded corners*
20,1,$1+$1,$2,$3,$4,$5,0*
20,1,$1+$1,$4,$5,$6,$7,0*
20,1,$1+$1,$6,$7,$8,$9,0*
20,1,$1+$1,$8,$9,$2,$3,0*%
G04 Aperture macros list end*
%TA.AperFunction,ComponentPad*%
%ADD10C,3.800000*%
%TD*%
%TA.AperFunction,ComponentPad*%
%ADD11O,1.000000X2.100000*%
%TD*%
%TA.AperFunction,ComponentPad*%
%ADD12O,1.000000X1.600000*%
%TD*%
%TA.AperFunction,SMDPad,CuDef*%
%ADD13RoundRect,0.037100X0.317900X0.227900X-0.317900X0.227900X-0.317900X-0.227900X0.317900X-0.227900X0*%
%TD*%
%TA.AperFunction,SMDPad,CuDef*%
%ADD14RoundRect,0.150000X0.150000X0.625000X-0.150000X0.625000X-0.150000X-0.625000X0.150000X-0.625000X0*%
%TD*%
%TA.AperFunction,SMDPad,CuDef*%
%ADD15RoundRect,0.250000X0.350000X0.650000X-0.350000X0.650000X-0.350000X-0.650000X0.350000X-0.650000X0*%
%TD*%
%TA.AperFunction,ComponentPad*%
%ADD16C,0.800000*%
%TD*%
%TA.AperFunction,SMDPad,CuDef*%
%ADD17R,2.100000X1.400000*%
%TD*%
%TA.AperFunction,SMDPad,CuDef*%
%ADD18R,0.300000X2.800000*%
%TD*%
%TA.AperFunction,SMDPad,CuDef*%
%ADD19RoundRect,0.150000X0.625000X-0.150000X0.625000X0.150000X-0.625000X0.150000X-0.625000X-0.150000X0*%
%TD*%
%TA.AperFunction,SMDPad,CuDef*%
%ADD20RoundRect,0.250000X0.650000X-0.350000X0.650000X0.350000X-0.650000X0.350000X-0.650000X-0.350000X0*%
%TD*%
%TA.AperFunction,SMDPad,CuDef*%
%ADD21RoundRect,0.243750X0.456250X-0.243750X0.456250X0.243750X-0.456250X0.243750X-0.456250X-0.243750X0*%
%TD*%
%TA.AperFunction,SMDPad,CuDef*%
%ADD22R,1.270000X0.760000*%
%TD*%
%TA.AperFunction,SMDPad,CuDef*%
%ADD23RoundRect,0.124800X0.475200X0.275200X-0.475200X0.275200X-0.475200X-0.275200X0.475200X-0.275200X0*%
%TD*%
%TA.AperFunction,SMDPad,CuDef*%
%ADD24RoundRect,0.243750X-0.243750X-0.456250X0.243750X-0.456250X0.243750X0.456250X-0.243750X0.456250X0*%
%TD*%
%TA.AperFunction,ViaPad*%
%ADD25C,0.800000*%
%TD*%
%TA.AperFunction,ViaPad*%
%ADD26C,0.600000*%
%TD*%
%TA.AperFunction,ViaPad*%
%ADD27C,0.700000*%
%TD*%
%TA.AperFunction,Conductor*%
%ADD28C,1.000000*%
%TD*%
%TA.AperFunction,Conductor*%
%ADD29C,0.300000*%
%TD*%
%TA.AperFunction,Conductor*%
%ADD30C,0.150000*%
%TD*%
%TA.AperFunction,Conductor*%
%ADD31C,0.510000*%
%TD*%
%TA.AperFunction,Conductor*%
%ADD32C,0.400000*%
%TD*%
%TA.AperFunction,Conductor*%
%ADD33C,0.250000*%
%TD*%
%TA.AperFunction,Conductor*%
%ADD34C,0.320000*%
%TD*%
G04 APERTURE END LIST*
D10*
%TO.P,REF\u002A\u002A,1*%
%TO.N,N/C*%
X174030000Y-66080000D03*
%TD*%
%TO.P,REF\u002A\u002A,1*%
%TO.N,N/C*%
X125440000Y-116470000D03*
%TD*%
D11*
%TO.P,J1,S1,SHIELD*%
%TO.N,Net-(J1-SHIELD-PadS1)*%
X155530000Y-68310000D03*
D12*
X155530000Y-64130000D03*
D11*
X146890000Y-68310000D03*
D12*
X146890000Y-64130000D03*
%TD*%
D10*
%TO.P,REF\u002A\u002A,1*%
%TO.N,N/C*%
X125450000Y-66040000D03*
%TD*%
%TO.P,REF\u002A\u002A,1*%
%TO.N,N/C*%
X173940000Y-116620000D03*
%TD*%
D13*
%TO.P,U3,1,NC*%
%TO.N,unconnected-(U3-NC-Pad1)*%
X138970000Y-114120000D03*
%TO.P,U3,2,VDD*%
%TO.N,3V3*%
X138970000Y-115120000D03*
%TO.P,U3,3,SCL*%
%TO.N,GPIO9_I2C_SCL*%
X138970000Y-116120000D03*
%TO.P,U3,4,SDA*%
%TO.N,GPIO8_I2C_SDA*%
X137000000Y-116120000D03*
%TO.P,U3,5,GND*%
%TO.N,GND*%
X137000000Y-115120000D03*
%TO.P,U3,6,NC*%
%TO.N,unconnected-(U3-NC-Pad6)*%
X137000000Y-114120000D03*
%TD*%
D14*
%TO.P,I2C_PLUG1,1,Pin_1*%
%TO.N,GND*%
X157320000Y-115100000D03*
%TO.P,I2C_PLUG1,2,Pin_2*%
%TO.N,3V3*%
X156320000Y-115100000D03*
%TO.P,I2C_PLUG1,3,Pin_3*%
%TO.N,GPIO9_I2C_SCL*%
X155320000Y-115100000D03*
%TO.P,I2C_PLUG1,4,Pin_4*%
%TO.N,GPIO8_I2C_SDA*%
X154320000Y-115100000D03*
D15*
%TO.P,I2C_PLUG1,MP*%
%TO.N,N/C*%
X158620000Y-118975000D03*
X153020000Y-118975000D03*
%TD*%
D14*
%TO.P,ExtSW1,1,Pin_1*%
%TO.N,ADC_IN_IO04*%
X147850000Y-115165000D03*
%TO.P,ExtSW1,2,Pin_2*%
%TO.N,GND*%
X146850000Y-115165000D03*
%TO.P,ExtSW1,3,Pin_3*%
%TO.N,3V3*%
X145850000Y-115165000D03*
D15*
%TO.P,ExtSW1,MP*%
%TO.N,N/C*%
X149150000Y-119040000D03*
X144550000Y-119040000D03*
%TD*%
D16*
%TO.P,ESP32S1,1,LNA_IN/RF*%
%TO.N,Net-(ESP32S1-LNA_IN{slash}RF)*%
X132820000Y-99370000D03*
%TO.P,ESP32S1,2,VDD3P3*%
%TO.N,Net-(E-VDD3-C2-Pad1)*%
X130820000Y-98970000D03*
%TO.P,ESP32S1,3,VDD3P3*%
X131830000Y-98560000D03*
%TO.P,ESP32S1,4,CHIP_PU/RESET*%
%TO.N,CHIP_EN*%
X132820000Y-98170000D03*
%TO.P,ESP32S1,5,GPIO0/BOOT*%
%TO.N,ESP_GPIO0_BOOT-DTR*%
X130820000Y-97770000D03*
%TO.P,ESP32S1,6,GPIO1/ADC1_CH0*%
%TO.N,BAT_SENSE_IO21*%
X131830000Y-97360000D03*
%TO.P,ESP32S1,7,GPIO2/ADC1_CH1*%
%TO.N,LED_B_IO05*%
X132820000Y-96960000D03*
%TO.P,ESP32S1,8,GPIO3/ADC1_CH2*%
%TO.N,GND*%
X130820000Y-96560000D03*
%TO.P,ESP32S1,9,GPIO4/ADC1_CH3*%
%TO.N,LED_G_IO02*%
X131820000Y-96160000D03*
%TO.P,ESP32S1,10,GPIO5/ADC1_CH4*%
%TO.N,LED_R_IO04*%
X132820000Y-95760000D03*
%TO.P,ESP32S1,11,GPIO6/ADC1_CH5*%
%TO.N,ADC_IN_IO04*%
X130820000Y-95360000D03*
%TO.P,ESP32S1,12,GPIO7/ADC1_CH6*%
%TO.N,VOLTAGE_REF_IO07*%
X131820000Y-94960000D03*
%TO.P,ESP32S1,13,GPIO8/ADC1_CH7*%
%TO.N,GPIO8_I2C_SDA*%
X132820000Y-94570000D03*
%TO.P,ESP32S1,14,GPIO9/ADC1_CH8*%
%TO.N,GPIO9_I2C_SCL*%
X130820000Y-94170000D03*
%TO.P,ESP32S1,15,GPIO10/ADC1_CH9*%
%TO.N,STORAGE_CS_IO10*%
X134980000Y-92010000D03*
%TO.P,ESP32S1,16,GPIO11/ADC2_CH0*%
%TO.N,STORAGE_MOSI_SPID_IO11*%
X135380000Y-90010000D03*
%TO.P,ESP32S1,17,GPIO12/ADC2_CH1*%
%TO.N,FSPICLK_IO12*%
X135770000Y-91000000D03*
%TO.P,ESP32S1,18,GPIO13/ADC2_CH2*%
%TO.N,STORAGE_MISO_SPIQ_IO13*%
X136180000Y-92010000D03*
%TO.P,ESP32S1,19,GPIO14/ADC2_CH3*%
%TO.N,DAC_CALIBRATION*%
X136570000Y-90010000D03*
%TO.P,ESP32S1,20,VDD3P3_RTC*%
%TO.N,3V3*%
X136970000Y-91000000D03*
%TO.P,ESP32S1,21,GPIO15/ADC2_CH4/XTAL_32K_P*%
%TO.N,Net-(ESP32S1-GPIO15{slash}ADC2_CH4{slash}XTAL_32K_P)*%
X137370000Y-92010000D03*
%TO.P,ESP32S1,22,GPIO16/ADC2_CH5/XTAL_32K_N*%
%TO.N,Net-(ESP32S1-GPIO16{slash}ADC2_CH5{slash}XTAL_32K_N)*%
X137770000Y-90010000D03*
%TO.P,ESP32S1,23,GPIO17/ADC2_CH6/DAC_2*%
%TO.N,STORAGE_2_CS_IO17*%
X138180000Y-91000000D03*
%TO.P,ESP32S1,24,GPIO18/ADC2_CH7/DAC_1*%
%TO.N,DAC_CALIBRATION*%
X138580000Y-92010000D03*
%TO.P,ESP32S1,25,GPIO19/USB_D-/ADC2_CH8*%
%TO.N,USB_D-*%
X138980000Y-90010000D03*
%TO.P,ESP32S1,26,GPIO20/USB_D+/ADC2_CH9*%
%TO.N,USB_D+*%
X139380000Y-91000000D03*
%TO.P,ESP32S1,27,GPIO21*%
%TO.N,IMU_CS_IO21*%
X139780000Y-92010000D03*
%TO.P,ESP32S1,28,SPI_CS1/GPIO26*%
%TO.N,SPICS1*%
X140180000Y-90010000D03*
%TO.P,ESP32S1,29,VDD_SPI*%
%TO.N,VDD_SPI*%
X142340000Y-94170000D03*
%TO.P,ESP32S1,30,SPIHD/GPIO27*%
%TO.N,SPIHD*%
X144330000Y-94570000D03*
%TO.P,ESP32S1,31,SPIWP/GPIO28*%
%TO.N,SPIWP*%
X143340000Y-94950000D03*
%TO.P,ESP32S1,32,SPICS0/GPIO29*%
%TO.N,SPICS0*%
X142340000Y-95360000D03*
%TO.P,ESP32S1,33,SPICLK/GPIO30*%
%TO.N,SPICLK*%
X144340000Y-95760000D03*
%TO.P,ESP32S1,34,SPIQ/GPIO31*%
%TO.N,SPIQ*%
X143350000Y-96160000D03*
%TO.P,ESP32S1,35,SPID/GPIO32*%
%TO.N,SPID*%
X142340000Y-96570000D03*
%TO.P,ESP32S1,36,SPICLK_N/GPIO48*%
%TO.N,unconnected-(ESP32S1-SPICLK_N{slash}GPIO48-Pad36)*%
X144350000Y-96960000D03*
%TO.P,ESP32S1,37,SPICLK_P/GPIO47*%
%TO.N,unconnected-(ESP32S1-SPICLK_P{slash}GPIO47-Pad37)*%
X143330000Y-97370000D03*
%TO.P,ESP32S1,38,GPIO33*%
%TO.N,TEMT6000_IO33*%
X142330000Y-97770000D03*
%TO.P,ESP32S1,39,GPIO34*%
%TO.N,PLUG_PWR_3V3_EN_IO38*%
X144330000Y-98170000D03*
%TO.P,ESP32S1,40,GPIO35*%
%TO.N,LCD2_LED_IO10*%
X143340000Y-98560000D03*
%TO.P,ESP32S1,41,GPIO36*%
%TO.N,LCD2_CS_IO12*%
X142330000Y-98960000D03*
%TO.P,ESP32S1,42,GPIO37*%
%TO.N,LCD2_DC_IO11*%
X144330000Y-99370000D03*
%TO.P,ESP32S1,43,GPIO38*%
%TO.N,LCD2_RST_IO33*%
X140180000Y-101510000D03*
%TO.P,ESP32S1,44,MTCK/JTAG/GPIO39*%
%TO.N,unconnected-(ESP32S1-MTCK{slash}JTAG{slash}GPIO39-Pad44)*%
X139780000Y-103510000D03*
%TO.P,ESP32S1,45,MTDO/JTAG/GPIO40*%
%TO.N,unconnected-(ESP32S1-MTDO{slash}JTAG{slash}GPIO40-Pad45)*%
X139370000Y-102500000D03*
%TO.P,ESP32S1,46,VDD3P3_CPU*%
%TO.N,3V3*%
X138580000Y-103510000D03*
%TO.P,ESP32S1,47,MTDI/JTAG/GPIO41*%
%TO.N,unconnected-(ESP32S1-MTDI{slash}JTAG{slash}GPIO41-Pad47)*%
X138980000Y-101510000D03*
%TO.P,ESP32S1,48,MTMS/JTAG/GPIO42*%
%TO.N,unconnected-(ESP32S1-MTMS{slash}JTAG{slash}GPIO42-Pad48)*%
X138170000Y-102500000D03*
%TO.P,ESP32S1,49,U0TXD/PROG/GPIO43*%
%TO.N,Net-(ESP32S1-U0TXD{slash}PROG{slash}GPIO43)*%
X137370000Y-103510000D03*
%TO.P,ESP32S1,50,U0RXD/PROG/GPIO44*%
%TO.N,RXD0*%
X137770000Y-101510000D03*
%TO.P,ESP32S1,51,GPIO45*%
%TO.N,GND*%
X136960000Y-102500000D03*
%TO.P,ESP32S1,52,GPIO46*%
%TO.N,ESP_GPIO0_BOOT-DTR*%
X136170000Y-103510000D03*
%TO.P,ESP32S1,53,XTAL_N*%
%TO.N,Net-(ESP32S1-XTAL_N)*%
X136570000Y-101510000D03*
%TO.P,ESP32S1,54,XTAL_P*%
%TO.N,Net-(ESP32S1-XTAL_P)*%
X135760000Y-102500000D03*
%TO.P,ESP32S1,55,VDDA*%
%TO.N,3V3*%
X135380000Y-101510000D03*
%TO.P,ESP32S1,56,VDDA*%
X134980000Y-103510000D03*
%TD*%
D17*
%TO.P,ANT1,1,1*%
%TO.N,Net-(ANT1-Pad1)*%
X122430000Y-99020000D03*
%TO.P,ANT1,2,2*%
%TO.N,unconnected-(ANT1-Pad2)*%
X122430000Y-89520000D03*
%TD*%
D18*
%TO.P,LCD1,1,Pin_1*%
%TO.N,GND*%
X160705000Y-102595000D03*
%TO.P,LCD1,2,Pin_2*%
X161415000Y-102600000D03*
%TO.P,LCD1,3,Pin_3*%
%TO.N,3V3*%
X162125000Y-102600000D03*
%TO.P,LCD1,4,Pin_4*%
X162835000Y-102595000D03*
%TO.P,LCD1,5,Pin_5*%
%TO.N,GND*%
X163545000Y-102600000D03*
%TO.P,LCD1,6,Pin_6*%
X164260000Y-102595000D03*
%TO.P,LCD1,7,Pin_7*%
%TO.N,LCD2_DC_IO11*%
X164970000Y-102595000D03*
%TO.P,LCD1,8,Pin_8*%
%TO.N,LCD2_CS_IO12*%
X165680000Y-102595000D03*
%TO.P,LCD1,9,Pin_9*%
%TO.N,unconnected-(LCD1-Pin_9-Pad9)*%
X166390000Y-102590000D03*
%TO.P,LCD1,10,Pin_10*%
%TO.N,unconnected-(LCD1-Pin_10-Pad10)*%
X167100000Y-102595000D03*
%TO.P,LCD1,11,Pin_11*%
%TO.N,LCD2_RST_IO33*%
X167810000Y-102595000D03*
%TO.P,LCD1,12,Pin_12*%
%TO.N,GND*%
X168520000Y-102595000D03*
%TD*%
D19*
%TO.P,J2,1,Pin_1*%
%TO.N,GND*%
X126130000Y-80350000D03*
%TO.P,J2,2,Pin_2*%
%TO.N,USB_VBUS*%
X126130000Y-79350000D03*
%TO.P,J2,3,Pin_3*%
%TO.N,3V3*%
X126130000Y-78350000D03*
%TO.P,J2,4,Pin_4*%
%TO.N,TXD0*%
X126130000Y-77350000D03*
%TO.P,J2,5,Pin_5*%
%TO.N,RXD0*%
X126130000Y-76350000D03*
%TO.P,J2,6,Pin_6*%
%TO.N,ESP_GPIO0_BOOT-DTR*%
X126130000Y-75350000D03*
%TO.P,J2,7,Pin_7*%
%TO.N,CHIP_EN*%
X126130000Y-74350000D03*
D20*
%TO.P,J2,MP*%
%TO.N,N/C*%
X122255000Y-81650000D03*
X122255000Y-73050000D03*
%TD*%
D21*
%TO.P,PWR-LED1,1,K*%
%TO.N,Net-(PWR-LED1-K)*%
X173370000Y-74417500D03*
%TO.P,PWR-LED1,2,A*%
%TO.N,3V3*%
X173370000Y-72542500D03*
%TD*%
%TO.P,CH-TX-RED1,1,K*%
%TO.N,Net-(CH-TX-RED1-K)*%
X148650000Y-77657500D03*
%TO.P,CH-TX-RED1,2,A*%
%TO.N,USB_VBUS*%
X148650000Y-75782500D03*
%TD*%
D22*
%TO.P,SW1,1*%
%TO.N,GND*%
X161480000Y-117615000D03*
%TO.P,SW1,2*%
X161480000Y-116345000D03*
%TO.P,SW1,3*%
%TO.N,GND_SRAM*%
X169100000Y-116345000D03*
%TO.P,SW1,4*%
%TO.N,GND_FLASH*%
X169100000Y-117615000D03*
%TD*%
D23*
%TO.P,LED1,1,GA*%
%TO.N,LED_G_IO02*%
X131240000Y-110750000D03*
%TO.P,LED1,2,BA*%
%TO.N,LED_B_IO05*%
X128060000Y-110760000D03*
%TO.P,LED1,3,RA*%
%TO.N,Net-(LED1-RA)*%
X131240000Y-109610000D03*
%TO.P,LED1,4,K*%
%TO.N,3V3*%
X128050000Y-109640000D03*
%TD*%
D24*
%TO.P,CH-RX-LED1,1,K*%
%TO.N,Net-(CH-RX-LED1-K)*%
X146610000Y-80410000D03*
%TO.P,CH-RX-LED1,2,A*%
%TO.N,USB_VBUS*%
X148485000Y-80410000D03*
%TD*%
D25*
%TO.N,GND*%
X140650000Y-64150000D03*
X155660000Y-71240000D03*
X162230000Y-82540000D03*
D26*
X140991635Y-97058365D03*
D27*
X144980000Y-64170000D03*
D25*
X131530000Y-112970000D03*
D26*
X140850000Y-102760000D03*
D25*
X142980000Y-107420000D03*
X142300000Y-72850000D03*
D27*
X145260000Y-101320000D03*
X138200000Y-107380000D03*
D25*
X127105645Y-93105645D03*
D27*
X145260000Y-85710000D03*
X145250000Y-90620000D03*
D25*
X137470000Y-73672500D03*
X168280000Y-67767500D03*
X146790000Y-71280000D03*
D26*
X146430000Y-110770000D03*
D25*
X129650000Y-84270000D03*
D27*
X127764500Y-87860000D03*
X149410000Y-108210000D03*
D25*
X168440000Y-99490000D03*
X153900000Y-93460000D03*
X126780000Y-105870000D03*
X150170000Y-99200000D03*
D27*
X141060000Y-86350000D03*
D25*
X133830000Y-65820000D03*
X162080000Y-73990000D03*
D26*
X137710000Y-97790000D03*
X139470000Y-93660000D03*
D25*
%TO.N,3V3*%
X160130000Y-70290000D03*
X145840000Y-113570000D03*
X138030000Y-117910000D03*
X174910000Y-96210000D03*
X162480000Y-104915500D03*
X128020000Y-80990000D03*
X133350000Y-112370000D03*
X175450000Y-73660000D03*
D27*
X156300000Y-112990000D03*
D25*
X136270000Y-70030000D03*
%TO.N,VIN*%
X133195000Y-71235000D03*
X157680000Y-75250000D03*
D27*
%TO.N,ADC_IN_IO04*%
X132490000Y-84870500D03*
D25*
X147700000Y-116870000D03*
%TO.N,CHIP_EN*%
X127920000Y-74140000D03*
D26*
X132555500Y-91030000D03*
D27*
X135760000Y-82500000D03*
D25*
%TO.N,Net-(ESP32S1-LNA_IN{slash}RF)*%
X126010000Y-102280000D03*
%TO.N,VDD_SPI*%
X153420000Y-90280000D03*
X168630000Y-88830000D03*
D26*
%TO.N,Net-(ESP32S1-XTAL_P)*%
X138013375Y-99966625D03*
D25*
%TO.N,SPICS1*%
X166770000Y-87140000D03*
%TO.N,SPIWP*%
X172670000Y-93600000D03*
X165160000Y-87970000D03*
D27*
X146220000Y-93920000D03*
D25*
%TO.N,SPIHD*%
X167823366Y-89946634D03*
X155330000Y-92740000D03*
%TO.N,TXD0*%
X141797841Y-77538416D03*
X145350000Y-75670000D03*
D27*
%TO.N,Net-(ESP32S1-U0TXD{slash}PROG{slash}GPIO43)*%
X139275256Y-82005500D03*
%TO.N,ESP_GPIO0_BOOT-DTR*%
X131687500Y-82550000D03*
X134786116Y-94620000D03*
D25*
X128870000Y-75290000D03*
D27*
X135550000Y-104680000D03*
X128180000Y-92550000D03*
%TO.N,LED_G_IO02*%
X134504240Y-96470260D03*
%TO.N,LED_R_IO04*%
X132253983Y-107516017D03*
X132203010Y-102733010D03*
%TO.N,LED_B_IO05*%
X129640000Y-104130000D03*
%TO.N,GPIO8_I2C_SDA*%
X143820000Y-111350000D03*
X152690000Y-114560000D03*
X134990000Y-84844500D03*
%TO.N,GPIO9_I2C_SCL*%
X142230000Y-110050000D03*
X133700000Y-84890000D03*
X155330000Y-116690000D03*
D26*
%TO.N,DAC_CALIBRATION*%
X138010000Y-93570000D03*
D27*
%TO.N,IMU_CS_IO21*%
X141860000Y-108260000D03*
D25*
%TO.N,SPICS0*%
X164060000Y-90270000D03*
X151660000Y-88690000D03*
D27*
%TO.N,LCD2_RST_IO33*%
X143700000Y-103160000D03*
D25*
%TO.N,RXD0*%
X142950000Y-74800000D03*
D27*
X138070000Y-82765500D03*
%TO.N,Net-(J1-CC1)*%
X143090000Y-65590000D03*
D25*
X152490000Y-67060000D03*
%TO.N,Net-(J1-CC2)*%
X149580000Y-67670000D03*
X141455282Y-65462013D03*
%TO.N,Net-(LED1-RA)*%
X132700000Y-109610000D03*
%TO.N,Net-(ANT1-Pad1)*%
X122427500Y-100630000D03*
%TO.N,Net-(PWR-LED1-K)*%
X171740000Y-74400000D03*
%TO.N,USB_VBUS*%
X152660000Y-72230000D03*
X150670000Y-75320000D03*
%TO.N,CH-DTR*%
X131655000Y-77345000D03*
X138884283Y-77685956D03*
X140940000Y-72900000D03*
%TO.N,Net-(CH-RX-LED1-K)*%
X145920000Y-81960000D03*
%TO.N,Net-(CH-TX-RED1-K)*%
X147470000Y-78840000D03*
%TO.N,GND_SRAM*%
X174020000Y-93530000D03*
%TO.N,GND_FLASH*%
X159980000Y-92580000D03*
%TD*%
D28*
%TO.N,*%
X122120000Y-81630000D02*
X122120000Y-73030000D01*
X158520000Y-119040000D02*
X158600000Y-118960000D01*
X144550000Y-119040000D02*
X158520000Y-119040000D01*
D29*
%TO.N,GND*%
X146670000Y-75720000D02*
X146670000Y-74455000D01*
D30*
X160940000Y-100510000D02*
X168210000Y-100510000D01*
D31*
X126790000Y-103240000D02*
X126965000Y-103065000D01*
D30*
X150170000Y-99070000D02*
X153900000Y-95340000D01*
D32*
X126370000Y-84250000D02*
X124680000Y-82560000D01*
D29*
X130449002Y-78559002D02*
X139360998Y-78559002D01*
X127710000Y-87914500D02*
X127764500Y-87860000D01*
D30*
X168410000Y-100510000D02*
X168210000Y-100510000D01*
D31*
X124580000Y-103240000D02*
X126790000Y-103240000D01*
D29*
X129468298Y-80150000D02*
X142240000Y-80150000D01*
D30*
X139460000Y-98362182D02*
X139853454Y-98755636D01*
X135890000Y-116575573D02*
X135890000Y-115360000D01*
D32*
X162160000Y-74300000D02*
X161960000Y-74100000D01*
D30*
X150170000Y-99200000D02*
X150120000Y-99250000D01*
D31*
X129937416Y-101430000D02*
X127580000Y-101430000D01*
D30*
X168490000Y-100510000D02*
X168510000Y-100530000D01*
D29*
X128080000Y-76190000D02*
X130449002Y-78559002D01*
X156630000Y-117500000D02*
X153160000Y-117500000D01*
X143055000Y-73351497D02*
X143055000Y-73325000D01*
X127764500Y-87860000D02*
X127760000Y-87855500D01*
D31*
X126790000Y-103240000D02*
X126790000Y-105800000D01*
D29*
X139850000Y-78070000D02*
X139850000Y-76556497D01*
D31*
X126965000Y-103065000D02*
X130245000Y-103065000D01*
D29*
X150815000Y-74455000D02*
X144185000Y-74455000D01*
D32*
X162230000Y-82540000D02*
X160620000Y-84150000D01*
D30*
X145260000Y-85710000D02*
X145250000Y-85720000D01*
D31*
X127105645Y-94625645D02*
X127580000Y-95100000D01*
D30*
X150120000Y-99250000D02*
X150120000Y-99270000D01*
X136450000Y-117135573D02*
X135890000Y-116575573D01*
D31*
X123830000Y-100710000D02*
X123830000Y-102490000D01*
D32*
X160620000Y-84150000D02*
X142210000Y-84150000D01*
D30*
X168210000Y-100510000D02*
X168490000Y-100510000D01*
X160705000Y-102620000D02*
X160705000Y-100745000D01*
X139470000Y-93660000D02*
X139460000Y-93670000D01*
X150170000Y-99200000D02*
X150170000Y-99070000D01*
D32*
X155620000Y-71280000D02*
X155660000Y-71240000D01*
X127105645Y-93105645D02*
X127105645Y-91834355D01*
X124680000Y-82560000D02*
X124680000Y-80630000D01*
X139630000Y-64200000D02*
X139680000Y-64150000D01*
D33*
X149410000Y-108210000D02*
X153150000Y-108210000D01*
D32*
X139680000Y-64150000D02*
X140650000Y-64150000D01*
D30*
X150120000Y-99270000D02*
X148070000Y-101320000D01*
D29*
X140991635Y-99009933D02*
X140991635Y-97058365D01*
D30*
X153940000Y-93500000D02*
X153900000Y-93460000D01*
D29*
X157300000Y-115085000D02*
X157300000Y-116830000D01*
D30*
X136150000Y-115100000D02*
X136190000Y-115100000D01*
X136780000Y-104180000D02*
X136780000Y-102592500D01*
D32*
X129630000Y-84250000D02*
X126370000Y-84250000D01*
D33*
X159780000Y-117615000D02*
X158085000Y-117615000D01*
X161480000Y-117615000D02*
X159780000Y-117615000D01*
D31*
X127580000Y-95100000D02*
X127580000Y-101430000D01*
D32*
X142210000Y-84150000D02*
X141060000Y-85300000D01*
D31*
X126190000Y-100710000D02*
X123830000Y-100710000D01*
D32*
X127760000Y-87855500D02*
X127760000Y-84270000D01*
D30*
X160705000Y-100745000D02*
X160940000Y-100510000D01*
X136780000Y-104260000D02*
X136780000Y-104277818D01*
D33*
X157290000Y-112350000D02*
X157290000Y-115185000D01*
D30*
X146430000Y-110680000D02*
X148870000Y-108240000D01*
X145250000Y-85720000D02*
X145250000Y-90620000D01*
D32*
X124680000Y-80630000D02*
X124980000Y-80330000D01*
D30*
X168440000Y-99490000D02*
X168440000Y-100480000D01*
D33*
X159780000Y-116950000D02*
X159780000Y-117615000D01*
D30*
X163535000Y-100515000D02*
X163540000Y-100510000D01*
X163535000Y-102765000D02*
X163535000Y-100515000D01*
D31*
X123830000Y-102490000D02*
X124580000Y-103240000D01*
D29*
X147290000Y-113670000D02*
X146850000Y-114110000D01*
D30*
X168510000Y-100530000D02*
X168510000Y-102760000D01*
D29*
X139360998Y-78559002D02*
X139850000Y-78070000D01*
X144185000Y-74455000D02*
X143055000Y-73325000D01*
D31*
X126910000Y-101430000D02*
X126190000Y-100710000D01*
D30*
X148070000Y-101320000D02*
X145260000Y-101320000D01*
D29*
X142240000Y-80150000D02*
X146670000Y-75720000D01*
D32*
X129650000Y-84270000D02*
X129630000Y-84250000D01*
D30*
X139460000Y-93670000D02*
X139460000Y-98362182D01*
D29*
X149330000Y-113670000D02*
X147290000Y-113670000D01*
D30*
X131530000Y-112970000D02*
X131610000Y-113050000D01*
D29*
X135500000Y-64150000D02*
X138520000Y-64150000D01*
X133790000Y-65820000D02*
X133830000Y-65820000D01*
D30*
X136780000Y-105820000D02*
X136780000Y-104180000D01*
D32*
X127105645Y-91834355D02*
X127710000Y-91230000D01*
D30*
X136450000Y-118140000D02*
X136450000Y-117135573D01*
X138200000Y-107240000D02*
X136780000Y-105820000D01*
X138200000Y-107380000D02*
X138200000Y-107240000D01*
D31*
X126790000Y-105800000D02*
X126800000Y-105810000D01*
D29*
X153160000Y-117500000D02*
X149330000Y-113670000D01*
X144980000Y-64170000D02*
X144960000Y-64150000D01*
X138520000Y-64150000D02*
X140650000Y-64150000D01*
D32*
X141060000Y-85300000D02*
X141060000Y-86350000D01*
X146790000Y-71280000D02*
X145560000Y-71280000D01*
D29*
X139850000Y-76556497D02*
X143055000Y-73351497D01*
X146850000Y-114110000D02*
X146850000Y-115165000D01*
D33*
X158085000Y-117615000D02*
X157300000Y-116830000D01*
D29*
X144960000Y-64150000D02*
X138520000Y-64150000D01*
D30*
X164250000Y-102760000D02*
X164250000Y-100530000D01*
X168440000Y-100480000D02*
X168410000Y-100510000D01*
D32*
X139630000Y-65350000D02*
X139630000Y-64200000D01*
D30*
X135890000Y-115360000D02*
X136150000Y-115100000D01*
D29*
X142755000Y-100773298D02*
X140991635Y-99009933D01*
X146430000Y-110770000D02*
X146430000Y-110680000D01*
D32*
X127710000Y-91230000D02*
X127710000Y-87914500D01*
D33*
X160385000Y-116345000D02*
X159780000Y-116950000D01*
D29*
X143055000Y-73325000D02*
X142580000Y-72850000D01*
D33*
X161480000Y-116345000D02*
X160385000Y-116345000D01*
D32*
X162160000Y-82470000D02*
X162160000Y-74300000D01*
D30*
X135870000Y-118720000D02*
X136450000Y-118140000D01*
D29*
X133830000Y-65820000D02*
X135500000Y-64150000D01*
D32*
X162230000Y-82540000D02*
X162160000Y-82470000D01*
D31*
X127580000Y-101430000D02*
X126910000Y-101430000D01*
D30*
X133630000Y-118720000D02*
X135870000Y-118720000D01*
D29*
X128754149Y-79435851D02*
X129468298Y-80150000D01*
D32*
X146790000Y-71280000D02*
X155620000Y-71280000D01*
D29*
X142300000Y-72850000D02*
X142580000Y-72850000D01*
D30*
X153900000Y-95340000D02*
X153900000Y-93460000D01*
D29*
X137003240Y-115120000D02*
X136210000Y-115120000D01*
D31*
X127105645Y-93105645D02*
X127105645Y-94625645D01*
X131733708Y-99633708D02*
X129937416Y-101430000D01*
D30*
X150120000Y-99250000D02*
X149820000Y-99250000D01*
X131610000Y-113050000D02*
X131610000Y-116700000D01*
X131610000Y-116700000D02*
X133630000Y-118720000D01*
D33*
X153150000Y-108210000D02*
X157290000Y-112350000D01*
D30*
X161405000Y-102765000D02*
X161405000Y-100555000D01*
X148870000Y-108240000D02*
X149410000Y-108240000D01*
D29*
X142755000Y-107195000D02*
X142755000Y-100773298D01*
D30*
X161405000Y-100555000D02*
X161450000Y-100510000D01*
D29*
X142980000Y-107420000D02*
X142755000Y-107195000D01*
D32*
X124980000Y-80330000D02*
X125995000Y-80330000D01*
D29*
X157300000Y-116830000D02*
X156630000Y-117500000D01*
D30*
X136780000Y-104260000D02*
X136780000Y-104180000D01*
D32*
X145560000Y-71280000D02*
X139630000Y-65350000D01*
D30*
%TO.N,3V3*%
X145850000Y-115165000D02*
X145850000Y-113700000D01*
X138030000Y-115740000D02*
X138569830Y-115200170D01*
X128050000Y-109640000D02*
X126890000Y-109640000D01*
X156210000Y-113090000D02*
X156300000Y-113020000D01*
X162115000Y-104550500D02*
X162115000Y-102765000D01*
X162835000Y-104560500D02*
X162835000Y-102620000D01*
D31*
X140095000Y-80955000D02*
X128055000Y-80955000D01*
D29*
X124960000Y-78330000D02*
X124430000Y-77800000D01*
X174540000Y-72710000D02*
X160130000Y-72710000D01*
X175470000Y-95650000D02*
X175470000Y-73640000D01*
D30*
X162480000Y-104915500D02*
X162835000Y-104560500D01*
X156300000Y-115085000D02*
X156300000Y-113180000D01*
D29*
X175470000Y-73640000D02*
X174540000Y-72710000D01*
D30*
X156300000Y-113020000D02*
X156270000Y-112990000D01*
X126480000Y-110050000D02*
X126480000Y-111320000D01*
D31*
X128055000Y-80955000D02*
X128020000Y-80990000D01*
D30*
X132940000Y-111750000D02*
X133570000Y-112380000D01*
D31*
X158540000Y-83060000D02*
X142200000Y-83060000D01*
X142200000Y-83060000D02*
X140095000Y-80955000D01*
X128070000Y-80980000D02*
X128080000Y-80980000D01*
D30*
X156300000Y-113180000D02*
X156210000Y-113090000D01*
X162480000Y-104915500D02*
X162115000Y-104550500D01*
D33*
X136270000Y-70030000D02*
X136160000Y-70170000D01*
D29*
X124430000Y-72930660D02*
X126370660Y-70990000D01*
X174910000Y-96210000D02*
X175470000Y-95650000D01*
X136240000Y-70060000D02*
X136270000Y-70030000D01*
D31*
X160130000Y-81470000D02*
X158540000Y-83060000D01*
D30*
X138030000Y-117910000D02*
X138030000Y-115740000D01*
D29*
X132240000Y-70060000D02*
X136240000Y-70060000D01*
D31*
X128020000Y-80990000D02*
X128070000Y-80980000D01*
D29*
X126370660Y-70990000D02*
X131310000Y-70990000D01*
D31*
X160130000Y-73130000D02*
X160130000Y-81470000D01*
D29*
X131310000Y-70990000D02*
X132240000Y-70060000D01*
D31*
X160130000Y-70290000D02*
X160130000Y-73130000D01*
D29*
X124430000Y-77800000D02*
X124430000Y-72930660D01*
D30*
X126910000Y-111750000D02*
X132940000Y-111750000D01*
X145850000Y-113700000D02*
X145800000Y-113650000D01*
D29*
X125995000Y-78330000D02*
X127460000Y-78330000D01*
D30*
X126480000Y-111320000D02*
X126910000Y-111750000D01*
X126890000Y-109640000D02*
X126480000Y-110050000D01*
D29*
X125995000Y-78330000D02*
X124960000Y-78330000D01*
D30*
X138569830Y-115200170D02*
X138646650Y-115200170D01*
D29*
X128020000Y-78890000D02*
X128020000Y-80990000D01*
X127460000Y-78330000D02*
X128020000Y-78890000D01*
D33*
%TO.N,VIN*%
X155460000Y-73030000D02*
X157680000Y-75250000D01*
X133270000Y-71160000D02*
X142854696Y-71160000D01*
X133195000Y-71235000D02*
X133270000Y-71160000D01*
X144724696Y-73030000D02*
X155460000Y-73030000D01*
X142854696Y-71160000D02*
X144724696Y-73030000D01*
D30*
%TO.N,ADC_IN_IO04*%
X132490000Y-84870500D02*
X131387318Y-84870500D01*
X129080000Y-87177818D02*
X129080000Y-91690000D01*
X129080000Y-91690000D02*
X129260000Y-91870000D01*
X129780000Y-95340000D02*
X130830000Y-95340000D01*
X147850000Y-116460000D02*
X147490000Y-116820000D01*
X147850000Y-115165000D02*
X147850000Y-116460000D01*
X131387318Y-84870500D02*
X129080000Y-87177818D01*
X129260000Y-91870000D02*
X129260000Y-94820000D01*
X132490000Y-84870500D02*
X132449500Y-84830000D01*
X129260000Y-94820000D02*
X129780000Y-95340000D01*
%TO.N,CHIP_EN*%
X133720000Y-93870000D02*
X133720000Y-97750000D01*
X133020000Y-89735636D02*
X133020000Y-88051937D01*
X135890000Y-85181937D02*
X135890000Y-82630000D01*
X132555500Y-90200136D02*
X133020000Y-89735636D01*
X127730000Y-74330000D02*
X127920000Y-74140000D01*
X125995000Y-74330000D02*
X127730000Y-74330000D01*
X133020000Y-88051937D02*
X135890000Y-85181937D01*
X132555500Y-92705500D02*
X133720000Y-93870000D01*
X132555500Y-91030000D02*
X132555500Y-90200136D01*
X135890000Y-82630000D02*
X135760000Y-82500000D01*
X133720000Y-97750000D02*
X133300000Y-98170000D01*
X132555500Y-91030000D02*
X132555500Y-92705500D01*
X133300000Y-98170000D02*
X132840000Y-98170000D01*
D34*
%TO.N,Net-(ESP32S1-LNA_IN{slash}RF)*%
X130270000Y-102250000D02*
X126040000Y-102250000D01*
X132840000Y-99370000D02*
X132840000Y-99680000D01*
X126010000Y-102280000D02*
X125980000Y-102250000D01*
X132840000Y-99680000D02*
X130270000Y-102250000D01*
X125980000Y-102250000D02*
X125910000Y-102250000D01*
X126040000Y-102250000D02*
X126010000Y-102280000D01*
X125910000Y-102250000D02*
X125890000Y-102270000D01*
D30*
%TO.N,VDD_SPI*%
X154560000Y-90310000D02*
X153450000Y-90310000D01*
X164640000Y-91240000D02*
X155490000Y-91240000D01*
X155490000Y-91240000D02*
X154560000Y-90310000D01*
X168630000Y-88830000D02*
X167050000Y-88830000D01*
X153450000Y-90310000D02*
X153420000Y-90280000D01*
X167050000Y-88830000D02*
X164640000Y-91240000D01*
%TO.N,Net-(ESP32S1-XTAL_P)*%
X138013375Y-99966625D02*
X137770000Y-100210000D01*
X135130000Y-100210000D02*
X134280000Y-101060000D01*
X134280000Y-101890000D02*
X134890000Y-102500000D01*
X137770000Y-100210000D02*
X135130000Y-100210000D01*
X134280000Y-101060000D02*
X134280000Y-101890000D01*
X134890000Y-102500000D02*
X135780000Y-102500000D01*
%TO.N,SPICS1*%
X141700000Y-91500000D02*
X140190000Y-89990000D01*
X166770000Y-87140000D02*
X166730000Y-87100000D01*
X150412182Y-87100000D02*
X146012182Y-91500000D01*
X166730000Y-87100000D02*
X150412182Y-87100000D01*
X146012182Y-91500000D02*
X141700000Y-91500000D01*
%TO.N,SPIWP*%
X165160000Y-87970000D02*
X165090000Y-87900000D01*
X169390000Y-87970000D02*
X172670000Y-91250000D01*
X172670000Y-91250000D02*
X172670000Y-93600000D01*
X165090000Y-87900000D02*
X150390000Y-87900000D01*
X150390000Y-87900000D02*
X146220000Y-92070000D01*
X165160000Y-87970000D02*
X169390000Y-87970000D01*
X146220000Y-92070000D02*
X146220000Y-93920000D01*
%TO.N,SPIHD*%
X156280000Y-91790000D02*
X155330000Y-92740000D01*
X164867817Y-91790000D02*
X156280000Y-91790000D01*
X167823366Y-89946634D02*
X166711184Y-89946634D01*
X166711184Y-89946634D02*
X164867817Y-91790000D01*
%TO.N,TXD0*%
X140081701Y-79500000D02*
X129702182Y-79500000D01*
X141797841Y-77538416D02*
X141797841Y-77783860D01*
X142101584Y-77538416D02*
X143980000Y-75660000D01*
X129702182Y-79500000D02*
X127532182Y-77330000D01*
X141797841Y-77783860D02*
X140081701Y-79500000D01*
X127532182Y-77330000D02*
X125995000Y-77330000D01*
X141797841Y-77538416D02*
X142101584Y-77538416D01*
X143980000Y-75660000D02*
X145340000Y-75660000D01*
X145340000Y-75660000D02*
X145370000Y-75690000D01*
%TO.N,Net-(ESP32S1-U0TXD{slash}PROG{slash}GPIO43)*%
X136577816Y-93120000D02*
X134800000Y-93120000D01*
X140540000Y-105130000D02*
X141560000Y-104110000D01*
X133860000Y-88767573D02*
X139275256Y-83352317D01*
X138840000Y-95382184D02*
X136577816Y-93120000D01*
X137380000Y-103490000D02*
X137380000Y-104610000D01*
X134800000Y-93120000D02*
X133860000Y-92180000D01*
X138840000Y-98520000D02*
X138840000Y-95382184D01*
X137900000Y-105130000D02*
X140540000Y-105130000D01*
X141560000Y-101240000D02*
X138840000Y-98520000D01*
X139275256Y-83352317D02*
X139275256Y-82005500D01*
X141560000Y-104110000D02*
X141560000Y-101240000D01*
X133860000Y-92180000D02*
X133860000Y-88767573D01*
X137380000Y-104610000D02*
X137900000Y-105130000D01*
%TO.N,ESP_GPIO0_BOOT-DTR*%
X134440000Y-104680000D02*
X135550000Y-104680000D01*
X133400000Y-101127818D02*
X133400000Y-103640000D01*
X135360000Y-99167818D02*
X133400000Y-101127818D01*
X128810000Y-75350000D02*
X126015000Y-75350000D01*
X130160000Y-97770000D02*
X130840000Y-97770000D01*
X128180000Y-95790000D02*
X130160000Y-97770000D01*
X131510000Y-82727500D02*
X131510000Y-83970000D01*
X128639500Y-91590500D02*
X128180000Y-92050000D01*
X133400000Y-103640000D02*
X134440000Y-104680000D01*
X128639500Y-86840500D02*
X128639500Y-91590500D01*
X128870000Y-75290000D02*
X128810000Y-75350000D01*
X135360000Y-95193884D02*
X135360000Y-99167818D01*
X134786116Y-94620000D02*
X135360000Y-95193884D01*
X131510000Y-83970000D02*
X128639500Y-86840500D01*
X126015000Y-75350000D02*
X125995000Y-75330000D01*
X131687500Y-82550000D02*
X131510000Y-82727500D01*
X128180000Y-92050000D02*
X128180000Y-95790000D01*
%TO.N,LED_G_IO02*%
X130020000Y-110230000D02*
X130540000Y-110750000D01*
X134580000Y-99170000D02*
X131100000Y-102650000D01*
X131100000Y-104190000D02*
X130020000Y-105270000D01*
X130540000Y-110750000D02*
X131240000Y-110750000D01*
X130020000Y-105270000D02*
X130020000Y-110230000D01*
X134504240Y-96470260D02*
X134580000Y-96546020D01*
X131100000Y-102650000D02*
X131100000Y-104190000D01*
X134580000Y-96546020D02*
X134580000Y-99170000D01*
%TO.N,LED_R_IO04*%
X132203010Y-102733010D02*
X132253983Y-102783983D01*
X132253983Y-102783983D02*
X132253983Y-107516017D01*
%TO.N,LED_B_IO05*%
X129090000Y-110760000D02*
X128060000Y-110760000D01*
X129640000Y-104130000D02*
X129600000Y-104170000D01*
X129600000Y-104170000D02*
X129600000Y-110250000D01*
X129600000Y-110250000D02*
X129090000Y-110760000D01*
%TO.N,GPIO8_I2C_SDA*%
X132830000Y-93890000D02*
X131820000Y-92880000D01*
X132830000Y-94550000D02*
X132830000Y-93890000D01*
X132470000Y-89507818D02*
X132470000Y-87450000D01*
X143820000Y-112430000D02*
X143820000Y-111350000D01*
X137000000Y-118480000D02*
X137740000Y-119220000D01*
X132470000Y-87450000D02*
X134990000Y-84930000D01*
X143690000Y-111310000D02*
X143630000Y-111250000D01*
X154300000Y-115085000D02*
X154265000Y-115050000D01*
X131820000Y-90157818D02*
X132470000Y-89507818D01*
X153440000Y-115050000D02*
X150380000Y-111990000D01*
X143820000Y-111350000D02*
X143780000Y-111310000D01*
X134990000Y-84930000D02*
X134990000Y-84844500D01*
X137000000Y-116120000D02*
X137000000Y-118480000D01*
X144460000Y-111990000D02*
X143820000Y-111350000D01*
X137740000Y-119220000D02*
X141077818Y-119220000D01*
X143780000Y-111310000D02*
X143690000Y-111310000D01*
X154265000Y-115050000D02*
X153440000Y-115050000D01*
X150380000Y-111990000D02*
X144460000Y-111990000D01*
X142330000Y-117967818D02*
X142330000Y-113920000D01*
X142330000Y-113920000D02*
X143820000Y-112430000D01*
X131820000Y-92880000D02*
X131820000Y-90157818D01*
X141077818Y-119220000D02*
X142330000Y-117967818D01*
%TO.N,GPIO9_I2C_SCL*%
X140850000Y-118670000D02*
X139390000Y-118670000D01*
X131920000Y-86720000D02*
X133700000Y-84940000D01*
X145520000Y-111550000D02*
X152560000Y-111550000D01*
X142945000Y-112527182D02*
X141780000Y-113692182D01*
X139390000Y-118670000D02*
X138970000Y-118250000D01*
X142945000Y-110765000D02*
X142945000Y-112527182D01*
X141780000Y-113692182D02*
X141780000Y-117740000D01*
X142230000Y-110050000D02*
X142945000Y-110765000D01*
X131300000Y-89900000D02*
X131920000Y-89280000D01*
X142230000Y-110050000D02*
X144020000Y-110050000D01*
X131920000Y-89280000D02*
X131920000Y-86720000D01*
X133700000Y-84940000D02*
X133700000Y-84890000D01*
X155300000Y-114290000D02*
X155300000Y-116560000D01*
X152560000Y-111550000D02*
X155300000Y-114290000D01*
X141780000Y-117740000D02*
X140850000Y-118670000D01*
X138970000Y-118250000D02*
X138970000Y-116120000D01*
X144020000Y-110050000D02*
X145520000Y-111550000D01*
X155300000Y-116560000D02*
X155330000Y-116590000D01*
X130830000Y-94150000D02*
X130830000Y-93370000D01*
X131300000Y-92900000D02*
X131300000Y-89900000D01*
X130830000Y-93370000D02*
X131300000Y-92900000D01*
%TO.N,DAC_CALIBRATION*%
X138590000Y-92990000D02*
X138010000Y-93570000D01*
X138590000Y-91990000D02*
X138590000Y-92990000D01*
%TO.N,IMU_CS_IO21*%
X142130000Y-101032182D02*
X140350000Y-99252182D01*
X140350000Y-99252182D02*
X140350000Y-92550000D01*
X142130000Y-107990000D02*
X142130000Y-101032182D01*
X141860000Y-108260000D02*
X142130000Y-107990000D01*
X140350000Y-92550000D02*
X139790000Y-91990000D01*
%TO.N,SPICS0*%
X163950000Y-90280000D02*
X163940000Y-90280000D01*
X164060000Y-90200000D02*
X164060000Y-90270000D01*
X151660000Y-88690000D02*
X151750000Y-88600000D01*
X162460000Y-88600000D02*
X164060000Y-90200000D01*
X164060000Y-90270000D02*
X163950000Y-90280000D01*
X151750000Y-88600000D02*
X162460000Y-88600000D01*
%TO.N,LCD2_DC_IO11*%
X149735636Y-105880000D02*
X146085636Y-102230000D01*
X146085636Y-102230000D02*
X144830000Y-102230000D01*
X144160000Y-101560000D02*
X144160000Y-99530000D01*
X144830000Y-102230000D02*
X144160000Y-101560000D01*
X163430000Y-105880000D02*
X149735636Y-105880000D01*
X164960000Y-104350000D02*
X163430000Y-105880000D01*
X164960000Y-102760000D02*
X164960000Y-104350000D01*
X144160000Y-99530000D02*
X144340000Y-99350000D01*
%TO.N,LCD2_CS_IO12*%
X163657818Y-106430000D02*
X149507818Y-106430000D01*
X165670000Y-102760000D02*
X165670000Y-104417818D01*
X143580000Y-100540000D02*
X142340000Y-99300000D01*
X142340000Y-99300000D02*
X142340000Y-98940000D01*
X149507818Y-106430000D02*
X145857818Y-102780000D01*
X165670000Y-104417818D02*
X163657818Y-106430000D01*
X145857818Y-102780000D02*
X144602182Y-102780000D01*
X144602182Y-102780000D02*
X143580000Y-101757818D01*
X143580000Y-101757818D02*
X143580000Y-100540000D01*
%TO.N,LCD2_RST_IO33*%
X164910000Y-106980000D02*
X167800000Y-104090000D01*
X167800000Y-104090000D02*
X167800000Y-102760000D01*
X143500000Y-103120000D02*
X143710000Y-103330000D01*
X145630000Y-103330000D02*
X149280000Y-106980000D01*
X149280000Y-106980000D02*
X164910000Y-106980000D01*
X143710000Y-103330000D02*
X145630000Y-103330000D01*
%TO.N,RXD0*%
X134492182Y-93590000D02*
X136269999Y-93590000D01*
X138788375Y-100287641D02*
X138334391Y-100741625D01*
X140580000Y-78223883D02*
X139743883Y-79060000D01*
X127310000Y-76330000D02*
X125995000Y-76330000D01*
X138070000Y-83779755D02*
X133430000Y-88419755D01*
X138328375Y-100741625D02*
X137790000Y-101280000D01*
X143100000Y-74570000D02*
X143100000Y-74970000D01*
X133430000Y-88419755D02*
X133430000Y-92527818D01*
X138788375Y-99388375D02*
X138788375Y-100287641D01*
X143100000Y-74970000D02*
X140580000Y-77490000D01*
X138410000Y-95730001D02*
X138410000Y-99010000D01*
X136269999Y-93590000D02*
X138410000Y-95730001D01*
X130040000Y-79060000D02*
X127310000Y-76330000D01*
X138334391Y-100741625D02*
X138328375Y-100741625D01*
X133430000Y-92527818D02*
X134492182Y-93590000D01*
X138410000Y-99010000D02*
X138788375Y-99388375D01*
X137790000Y-101280000D02*
X137790000Y-101510000D01*
X138070000Y-82765500D02*
X138070000Y-83779755D01*
X139743883Y-79060000D02*
X130040000Y-79060000D01*
X140580000Y-77490000D02*
X140580000Y-78223883D01*
%TO.N,Net-(J1-CC1)*%
X143090000Y-65590000D02*
X143470000Y-65970000D01*
X151400000Y-65970000D02*
X152490000Y-67060000D01*
X143470000Y-65970000D02*
X151400000Y-65970000D01*
%TO.N,Net-(J1-CC2)*%
X149100000Y-66520000D02*
X149580000Y-67000000D01*
X142513269Y-66520000D02*
X149100000Y-66520000D01*
X141455282Y-65462013D02*
X142513269Y-66520000D01*
X149580000Y-67000000D02*
X149580000Y-67670000D01*
D32*
%TO.N,Net-(J1-SHIELD-PadS1)*%
X147750000Y-69250000D02*
X154630000Y-69250000D01*
X146910000Y-68330000D02*
X146910000Y-68410000D01*
X155550000Y-68330000D02*
X155550000Y-64150000D01*
X154630000Y-69250000D02*
X155550000Y-68330000D01*
X146910000Y-68410000D02*
X147750000Y-69250000D01*
X155550000Y-64150000D02*
X146910000Y-64150000D01*
D30*
%TO.N,Net-(LED1-RA)*%
X132590000Y-109610000D02*
X132610000Y-109590000D01*
X131240000Y-109610000D02*
X132590000Y-109610000D01*
D29*
%TO.N,unconnected-(U3-NC-Pad1)*%
X138828410Y-114140000D02*
X139811590Y-114140000D01*
%TO.N,unconnected-(U3-NC-Pad6)*%
X136676650Y-114200170D02*
X135740170Y-114200170D01*
D34*
%TO.N,Net-(ANT1-Pad1)*%
X122427500Y-98632500D02*
X122470000Y-98590000D01*
X122427500Y-100630000D02*
X122427500Y-98632500D01*
D30*
%TO.N,Net-(PWR-LED1-K)*%
X173360000Y-74407500D02*
X173370000Y-74417500D01*
X171920000Y-74407500D02*
X173360000Y-74407500D01*
D32*
%TO.N,USB_VBUS*%
X124899340Y-79330000D02*
X125995000Y-79330000D01*
D29*
X150670000Y-75320000D02*
X150700000Y-75350000D01*
D32*
X152660000Y-72230000D02*
X144950000Y-72230000D01*
X130999340Y-70240000D02*
X126060000Y-70240000D01*
D30*
X150670000Y-78210000D02*
X150670000Y-75320000D01*
X148485000Y-80410000D02*
X148485000Y-80395000D01*
D32*
X132129340Y-69110000D02*
X130999340Y-70240000D01*
X144950000Y-72230000D02*
X141830000Y-69110000D01*
D29*
X150700000Y-75350000D02*
X150760000Y-75350000D01*
D30*
X149697500Y-75782500D02*
X150160000Y-75320000D01*
X148485000Y-80395000D02*
X150670000Y-78210000D01*
D32*
X123780000Y-72520000D02*
X123780000Y-78210660D01*
D30*
X148650000Y-75782500D02*
X149697500Y-75782500D01*
D32*
X126060000Y-70240000D02*
X123780000Y-72520000D01*
D30*
X150160000Y-75320000D02*
X150670000Y-75320000D01*
D32*
X123780000Y-78210660D02*
X124899340Y-79330000D01*
X141830000Y-69110000D02*
X132129340Y-69110000D01*
D30*
%TO.N,CH-DTR*%
X132130000Y-77820000D02*
X131655000Y-77345000D01*
X138884283Y-77685956D02*
X138884283Y-75375717D01*
X138884283Y-77685956D02*
X138750239Y-77820000D01*
X138884283Y-75375717D02*
X140940000Y-73320000D01*
X140940000Y-73320000D02*
X140940000Y-72900000D01*
X138750239Y-77820000D02*
X132130000Y-77820000D01*
%TO.N,Net-(CH-RX-LED1-K)*%
X146610000Y-80410000D02*
X146610000Y-81270000D01*
X146610000Y-81270000D02*
X145920000Y-81960000D01*
%TO.N,Net-(CH-TX-RED1-K)*%
X148650000Y-77657500D02*
X148650000Y-77660000D01*
X148650000Y-77660000D02*
X147470000Y-78840000D01*
%TO.N,GND_SRAM*%
X169100000Y-106197818D02*
X170250000Y-105047818D01*
X169100000Y-116345000D02*
X169100000Y-106197818D01*
X174010000Y-93700000D02*
X174010000Y-93510000D01*
X170250000Y-105047818D02*
X170250000Y-97460000D01*
X170250000Y-97460000D02*
X174010000Y-93700000D01*
%TO.N,GND_FLASH*%
X169700000Y-104820000D02*
X167730000Y-106790000D01*
X169700000Y-97570000D02*
X169700000Y-104820000D01*
X165110000Y-92980000D02*
X169700000Y-97570000D01*
X167730000Y-106790000D02*
X167730000Y-117220000D01*
X159980000Y-92580000D02*
X160380000Y-92980000D01*
X167730000Y-117220000D02*
X168125000Y-117615000D01*
X168125000Y-117615000D02*
X169100000Y-117615000D01*
X160380000Y-92980000D02*
X165110000Y-92980000D01*
%TD*%
%TA.AperFunction,Conductor*%
%TO.N,GND*%
G36*
X128751793Y-82938608D02*
G01*
X128813344Y-82955770D01*
X128858179Y-83001303D01*
X128874388Y-83063115D01*
X128863222Y-85752048D01*
X128853685Y-85799224D01*
X128826904Y-85839214D01*
X128264977Y-86401141D01*
X128252785Y-86411834D01*
X128229049Y-86430047D01*
X128205887Y-86460233D01*
X128136520Y-86550632D01*
X128135244Y-86554025D01*
X128078813Y-86690262D01*
X128062939Y-86810838D01*
X128062939Y-86810845D01*
X128059034Y-86840500D01*
X128062939Y-86870155D01*
X128064000Y-86886340D01*
X128064000Y-91300758D01*
X128054561Y-91348211D01*
X128027683Y-91388436D01*
X127836352Y-91579767D01*
X127805477Y-91610642D01*
X127793285Y-91621334D01*
X127769547Y-91639549D01*
X127743905Y-91672965D01*
X127743872Y-91673010D01*
X127707997Y-91719764D01*
X127695024Y-91736671D01*
X127681424Y-91754393D01*
X127677301Y-91759768D01*
X127626016Y-91883580D01*
X127603605Y-91919098D01*
X127488140Y-92047334D01*
X127398749Y-92202164D01*
X127343503Y-92372195D01*
X127324815Y-92549999D01*
X127343503Y-92727804D01*
X127398749Y-92897835D01*
X127488140Y-93052665D01*
X127572649Y-93146520D01*
X127596264Y-93185055D01*
X127604500Y-93229493D01*
X127604500Y-95744160D01*
X127603439Y-95760345D01*
X127599534Y-95789999D01*
X127603439Y-95819655D01*
X127603439Y-95819662D01*
X127616710Y-95920465D01*
X127619313Y-95940234D01*
X127677302Y-96080233D01*
X127746388Y-96170268D01*
X127746391Y-96170271D01*
X127769549Y-96200452D01*
X127793286Y-96218666D01*
X127805480Y-96229360D01*
X128778984Y-97202864D01*
X128805962Y-97243330D01*
X128815302Y-97291060D01*
X128803620Y-100104174D01*
X128799227Y-101162216D01*
X128797965Y-101466015D01*
X128781181Y-101527797D01*
X128735817Y-101572973D01*
X128673966Y-101589500D01*
X126631920Y-101589500D01*
X126593602Y-101583431D01*
X126559034Y-101565818D01*
X126506702Y-101527797D01*
X126462730Y-101495849D01*
X126462729Y-101495848D01*
X126462727Y-101495847D01*
X126289802Y-101418855D01*
X126104648Y-101379500D01*
X126104646Y-101379500D01*
X125915354Y-101379500D01*
X125915352Y-101379500D01*
X125730197Y-101418855D01*
X125557269Y-101495848D01*
X125404129Y-101607110D01*
X125277466Y-101747783D01*
X125182820Y-101911715D01*
X125124326Y-102091742D01*
X125104540Y-102280000D01*
X125124326Y-102468257D01*
X125182820Y-102648284D01*
X125277466Y-102812216D01*
X125404129Y-102952889D01*
X125557269Y-103064151D01*
X125730197Y-103141144D01*
X125915352Y-103180500D01*
X125915354Y-103180500D01*
X126104646Y-103180500D01*
X126104648Y-103180500D01*
X126228084Y-103154262D01*
X126289803Y-103141144D01*
X126462730Y-103064151D01*
X126615871Y-102952888D01*
X126617096Y-102951526D01*
X126658810Y-102921220D01*
X126709245Y-102910500D01*
X128667450Y-102910500D01*
X128729599Y-102927199D01*
X128775008Y-102972798D01*
X128791449Y-103035015D01*
X128787012Y-104103091D01*
X128786334Y-104115531D01*
X128784814Y-104129999D01*
X128786115Y-104142383D01*
X128786793Y-104155854D01*
X128775416Y-106895670D01*
X128758490Y-106957696D01*
X128712779Y-107002908D01*
X128650572Y-107019152D01*
X120534148Y-106963811D01*
X120472581Y-106946962D01*
X120427552Y-106901721D01*
X120410993Y-106840077D01*
X120397761Y-100550160D01*
X120414129Y-100488328D01*
X120459139Y-100442878D01*
X120520810Y-100425908D01*
X121405538Y-100419155D01*
X121471658Y-100437660D01*
X121517795Y-100488509D01*
X121529805Y-100556111D01*
X121522040Y-100629998D01*
X121541826Y-100818257D01*
X121600320Y-100998284D01*
X121694966Y-101162216D01*
X121821629Y-101302889D01*
X121974769Y-101414151D01*
X122147697Y-101491144D01*
X122332852Y-101530500D01*
X122332854Y-101530500D01*
X122522146Y-101530500D01*
X122522148Y-101530500D01*
X122645583Y-101504262D01*
X122707303Y-101491144D01*
X122880230Y-101414151D01*
X123033371Y-101302888D01*
X123160033Y-101162216D01*
X123254679Y-100998284D01*
X123313174Y-100818256D01*
X123332960Y-100630000D01*
X123323556Y-100540532D01*
X123335288Y-100473501D01*
X123380633Y-100422753D01*
X123445928Y-100403579D01*
X125224900Y-100390000D01*
X125254900Y-87460000D01*
X125254898Y-87459999D01*
X125254899Y-87459999D01*
X120492683Y-87414557D01*
X120431259Y-87397598D01*
X120386369Y-87352372D01*
X120369866Y-87290827D01*
X120360775Y-82969459D01*
X120377535Y-82906948D01*
X120423510Y-82861394D01*
X120486170Y-82845211D01*
X128751793Y-82938608D01*
G37*
%TD.AperFunction*%
%TD*%
%TA.AperFunction,Conductor*%
%TO.N,GND*%
G36*
X170214800Y-73377262D02*
G01*
X170260226Y-73423016D01*
X170276539Y-73485393D01*
X170250887Y-77046893D01*
X170233978Y-77108515D01*
X170188632Y-77153536D01*
X170126890Y-77170000D01*
X161009500Y-77170000D01*
X160947500Y-77153387D01*
X160902113Y-77108000D01*
X160885500Y-77046000D01*
X160885500Y-73484500D01*
X160902113Y-73422500D01*
X160947500Y-73377113D01*
X161009500Y-73360500D01*
X170152542Y-73360500D01*
X170214800Y-73377262D01*
G37*
%TD.AperFunction*%
%TA.AperFunction,Conductor*%
G36*
X170240261Y-61197728D02*
G01*
X170302470Y-61214527D01*
X170347851Y-61260276D01*
X170364146Y-61322621D01*
X170287697Y-71936393D01*
X170270788Y-71998015D01*
X170225442Y-72043036D01*
X170163700Y-72059500D01*
X161009500Y-72059500D01*
X160947500Y-72042887D01*
X160902113Y-71997500D01*
X160885500Y-71935500D01*
X160885500Y-70815662D01*
X160902113Y-70753662D01*
X160957179Y-70658284D01*
X160957179Y-70658283D01*
X161015674Y-70478256D01*
X161035460Y-70290000D01*
X161015674Y-70101744D01*
X160957179Y-69921716D01*
X160957179Y-69921715D01*
X160862533Y-69757783D01*
X160735870Y-69617110D01*
X160582730Y-69505848D01*
X160409802Y-69428855D01*
X160224648Y-69389500D01*
X160224646Y-69389500D01*
X160035354Y-69389500D01*
X160035352Y-69389500D01*
X159850197Y-69428855D01*
X159677269Y-69505848D01*
X159524129Y-69617110D01*
X159397466Y-69757783D01*
X159302820Y-69921715D01*
X159244326Y-70101742D01*
X159224540Y-70290000D01*
X159244326Y-70478257D01*
X159302820Y-70658284D01*
X159357887Y-70753662D01*
X159374500Y-70815662D01*
X159374500Y-77046000D01*
X159357887Y-77108000D01*
X159312500Y-77153387D01*
X159250500Y-77170000D01*
X157113851Y-77170000D01*
X157051894Y-77153412D01*
X157006514Y-77108086D01*
X156989851Y-77046149D01*
X156989851Y-77046000D01*
X156988719Y-76104342D01*
X157006932Y-76039503D01*
X157056357Y-75993746D01*
X157122410Y-75980576D01*
X157185603Y-76003878D01*
X157227270Y-76034151D01*
X157227271Y-76034151D01*
X157227272Y-76034152D01*
X157400197Y-76111144D01*
X157585352Y-76150500D01*
X157585354Y-76150500D01*
X157774646Y-76150500D01*
X157774648Y-76150500D01*
X157898084Y-76124262D01*
X157959803Y-76111144D01*
X158132730Y-76034151D01*
X158285871Y-75922888D01*
X158412533Y-75782216D01*
X158507179Y-75618284D01*
X158565674Y-75438256D01*
X158585460Y-75250000D01*
X158565674Y-75061744D01*
X158507179Y-74881716D01*
X158507179Y-74881715D01*
X158412533Y-74717783D01*
X158285870Y-74577110D01*
X158132730Y-74465848D01*
X157959802Y-74388855D01*
X157774648Y-74349500D01*
X157774646Y-74349500D01*
X157715452Y-74349500D01*
X157667999Y-74340061D01*
X157627771Y-74313181D01*
X157022051Y-73707461D01*
X156995199Y-73667302D01*
X156985732Y-73619933D01*
X156970936Y-61310183D01*
X156987518Y-61248092D01*
X157032957Y-61202639D01*
X157095040Y-61186039D01*
X170240261Y-61197728D01*
G37*
%TD.AperFunction*%
%TD*%
%TA.AperFunction,Conductor*%
%TO.N,GND*%
G36*
X136802096Y-104097666D02*
G01*
X136857685Y-104129763D01*
X136868185Y-104140264D01*
X136895062Y-104180491D01*
X136904500Y-104227941D01*
X136904500Y-104545541D01*
X136901666Y-104571900D01*
X136900833Y-104575728D01*
X136904184Y-104622575D01*
X136904500Y-104631422D01*
X136904500Y-104644012D01*
X136906293Y-104656491D01*
X136907237Y-104665275D01*
X136911208Y-104720768D01*
X136897181Y-104787510D01*
X136849982Y-104836740D01*
X136783890Y-104853566D01*
X136422004Y-104842957D01*
X136357627Y-104822695D01*
X136313397Y-104771716D01*
X136302418Y-104705124D01*
X136305249Y-104679998D01*
X136286313Y-104511941D01*
X136266618Y-104455656D01*
X136261821Y-104391648D01*
X136289671Y-104333817D01*
X136342705Y-104297659D01*
X136349251Y-104295368D01*
X136349255Y-104295368D01*
X136519522Y-104235789D01*
X136672262Y-104139816D01*
X136682317Y-104129760D01*
X136737906Y-104097665D01*
X136802096Y-104097666D01*
G37*
%TD.AperFunction*%
%TA.AperFunction,Conductor*%
G36*
X141024099Y-101899071D02*
G01*
X141068348Y-101944324D01*
X141084500Y-102005519D01*
X141084500Y-103861679D01*
X141075061Y-103909132D01*
X141048181Y-103949360D01*
X140379360Y-104618181D01*
X140339132Y-104645061D01*
X140291679Y-104654500D01*
X138148321Y-104654500D01*
X138100868Y-104645061D01*
X138060640Y-104618181D01*
X137891819Y-104449360D01*
X137864939Y-104409132D01*
X137855500Y-104361679D01*
X137855500Y-104216941D01*
X137869015Y-104160646D01*
X137906615Y-104116623D01*
X137960102Y-104094468D01*
X138017818Y-104099010D01*
X138067181Y-104129260D01*
X138077735Y-104139814D01*
X138077737Y-104139815D01*
X138077738Y-104139816D01*
X138230478Y-104235789D01*
X138400745Y-104295368D01*
X138535186Y-104310515D01*
X138579999Y-104315565D01*
X138579999Y-104315564D01*
X138580000Y-104315565D01*
X138759255Y-104295368D01*
X138929522Y-104235789D01*
X139082262Y-104139816D01*
X139092316Y-104129761D01*
X139147905Y-104097665D01*
X139212095Y-104097665D01*
X139267683Y-104129761D01*
X139277738Y-104139816D01*
X139430478Y-104235789D01*
X139600745Y-104295368D01*
X139735186Y-104310515D01*
X139779999Y-104315565D01*
X139779999Y-104315564D01*
X139780000Y-104315565D01*
X139959255Y-104295368D01*
X140129522Y-104235789D01*
X140282262Y-104139816D01*
X140409816Y-104012262D01*
X140505789Y-103859522D01*
X140565368Y-103689255D01*
X140585565Y-103510000D01*
X140565368Y-103330745D01*
X140505789Y-103160478D01*
X140409816Y-103007738D01*
X140409815Y-103007737D01*
X140409814Y-103007735D01*
X140282262Y-102880183D01*
X140204333Y-102831218D01*
X140165310Y-102792195D01*
X140147083Y-102740104D01*
X140153263Y-102685269D01*
X140155368Y-102679255D01*
X140175565Y-102500000D01*
X140168983Y-102441591D01*
X140178550Y-102378121D01*
X140218570Y-102327937D01*
X140278321Y-102304487D01*
X140280159Y-102304279D01*
X140359255Y-102295368D01*
X140529522Y-102235789D01*
X140682262Y-102139816D01*
X140809816Y-102012262D01*
X140855505Y-101939547D01*
X140901740Y-101896325D01*
X140963282Y-101881550D01*
X141024099Y-101899071D01*
G37*
%TD.AperFunction*%
%TA.AperFunction,Conductor*%
G36*
X140340700Y-90834098D02*
G01*
X140392719Y-90865178D01*
X141318190Y-91790648D01*
X141334822Y-91811286D01*
X141336945Y-91814589D01*
X141372447Y-91845351D01*
X141378928Y-91851386D01*
X141387818Y-91860277D01*
X141397905Y-91867828D01*
X141404776Y-91873365D01*
X141440282Y-91904130D01*
X141443838Y-91905754D01*
X141466641Y-91919284D01*
X141469771Y-91921627D01*
X141469772Y-91921627D01*
X141469773Y-91921628D01*
X141501439Y-91933438D01*
X141513765Y-91938036D01*
X141521932Y-91941418D01*
X141564658Y-91960931D01*
X141568534Y-91961488D01*
X141594216Y-91968042D01*
X141597885Y-91969411D01*
X141644719Y-91972760D01*
X141653511Y-91973705D01*
X141665989Y-91975500D01*
X141678587Y-91975500D01*
X141687433Y-91975815D01*
X141734270Y-91979166D01*
X141734270Y-91979165D01*
X141734271Y-91979166D01*
X141738096Y-91978334D01*
X141764454Y-91975500D01*
X141867691Y-91975500D01*
X141929335Y-91991908D01*
X141974665Y-92036790D01*
X141991684Y-92098266D01*
X141993172Y-92247898D01*
X142004280Y-93365770D01*
X141989110Y-93426443D01*
X141946258Y-93471996D01*
X141837736Y-93540184D01*
X141710185Y-93667735D01*
X141614212Y-93820476D01*
X141614211Y-93820478D01*
X141564655Y-93962101D01*
X141554631Y-93990748D01*
X141534434Y-94169999D01*
X141554631Y-94349251D01*
X141554631Y-94349253D01*
X141554632Y-94349255D01*
X141614211Y-94519522D01*
X141670978Y-94609867D01*
X141710185Y-94672264D01*
X141715240Y-94677319D01*
X141747334Y-94732906D01*
X141747334Y-94797094D01*
X141715240Y-94852681D01*
X141710185Y-94857735D01*
X141614212Y-95010476D01*
X141614211Y-95010478D01*
X141560141Y-95165000D01*
X141554631Y-95180748D01*
X141534434Y-95360000D01*
X141554631Y-95539251D01*
X141554631Y-95539253D01*
X141554632Y-95539255D01*
X141614211Y-95709522D01*
X141660489Y-95783173D01*
X141710185Y-95862264D01*
X141725240Y-95877319D01*
X141757334Y-95932906D01*
X141757334Y-95997094D01*
X141725240Y-96052681D01*
X141710185Y-96067735D01*
X141683929Y-96109522D01*
X141614211Y-96220478D01*
X141565390Y-96360000D01*
X141554631Y-96390748D01*
X141534434Y-96570000D01*
X141554631Y-96749251D01*
X141554631Y-96749253D01*
X141554632Y-96749255D01*
X141614211Y-96919522D01*
X141614212Y-96919523D01*
X141710185Y-97072264D01*
X141715240Y-97077319D01*
X141747334Y-97132906D01*
X141747334Y-97197094D01*
X141715240Y-97252681D01*
X141700185Y-97267735D01*
X141604212Y-97420476D01*
X141544631Y-97590748D01*
X141524434Y-97770000D01*
X141544631Y-97949251D01*
X141544631Y-97949253D01*
X141544632Y-97949255D01*
X141604211Y-98119522D01*
X141630215Y-98160908D01*
X141700183Y-98272262D01*
X141705237Y-98277315D01*
X141737333Y-98332901D01*
X141737335Y-98397089D01*
X141705243Y-98452677D01*
X141700186Y-98457734D01*
X141604212Y-98610476D01*
X141604211Y-98610478D01*
X141571083Y-98705152D01*
X141544631Y-98780748D01*
X141524434Y-98959999D01*
X141544631Y-99139251D01*
X141544631Y-99139253D01*
X141544632Y-99139255D01*
X141604211Y-99309522D01*
X141642212Y-99370000D01*
X141700185Y-99462264D01*
X141827735Y-99589814D01*
X141827737Y-99589815D01*
X141827738Y-99589816D01*
X141980478Y-99685789D01*
X141985214Y-99687446D01*
X142028300Y-99713310D01*
X142057584Y-99754149D01*
X142068255Y-99803256D01*
X142070203Y-99999338D01*
X142057138Y-100055985D01*
X142019691Y-100100452D01*
X141966093Y-100122965D01*
X141908125Y-100118577D01*
X141858528Y-100088251D01*
X140861819Y-99091542D01*
X140834939Y-99051314D01*
X140825500Y-99003861D01*
X140825500Y-92614459D01*
X140828334Y-92588100D01*
X140829167Y-92584271D01*
X140825815Y-92537420D01*
X140825500Y-92528574D01*
X140825500Y-92515986D01*
X140823708Y-92503525D01*
X140822761Y-92494720D01*
X140819412Y-92447886D01*
X140818043Y-92444216D01*
X140811487Y-92418531D01*
X140810931Y-92414658D01*
X140810929Y-92414654D01*
X140810929Y-92414652D01*
X140791424Y-92371943D01*
X140788034Y-92363760D01*
X140771629Y-92319773D01*
X140769280Y-92316635D01*
X140755755Y-92293840D01*
X140754130Y-92290283D01*
X140754130Y-92290282D01*
X140723374Y-92254787D01*
X140717837Y-92247916D01*
X140710279Y-92237820D01*
X140710277Y-92237818D01*
X140710275Y-92237815D01*
X140701373Y-92228914D01*
X140695354Y-92222451D01*
X140664589Y-92186945D01*
X140661291Y-92184825D01*
X140640652Y-92168193D01*
X140617349Y-92144890D01*
X140587988Y-92098163D01*
X140581810Y-92043323D01*
X140585565Y-92009997D01*
X140570172Y-91873381D01*
X140565368Y-91830745D01*
X140505789Y-91660478D01*
X140409816Y-91507738D01*
X140409815Y-91507737D01*
X140409814Y-91507735D01*
X140282263Y-91380184D01*
X140212530Y-91336368D01*
X140173507Y-91297345D01*
X140155281Y-91245255D01*
X140161461Y-91190418D01*
X140165368Y-91179255D01*
X140185565Y-91000000D01*
X140181817Y-90966744D01*
X140189951Y-90906696D01*
X140225569Y-90857672D01*
X140280164Y-90831379D01*
X140340700Y-90834098D01*
G37*
%TD.AperFunction*%
%TA.AperFunction,Conductor*%
G36*
X136069131Y-94074939D02*
G01*
X136109359Y-94101819D01*
X137898181Y-95890640D01*
X137925061Y-95930868D01*
X137934500Y-95978321D01*
X137934500Y-96219114D01*
X137917140Y-96282391D01*
X137869919Y-96327950D01*
X137806061Y-96343035D01*
X137774929Y-96333282D01*
X137773843Y-96336984D01*
X137756737Y-96331961D01*
X137628226Y-96294227D01*
X137494290Y-96294227D01*
X137365779Y-96331960D01*
X137253104Y-96404372D01*
X137165394Y-96505594D01*
X137109755Y-96627426D01*
X137090695Y-96760000D01*
X137109755Y-96892573D01*
X137165394Y-97014405D01*
X137215529Y-97072264D01*
X137253105Y-97115628D01*
X137365779Y-97188039D01*
X137494290Y-97225773D01*
X137628226Y-97225773D01*
X137756737Y-97188039D01*
X137756737Y-97188038D01*
X137773843Y-97183016D01*
X137774929Y-97186717D01*
X137806061Y-97176965D01*
X137869919Y-97192050D01*
X137917140Y-97237609D01*
X137934500Y-97300886D01*
X137934500Y-98945541D01*
X137931666Y-98971900D01*
X137930833Y-98975728D01*
X137934184Y-99022575D01*
X137934500Y-99031422D01*
X137934500Y-99044012D01*
X137936293Y-99056491D01*
X137937237Y-99065275D01*
X137940588Y-99112115D01*
X137941956Y-99115781D01*
X137948513Y-99141476D01*
X137949148Y-99145895D01*
X137942980Y-99205807D01*
X137909311Y-99255745D01*
X137856084Y-99283929D01*
X137763150Y-99306834D01*
X137612524Y-99385890D01*
X137485190Y-99498697D01*
X137388557Y-99638694D01*
X137382574Y-99654471D01*
X137356061Y-99696398D01*
X137315236Y-99724577D01*
X137266632Y-99734500D01*
X135769667Y-99734500D01*
X135702628Y-99714816D01*
X135656873Y-99662012D01*
X135646929Y-99592854D01*
X135675952Y-99529299D01*
X135705340Y-99495382D01*
X135711376Y-99488901D01*
X135720275Y-99480002D01*
X135720275Y-99480001D01*
X135720279Y-99479998D01*
X135727835Y-99469902D01*
X135733387Y-99463014D01*
X135734039Y-99462262D01*
X135764130Y-99427536D01*
X135765757Y-99423971D01*
X135779281Y-99401179D01*
X135781629Y-99398044D01*
X135798042Y-99354034D01*
X135801430Y-99345858D01*
X135808543Y-99330284D01*
X135820931Y-99303160D01*
X135821487Y-99299287D01*
X135828044Y-99273598D01*
X135829412Y-99269932D01*
X135832762Y-99223084D01*
X135833709Y-99214282D01*
X135835500Y-99201829D01*
X135835500Y-99189244D01*
X135835816Y-99180397D01*
X135839167Y-99133547D01*
X135838333Y-99129717D01*
X135835500Y-99103359D01*
X135835500Y-95258343D01*
X135838334Y-95231984D01*
X135839167Y-95228155D01*
X135835815Y-95181304D01*
X135835500Y-95172458D01*
X135835500Y-95159870D01*
X135833708Y-95147409D01*
X135832761Y-95138604D01*
X135832729Y-95138154D01*
X135829412Y-95091770D01*
X135828043Y-95088100D01*
X135821487Y-95062415D01*
X135820931Y-95058542D01*
X135820929Y-95058538D01*
X135820929Y-95058536D01*
X135801424Y-95015827D01*
X135798034Y-95007644D01*
X135781629Y-94963657D01*
X135779280Y-94960519D01*
X135765755Y-94937724D01*
X135764130Y-94934167D01*
X135764130Y-94934166D01*
X135733374Y-94898671D01*
X135727837Y-94891800D01*
X135720279Y-94881704D01*
X135720277Y-94881702D01*
X135720275Y-94881699D01*
X135711373Y-94872798D01*
X135705354Y-94866335D01*
X135674589Y-94830829D01*
X135671291Y-94828709D01*
X135650652Y-94812077D01*
X135575206Y-94736631D01*
X135545845Y-94689902D01*
X135539667Y-94635065D01*
X135541365Y-94620000D01*
X135541364Y-94619997D01*
X135541365Y-94619995D01*
X135522429Y-94451943D01*
X135522429Y-94451941D01*
X135466572Y-94292310D01*
X135443424Y-94255471D01*
X135424468Y-94192978D01*
X135439891Y-94129519D01*
X135485418Y-94082697D01*
X135548419Y-94065500D01*
X136021678Y-94065500D01*
X136069131Y-94074939D01*
G37*
%TD.AperFunction*%
%TA.AperFunction,Conductor*%
G36*
X139227818Y-92609010D02*
G01*
X139277181Y-92639260D01*
X139277735Y-92639814D01*
X139277737Y-92639815D01*
X139277738Y-92639816D01*
X139430478Y-92735789D01*
X139600745Y-92795368D01*
X139668013Y-92802947D01*
X139764384Y-92813806D01*
X139820352Y-92834572D01*
X139860130Y-92879085D01*
X139874500Y-92937026D01*
X139874500Y-98582679D01*
X139860985Y-98638974D01*
X139823385Y-98682997D01*
X139769898Y-98705152D01*
X139712182Y-98700610D01*
X139662819Y-98670360D01*
X139351819Y-98359360D01*
X139324939Y-98319132D01*
X139315500Y-98271679D01*
X139315500Y-95446638D01*
X139318334Y-95420280D01*
X139319166Y-95416455D01*
X139318738Y-95410478D01*
X139315815Y-95369617D01*
X139315500Y-95360771D01*
X139315500Y-95348175D01*
X139313707Y-95335708D01*
X139312760Y-95326900D01*
X139309411Y-95280069D01*
X139308042Y-95276400D01*
X139301488Y-95250718D01*
X139300931Y-95246842D01*
X139281416Y-95204110D01*
X139278038Y-95195955D01*
X139261627Y-95151955D01*
X139259285Y-95148827D01*
X139245755Y-95126023D01*
X139244131Y-95122467D01*
X139217532Y-95091770D01*
X139213367Y-95086962D01*
X139207830Y-95080092D01*
X139200278Y-95070004D01*
X139191383Y-95061109D01*
X139185352Y-95054632D01*
X139154588Y-95019128D01*
X139151287Y-95017007D01*
X139130648Y-95000374D01*
X138435148Y-94304873D01*
X138402432Y-94246867D01*
X138404444Y-94180301D01*
X138440601Y-94124378D01*
X138538183Y-94037929D01*
X138634818Y-93897930D01*
X138695140Y-93738872D01*
X138715074Y-93574699D01*
X138726682Y-93535367D01*
X138750485Y-93501972D01*
X138880654Y-93371803D01*
X138901292Y-93355173D01*
X138904589Y-93353055D01*
X138904592Y-93353052D01*
X138935340Y-93317566D01*
X138941376Y-93311083D01*
X138950275Y-93302184D01*
X138950275Y-93302183D01*
X138950279Y-93302180D01*
X138957835Y-93292084D01*
X138963387Y-93285196D01*
X138994130Y-93249718D01*
X138995756Y-93246156D01*
X139009284Y-93223357D01*
X139011629Y-93220226D01*
X139028043Y-93176215D01*
X139031425Y-93168054D01*
X139050930Y-93125344D01*
X139050929Y-93125344D01*
X139050931Y-93125342D01*
X139051486Y-93121477D01*
X139058044Y-93095780D01*
X139059412Y-93092115D01*
X139062762Y-93045269D01*
X139063709Y-93036464D01*
X139065500Y-93024011D01*
X139065500Y-93011426D01*
X139065816Y-93002580D01*
X139066768Y-92989266D01*
X139069167Y-92955729D01*
X139068333Y-92951898D01*
X139065500Y-92925541D01*
X139065500Y-92726941D01*
X139079015Y-92670646D01*
X139116615Y-92626623D01*
X139170102Y-92604468D01*
X139227818Y-92609010D01*
G37*
%TD.AperFunction*%
%TA.AperFunction,Conductor*%
G36*
X140231612Y-82018629D02*
G01*
X141675639Y-83462656D01*
X141689071Y-83479421D01*
X141742366Y-83529469D01*
X141745131Y-83532148D01*
X141765654Y-83552671D01*
X141765656Y-83552673D01*
X141769190Y-83555414D01*
X141778073Y-83563000D01*
X141811644Y-83594526D01*
X141830449Y-83604864D01*
X141846705Y-83615542D01*
X141860455Y-83626207D01*
X141895539Y-83669081D01*
X141908451Y-83722956D01*
X141978840Y-90805794D01*
X141965775Y-90862441D01*
X141928328Y-90906908D01*
X141874731Y-90929421D01*
X141816762Y-90925033D01*
X141767165Y-90894707D01*
X141414848Y-90542390D01*
X141017349Y-90144890D01*
X140987988Y-90098163D01*
X140981810Y-90043323D01*
X140985565Y-90009997D01*
X140965368Y-89830748D01*
X140965368Y-89830745D01*
X140905789Y-89660478D01*
X140809816Y-89507738D01*
X140809815Y-89507737D01*
X140809814Y-89507735D01*
X140682264Y-89380185D01*
X140571932Y-89310859D01*
X140529522Y-89284211D01*
X140359255Y-89224632D01*
X140359253Y-89224631D01*
X140359251Y-89224631D01*
X140180000Y-89204434D01*
X140000748Y-89224631D01*
X140000745Y-89224631D01*
X140000745Y-89224632D01*
X139830478Y-89284211D01*
X139830476Y-89284211D01*
X139830476Y-89284212D01*
X139677735Y-89380185D01*
X139667681Y-89390240D01*
X139612094Y-89422334D01*
X139547906Y-89422334D01*
X139492319Y-89390240D01*
X139482264Y-89380185D01*
X139371932Y-89310859D01*
X139329522Y-89284211D01*
X139159255Y-89224632D01*
X139159253Y-89224631D01*
X139159251Y-89224631D01*
X138980000Y-89204434D01*
X138800748Y-89224631D01*
X138800745Y-89224631D01*
X138800745Y-89224632D01*
X138630478Y-89284211D01*
X138630476Y-89284211D01*
X138630476Y-89284212D01*
X138477735Y-89380185D01*
X138462681Y-89395240D01*
X138407094Y-89427334D01*
X138342906Y-89427334D01*
X138287319Y-89395240D01*
X138272264Y-89380185D01*
X138161932Y-89310859D01*
X138119522Y-89284211D01*
X137949255Y-89224632D01*
X137949253Y-89224631D01*
X137949251Y-89224631D01*
X137770000Y-89204434D01*
X137590748Y-89224631D01*
X137590745Y-89224631D01*
X137590745Y-89224632D01*
X137420478Y-89284211D01*
X137420476Y-89284211D01*
X137420476Y-89284212D01*
X137267735Y-89380185D01*
X137257681Y-89390240D01*
X137202094Y-89422334D01*
X137137906Y-89422334D01*
X137082319Y-89390240D01*
X137072264Y-89380185D01*
X136961932Y-89310859D01*
X136919522Y-89284211D01*
X136749255Y-89224632D01*
X136749253Y-89224631D01*
X136749251Y-89224631D01*
X136570000Y-89204434D01*
X136390748Y-89224631D01*
X136390745Y-89224631D01*
X136390745Y-89224632D01*
X136220478Y-89284211D01*
X136220476Y-89284211D01*
X136220476Y-89284212D01*
X136067735Y-89380185D01*
X136062681Y-89385240D01*
X136007094Y-89417334D01*
X135942906Y-89417334D01*
X135887319Y-89385240D01*
X135882264Y-89380185D01*
X135771932Y-89310859D01*
X135729522Y-89284211D01*
X135559255Y-89224632D01*
X135559253Y-89224631D01*
X135559251Y-89224631D01*
X135380000Y-89204434D01*
X135200748Y-89224631D01*
X135200745Y-89224631D01*
X135200745Y-89224632D01*
X135030478Y-89284211D01*
X135030476Y-89284211D01*
X135030476Y-89284212D01*
X134877735Y-89380185D01*
X134750185Y-89507735D01*
X134654212Y-89660476D01*
X134594631Y-89830748D01*
X134582720Y-89936464D01*
X134560630Y-89994335D01*
X134542078Y-90010000D01*
X134560630Y-90025665D01*
X134582720Y-90083536D01*
X134594631Y-90189251D01*
X134594631Y-90189253D01*
X134594632Y-90189255D01*
X134654211Y-90359522D01*
X134654212Y-90359523D01*
X134750185Y-90512264D01*
X134877735Y-90639814D01*
X134933534Y-90674875D01*
X134972554Y-90713894D01*
X134990782Y-90765980D01*
X134986177Y-90806859D01*
X134986196Y-90806862D01*
X134964434Y-91000000D01*
X134973491Y-91080384D01*
X134963925Y-91143854D01*
X134923905Y-91194037D01*
X134864155Y-91217487D01*
X134800749Y-91224631D01*
X134800746Y-91224631D01*
X134800745Y-91224632D01*
X134630478Y-91284211D01*
X134630476Y-91284211D01*
X134630476Y-91284212D01*
X134525472Y-91350191D01*
X134462978Y-91369148D01*
X134399519Y-91353725D01*
X134352697Y-91308198D01*
X134335500Y-91245197D01*
X134335500Y-90097420D01*
X134350972Y-90037439D01*
X134376913Y-90010000D01*
X134350972Y-89982561D01*
X134335500Y-89922580D01*
X134335500Y-89015894D01*
X134344939Y-88968441D01*
X134371819Y-88928213D01*
X136892211Y-86407820D01*
X139565906Y-83734123D01*
X139586542Y-83717493D01*
X139589845Y-83715372D01*
X139607951Y-83694476D01*
X139620602Y-83679876D01*
X139626638Y-83673393D01*
X139635528Y-83664503D01*
X139635528Y-83664502D01*
X139635534Y-83664497D01*
X139643099Y-83654390D01*
X139648612Y-83647550D01*
X139679386Y-83612035D01*
X139681010Y-83608476D01*
X139694537Y-83585677D01*
X139696884Y-83582544D01*
X139713300Y-83538527D01*
X139716676Y-83530380D01*
X139717092Y-83529469D01*
X139736187Y-83487659D01*
X139736743Y-83483788D01*
X139743300Y-83458093D01*
X139744667Y-83454432D01*
X139748017Y-83407577D01*
X139748959Y-83398820D01*
X139750756Y-83386328D01*
X139750756Y-83373730D01*
X139751072Y-83364883D01*
X139754422Y-83318045D01*
X139753590Y-83314221D01*
X139750756Y-83287863D01*
X139750756Y-82642729D01*
X139760195Y-82595276D01*
X139787075Y-82555048D01*
X139816649Y-82525474D01*
X139865733Y-82476390D01*
X139955712Y-82333190D01*
X140011569Y-82173559D01*
X140020711Y-82092426D01*
X140046984Y-82028997D01*
X140102977Y-81989268D01*
X140171524Y-81985419D01*
X140231612Y-82018629D01*
G37*
%TD.AperFunction*%
%TD*%
M02*
